<svg version="1.1" viewBox="0.0 0.0 529.1338582677165 529.1338582677165" fill="none" stroke="none" stroke-linecap="square" stroke-miterlimit="10" xmlns:xlink="http://www.w3.org/1999/xlink" xmlns="http://www.w3.org/2000/svg"><clipPath id="p.0"><path d="m0 0l529.13385 0l0 529.13385l-529.13385 0l0 -529.13385z" clip-rule="nonzero"/></clipPath><g clip-path="url(#p.0)"><path fill="#000000" fill-opacity="0.0" d="m18.3979 24.222656l0 0c0 -3.7323895 3.0256996 -6.758089 6.758089 -6.758089l478.7988 0c1.7923584 0 3.5112915 0.71201134 4.7786865 1.9793987c1.267395 1.2673874 1.9794006 2.9863338 1.9794006 4.7786903l0 56.342087c0 3.7323914 -3.0256958 6.758095 -6.758087 6.758095l-478.7988 0c-3.7323895 0 -6.758089 -3.0257034 -6.758089 -6.758095z" fill-rule="evenodd"/><path stroke="#434343" stroke-width="2.0" stroke-linejoin="round" stroke-linecap="butt" d="m18.3979 24.222656l0 0c0 -3.7323895 3.0256996 -6.758089 6.758089 -6.758089l478.7988 0c1.7923584 0 3.5112915 0.71201134 4.7786865 1.9793987c1.267395 1.2673874 1.9794006 2.9863338 1.9794006 4.7786903l0 56.342087c0 3.7323914 -3.0256958 6.758095 -6.758087 6.758095l-478.7988 0c-3.7323895 0 -6.758089 -3.0257034 -6.758089 -6.758095z" fill-rule="evenodd"/><path fill="#434343" d="m225.36742 55.110573q-0.25 2.09375 -1.5625 3.25q-1.296875 1.140625 -3.46875 1.140625q-2.34375 0 -3.765625 -1.6875q-1.421875 -1.6875 -1.421875 -4.515625l0 -1.265625q0 -1.859375 0.65625 -3.25q0.671875 -1.40625 1.875 -2.15625q1.21875 -0.765625 2.8125 -0.765625q2.109375 0 3.390625 1.1875q1.28125 1.171875 1.484375 3.265625l-1.765625 0q-0.21875 -1.578125 -0.984375 -2.28125q-0.765625 -0.71875 -2.125 -0.71875q-1.671875 0 -2.625 1.234375q-0.953125 1.234375 -0.953125 3.53125l0 1.28125q0 2.15625 0.890625 3.4375q0.90625 1.265625 2.53125 1.265625q1.453125 0 2.234375 -0.65625q0.78125 -0.65625 1.03125 -2.296875l1.765625 0zm3.7992096 -4.453125q1.125 -1.375 2.921875 -1.375q3.125 0 3.15625 3.515625l0 6.515625l-1.6875 0l0 -6.515625q-0.015625 -1.078125 -0.5 -1.578125q-0.46875 -0.515625 -1.484375 -0.515625q-0.8125 0 -1.4375 0.4375q-0.609375 0.4375 -0.96875 1.15625l0 7.015625l-1.671875 0l0 -14.0l1.671875 0l0 5.34375zm14.681763 8.65625q-0.140625 -0.296875 -0.234375 -1.03125q-1.171875 1.21875 -2.8125 1.21875q-1.453125 0 -2.390625 -0.828125q-0.921875 -0.828125 -0.921875 -2.09375q0 -1.53125 1.15625 -2.375q1.171875 -0.859375 3.296875 -0.859375l1.640625 0l0 -0.78125q0 -0.890625 -0.53125 -1.40625q-0.515625 -0.53125 -1.546875 -0.53125q-0.90625 0 -1.515625 0.46875q-0.609375 0.453125 -0.609375 1.09375l-1.703125 0q0 -0.734375 0.515625 -1.421875q0.53125 -0.6875 1.421875 -1.078125q0.90625 -0.40625 1.984375 -0.40625q1.703125 0 2.671875 0.859375q0.96875 0.84375 1.0 2.328125l0 4.53125q0 1.359375 0.34375 2.171875l0 0.140625l-1.765625 0zm-2.796875 -1.28125q0.796875 0 1.5 -0.40625q0.71875 -0.421875 1.03125 -1.078125l0 -2.015625l-1.3125 0q-3.109375 0 -3.109375 1.8125q0 0.796875 0.53125 1.25q0.53125 0.4375 1.359375 0.4375zm11.632355 -7.0625q-0.390625 -0.0625 -0.84375 -0.0625q-1.65625 0 -2.25 1.40625l0 7.0l-1.671875 0l0 -9.859375l1.640625 0l0.015625 1.140625q0.828125 -1.3125 2.359375 -1.3125q0.484375 0 0.75 0.125l0 1.5625zm3.8285217 -3.90625l0 2.390625l1.84375 0l0 1.3125l-1.84375 0l0 6.109375q0 0.59375 0.234375 0.890625q0.25 0.296875 0.84375 0.296875q0.296875 0 0.8125 -0.109375l0 1.359375q-0.671875 0.1875 -1.296875 0.1875q-1.1250153 0 -1.7031403 -0.6875q-0.578125 -0.6875 -0.578125 -1.9375l0 -6.109375l-1.796875 0l0 -1.3125l1.796875 0l0 -2.390625l1.6875153 0zm9.891113 12.25q-0.140625 -0.296875 -0.234375 -1.03125q-1.171875 1.21875 -2.8125 1.21875q-1.453125 0 -2.390625 -0.828125q-0.921875 -0.828125 -0.921875 -2.09375q0 -1.53125 1.15625 -2.375q1.171875 -0.859375 3.296875 -0.859375l1.640625 0l0 -0.78125q0 -0.890625 -0.53125 -1.40625q-0.515625 -0.53125 -1.546875 -0.53125q-0.90625 0 -1.515625 0.46875q-0.609375 0.453125 -0.609375 1.09375l-1.703125 0q0 -0.734375 0.515625 -1.421875q0.53125 -0.6875 1.421875 -1.078125q0.90625 -0.40625 1.984375 -0.40625q1.703125 0 2.671875 0.859375q0.96875 0.84375 1.0 2.328125l0 4.53125q0 1.359375 0.34375 2.171875l0 0.140625l-1.765625 0zm-2.796875 -1.28125q0.796875 0 1.5 -0.40625q0.71875 -0.421875 1.03125 -1.078125l0 -2.015625l-1.3125 0q-3.109375 0 -3.109375 1.8125q0 0.796875 0.53125 1.25q0.53125 0.4375 1.359375 0.4375zm21.500885 -2.921875q-0.25 2.09375 -1.5625 3.25q-1.296875 1.140625 -3.46875 1.140625q-2.34375 0 -3.765625 -1.6875q-1.421875 -1.6875 -1.421875 -4.515625l0 -1.265625q0 -1.859375 0.65625 -3.25q0.671875 -1.40625 1.875 -2.15625q1.21875 -0.765625 2.8125 -0.765625q2.109375 0 3.390625 1.1875q1.28125 1.171875 1.484375 3.265625l-1.765625 0q-0.21875 -1.578125 -0.984375 -2.28125q-0.765625 -0.71875 -2.125 -0.71875q-1.671875 0 -2.625 1.234375q-0.953125 1.234375 -0.953125 3.53125l0 1.28125q0 2.15625 0.890625 3.4375q0.90625 1.265625 2.53125 1.265625q1.453125 0 2.234375 -0.65625q0.78125 -0.65625 1.03125 -2.296875l1.765625 0zm8.205444 4.203125q-0.140625 -0.296875 -0.234375 -1.03125q-1.171875 1.21875 -2.8125 1.21875q-1.453125 0 -2.390625 -0.828125q-0.921875 -0.828125 -0.921875 -2.09375q0 -1.53125 1.15625 -2.375q1.171875 -0.859375 3.296875 -0.859375l1.640625 0l0 -0.78125q0 -0.890625 -0.53125 -1.40625q-0.515625 -0.53125 -1.546875 -0.53125q-0.90625 0 -1.515625 0.46875q-0.609375 0.453125 -0.609375 1.09375l-1.703125 0q0 -0.734375 0.515625 -1.421875q0.53125 -0.6875 1.421875 -1.078125q0.90625 -0.40625 1.984375 -0.40625q1.703125 0 2.671875 0.859375q0.96875 0.84375 1.0 2.328125l0 4.53125q0 1.359375 0.34375 2.171875l0 0.140625l-1.765625 0zm-2.796875 -1.28125q0.796875 0 1.5 -0.40625q0.71875 -0.421875 1.03125 -1.078125l0 -2.015625l-1.3125 0q-3.109375 0 -3.109375 1.8125q0 0.796875 0.53125 1.25q0.53125 0.4375 1.359375 0.4375zm10.944885 1.46875q-2.0 0 -3.265625 -1.3125q-1.25 -1.328125 -1.25 -3.53125l0 -0.3125q0 -1.46875 0.5625 -2.609375q0.5625 -1.15625 1.5625 -1.796875q1.015625 -0.65625 2.1875 -0.65625q1.921875 0 2.984375 1.265625q1.0625 1.265625 1.0625 3.625l0 0.6875l-6.671875 0q0.03125 1.46875 0.84375 2.375q0.828125 0.890625 2.078125 0.890625q0.890625 0 1.515625 -0.359375q0.625 -0.375 1.078125 -0.96875l1.03125 0.796875q-1.234375 1.90625 -3.71875 1.90625zm-0.203125 -8.84375q-1.015625 0 -1.71875 0.75q-0.6875 0.734375 -0.84375 2.078125l4.9375 0l0 -0.125q-0.078125 -1.28125 -0.703125 -1.984375q-0.609375 -0.71875 -1.671875 -0.71875zm7.836914 8.65625l-1.6875 0l0 -14.0l1.6875 0l0 14.0zm4.527405 0l-1.6875 0l0 -9.859375l1.6875 0l0 9.859375zm-1.828125 -12.46875q0 -0.40625 0.25 -0.6875q0.25 -0.296875 0.734375 -0.296875q0.5 0 0.75 0.296875q0.265625 0.28125 0.265625 0.6875q0 0.40625 -0.265625 0.6875q-0.25 0.265625 -0.75 0.265625q-0.484375 0 -0.734375 -0.265625q-0.25 -0.28125 -0.25 -0.6875z" fill-rule="nonzero"/><path fill="#000000" fill-opacity="0.0" d="m18.3979 99.55599l0 0c0 -3.7323914 3.0256996 -6.758095 6.758089 -6.758095l478.7988 0c1.7923584 0 3.5112915 0.71201324 4.7786865 1.9794006c1.267395 1.2673874 1.9794006 2.9863358 1.9794006 4.778694l0 56.342094c0 3.732376 -3.0256958 6.758087 -6.758087 6.758087l-478.7988 0c-3.7323895 0 -6.758089 -3.025711 -6.758089 -6.758087z" fill-rule="evenodd"/><path stroke="#434343" stroke-width="2.0" stroke-linejoin="round" stroke-linecap="butt" d="m18.3979 99.55599l0 0c0 -3.7323914 3.0256996 -6.758095 6.758089 -6.758095l478.7988 0c1.7923584 0 3.5112915 0.71201324 4.7786865 1.9794006c1.267395 1.2673874 1.9794006 2.9863358 1.9794006 4.778694l0 56.342094c0 3.732376 -3.0256958 6.758087 -6.758087 6.758087l-478.7988 0c-3.7323895 0 -6.758089 -3.025711 -6.758089 -6.758087z" fill-rule="evenodd"/><path fill="#434343" d="m251.83597 121.38141l1.765625 0l0 9.390625q0 1.90625 -1.15625 2.984375q-1.140625 1.078125 -3.03125 1.078125q-1.984375 0 -3.09375 -1.015625q-1.09375 -1.015625 -1.09375 -2.828125l1.75 0q0 1.140625 0.625 1.78125q0.625 0.625 1.8125 0.625q1.078125 0 1.75 -0.671875q0.671875 -0.6875 0.671875 -1.921875l0 -9.421875zm10.559357 13.265625q-0.140625 -0.296875 -0.234375 -1.03125q-1.171875 1.21875 -2.8125 1.21875q-1.453125 0 -2.390625 -0.828125q-0.921875 -0.828125 -0.921875 -2.09375q0 -1.53125 1.15625 -2.375q1.171875 -0.859375 3.296875 -0.859375l1.640625 0l0 -0.78125q0 -0.890625 -0.53125 -1.40625q-0.515625 -0.53125 -1.546875 -0.53125q-0.90625 0 -1.515625 0.46875q-0.609375 0.453125 -0.609375 1.09375l-1.703125 0q0 -0.734375 0.515625 -1.421875q0.53125 -0.6875 1.421875 -1.078125q0.90625 -0.40625 1.984375 -0.40625q1.703125 0 2.671875 0.859375q0.96875 0.84375 1.0 2.328125l0 4.53125q0 1.359375 0.34375 2.171875l0 0.140625l-1.765625 0zm-2.796875 -1.28125q0.796875 0 1.5 -0.40625q0.71875 -0.421875 1.03125 -1.078125l0 -2.015625l-1.3125 0q-3.109375 0 -3.109375 1.8125q0 0.796875 0.53125 1.25q0.53125 0.4375 1.359375 0.4375zm10.11673 -1.0l2.4375 -7.578125l1.71875 0l-3.53125 9.859375l-1.28125 0l-3.578125 -9.859375l1.71875 0l2.515625 7.578125zm11.864746 2.28125q-0.140625 -0.296875 -0.234375 -1.03125q-1.171875 1.21875 -2.8125 1.21875q-1.453125 0 -2.390625 -0.828125q-0.921875 -0.828125 -0.921875 -2.09375q0 -1.53125 1.15625 -2.375q1.171875 -0.859375 3.296875 -0.859375l1.640625 0l0 -0.78125q0 -0.890625 -0.53125 -1.40625q-0.515625 -0.53125 -1.546875 -0.53125q-0.90625 0 -1.515625 0.46875q-0.609375 0.453125 -0.609375 1.09375l-1.703125 0q0 -0.734375 0.515625 -1.421875q0.53125 -0.6875 1.421875 -1.078125q0.90625 -0.40625 1.984375 -0.40625q1.703125 0 2.671875 0.859375q0.96875 0.84375 1.0 2.328125l0 4.53125q0 1.359375 0.34375 2.171875l0 0.140625l-1.765625 0zm-2.796875 -1.28125q0.796875 0 1.5 -0.40625q0.71875 -0.421875 1.03125 -1.078125l0 -2.015625l-1.3125 0q-3.109375 0 -3.109375 1.8125q0 0.796875 0.53125 1.25q0.53125 0.4375 1.359375 0.4375z" fill-rule="nonzero"/><path fill="#000000" fill-opacity="0.0" d="m18.395002 176.42186l0 0c0 -4.578781 3.7118378 -8.290619 8.290623 -8.290619l140.11166 0c2.198822 0 4.3075714 0.8734741 5.8623657 2.4282532c1.5547943 1.5547943 2.4282684 3.663559 2.4282684 5.8623657l0 209.78096c0 4.578766 -3.7118378 8.290619 -8.290634 8.290619l-140.11166 0c-4.578785 0 -8.290623 -3.711853 -8.290623 -8.290619z" fill-rule="evenodd"/><path stroke="#434343" stroke-width="2.0" stroke-linejoin="round" stroke-linecap="butt" d="m18.395002 176.42186l0 0c0 -4.578781 3.7118378 -8.290619 8.290623 -8.290619l140.11166 0c2.198822 0 4.3075714 0.8734741 5.8623657 2.4282532c1.5547943 1.5547943 2.4282684 3.663559 2.4282684 5.8623657l0 209.78096c0 4.578766 -3.7118378 8.290619 -8.290634 8.290619l-140.11166 0c-4.578785 0 -8.290623 -3.711853 -8.290623 -8.290619z" fill-rule="evenodd"/><path fill="#434343" d="m87.643074 260.9667l1.765625 0l0 9.390625q0 1.90625 -1.15625 2.984375q-1.140625 1.078125 -3.03125 1.078125q-1.984375 0 -3.09375 -1.015625q-1.09375 -1.015625 -1.09375 -2.828125l1.75 0q0 1.140625 0.625 1.78125q0.625 0.625 1.8125 0.625q1.078125 0 1.75 -0.671875q0.671875 -0.6875 0.671875 -1.921875l0 -9.421875zm9.606232 7.90625l-3.125 0l0 5.359375l-1.75 0l0 -13.265625l4.390625 0q2.234375 0 3.4375 1.03125q1.21875 1.015625 1.21875 2.953125q0 1.25 -0.671875 2.171875q-0.671875 0.921875 -1.859375 1.375l3.109375 5.625l0 0.109375l-1.875 0l-2.875 -5.359375zm-3.125 -1.4375l2.6875 0q1.3125 0 2.078125 -0.671875q0.765625 -0.671875 0.765625 -1.8125q0 -1.21875 -0.734375 -1.875q-0.734375 -0.65625 -2.109375 -0.671875l-2.6875 0l0 5.03125zm17.237076 0.671875l-5.75 0l0 4.6875l6.6875 0l0 1.4375l-8.421875 0l0 -13.265625l8.328125 0l0 1.4375l-6.59375 0l0 4.265625l5.75 0l0 1.4375z" fill-rule="nonzero"/><path fill="#434343" d="m42.71997 286.3636q0 -1.3125 0.34375 -2.53125q0.359375 -1.21875 1.0625 -2.21875q0.703125 -1.0 1.46875 -1.40625l0.21875 0.71875q-0.859375 0.65625 -1.40625 2.0q-0.546875 1.34375 -0.59375 3.015625l-0.015625 0.5q0 2.265625 0.828125 3.921875q0.5 1.0 1.1875 1.5625l-0.21875 0.65625q-0.78125 -0.421875 -1.5 -1.453125q-1.375 -1.984375 -1.375 -4.765625zm10.5859375 0.765625q-0.15625 1.34375 -1.0 2.09375q-0.84375 0.734375 -2.234375 0.734375q-1.515625 0 -2.421875 -1.078125q-0.90625 -1.09375 -0.90625 -2.921875l0 -0.8125q0 -1.1875 0.421875 -2.09375q0.421875 -0.90625 1.203125 -1.390625q0.78125 -0.484375 1.796875 -0.484375q1.359375 0 2.171875 0.765625q0.828125 0.765625 0.96875 2.09375l-1.125 0q-0.15625 -1.015625 -0.640625 -1.46875q-0.484375 -0.453125 -1.375 -0.453125q-1.078125 0 -1.6875 0.796875q-0.609375 0.796875 -0.609375 2.265625l0 0.828125q0 1.390625 0.578125 2.21875q0.578125 0.8125 1.625 0.8125q0.9375 0 1.4375 -0.421875q0.5 -0.4375 0.671875 -1.484375l1.125 0zm5.279297 2.703125q-0.09375 -0.1875 -0.15625 -0.671875q-0.75 0.796875 -1.796875 0.796875q-0.9375 0 -1.546875 -0.53125q-0.59375 -0.53125 -0.59375 -1.359375q0 -0.984375 0.75 -1.53125q0.75 -0.546875 2.125 -0.546875l1.046875 0l0 -0.5q0 -0.5625 -0.34375 -0.890625q-0.328125 -0.34375 -1.0 -0.34375q-0.578125 0 -0.96875 0.296875q-0.390625 0.28125 -0.390625 0.703125l-1.09375 0q0 -0.484375 0.328125 -0.921875q0.34375 -0.4375 0.921875 -0.6875q0.578125 -0.265625 1.265625 -0.265625q1.109375 0 1.71875 0.546875q0.625 0.546875 0.65625 1.5l0 2.921875q0 0.875 0.21875 1.390625l0 0.09375l-1.140625 0zm-1.796875 -0.828125q0.515625 0 0.96875 -0.265625q0.453125 -0.265625 0.65625 -0.6875l0 -1.296875l-0.84375 0q-2.0 0 -2.0 1.171875q0 0.5 0.34375 0.796875q0.34375 0.28125 0.875 0.28125zm8.105469 -0.859375q0 -0.4375 -0.34375 -0.671875q-0.328125 -0.25 -1.15625 -0.421875q-0.8125 -0.171875 -1.296875 -0.421875q-0.484375 -0.25 -0.71875 -0.578125q-0.21875 -0.34375 -0.21875 -0.8125q0 -0.78125 0.65625 -1.3125q0.65625 -0.546875 1.6875 -0.546875q1.078125 0 1.734375 0.5625q0.671875 0.546875 0.671875 1.40625l-1.078125 0q0 -0.4375 -0.390625 -0.75q-0.375 -0.328125 -0.9375 -0.328125q-0.59375 0 -0.9375 0.265625q-0.328125 0.25 -0.328125 0.65625q0 0.390625 0.3125 0.59375q0.3125 0.203125 1.125 0.390625q0.8125 0.171875 1.3125 0.421875q0.5 0.25 0.734375 0.609375q0.25 0.359375 0.25 0.859375q0 0.859375 -0.6875 1.375q-0.671875 0.515625 -1.75 0.515625q-0.765625 0 -1.359375 -0.265625q-0.578125 -0.28125 -0.90625 -0.765625q-0.328125 -0.484375 -0.328125 -1.046875l1.078125 0q0.03125 0.546875 0.4375 0.875q0.40625 0.3125 1.078125 0.3125q0.609375 0 0.984375 -0.25q0.375 -0.25 0.375 -0.671875zm3.96875 -6.1875l0 1.53125l1.171875 0l0 0.84375l-1.171875 0l0 3.921875q0 0.390625 0.15625 0.578125q0.15625 0.1875 0.53125 0.1875q0.1875 0 0.515625 -0.0625l0 0.875q-0.421875 0.125 -0.828125 0.125q-0.71875 0 -1.09375 -0.4375q-0.375 -0.453125 -0.375 -1.265625l0 -3.921875l-1.15625 0l0 -0.84375l1.15625 0l0 -1.53125l1.09375 0zm2.1542969 4.640625q0 -0.921875 0.359375 -1.671875q0.375 -0.75 1.03125 -1.140625q0.65625 -0.40625 1.484375 -0.40625q1.296875 0 2.09375 0.890625q0.8125 0.890625 0.8125 2.390625l0 0.078125q0 0.921875 -0.359375 1.65625q-0.359375 0.734375 -1.015625 1.15625q-0.65625 0.40625 -1.515625 0.40625q-1.28125 0 -2.09375 -0.890625q-0.796875 -0.90625 -0.796875 -2.390625l0 -0.078125zm1.09375 0.140625q0 1.046875 0.484375 1.6875q0.5 0.640625 1.3125 0.640625q0.828125 0 1.3125 -0.640625q0.484375 -0.65625 0.484375 -1.828125q0 -1.03125 -0.5 -1.671875q-0.484375 -0.65625 -1.3125 -0.65625q-0.796875 0 -1.296875 0.640625q-0.484375 0.625 -0.484375 1.828125zm9.109375 -2.28125q-0.25 -0.03125 -0.53125 -0.03125q-1.078125 0 -1.453125 0.90625l0 4.5l-1.078125 0l0 -6.34375l1.046875 0l0.015625 0.734375q0.53125 -0.84375 1.515625 -0.84375q0.3125 0 0.484375 0.078125l0 1.0zm0.9511719 7.078125l-0.609375 -0.421875q0.546875 -0.765625 0.578125 -1.59375l0 -0.96875l1.0625 0l0 0.84375q0 0.59375 -0.296875 1.1875q-0.296875 0.59375 -0.734375 0.953125zm9.107422 -10.234375l1.140625 0l0 6.046875q0 1.21875 -0.75 1.921875q-0.734375 0.6875 -1.953125 0.6875q-1.265625 0 -1.984375 -0.65625q-0.703125 -0.65625 -0.703125 -1.828125l1.125 0q0 0.734375 0.390625 1.15625q0.40625 0.40625 1.171875 0.40625q0.703125 0 1.125 -0.4375q0.4375 -0.453125 0.4375 -1.234375l0 -6.0625zm8.949219 0.921875l-2.75 0l0 7.609375l-1.109375 0l0 -7.609375l-2.75 0l0 -0.921875l6.609375 0l0 0.921875zm3.7695312 3.8125q-1.4375 -0.421875 -2.109375 -1.03125q-0.65625 -0.609375 -0.65625 -1.5q0 -1.0 0.796875 -1.65625q0.8125 -0.671875 2.109375 -0.671875q0.875 0 1.5625 0.34375q0.6875 0.34375 1.0625 0.9375q0.390625 0.59375 0.390625 1.3125l-1.140625 0q0 -0.78125 -0.5 -1.21875q-0.484375 -0.4375 -1.375 -0.4375q-0.828125 0 -1.296875 0.375q-0.46875 0.359375 -0.46875 1.0q0 0.53125 0.4375 0.890625q0.453125 0.359375 1.515625 0.65625q1.0625 0.296875 1.65625 0.65625q0.609375 0.359375 0.890625 0.84375q0.296875 0.484375 0.296875 1.125q0 1.046875 -0.8125 1.671875q-0.8125 0.625 -2.15625 0.625q-0.890625 0 -1.65625 -0.34375q-0.75 -0.34375 -1.171875 -0.921875q-0.40625 -0.59375 -0.40625 -1.328125l1.125 0q0 0.765625 0.578125 1.21875q0.578125 0.453125 1.53125 0.453125q0.890625 0 1.359375 -0.359375q0.46875 -0.375 0.46875 -1.0q0 -0.625 -0.4375 -0.96875q-0.4375 -0.34375 -1.59375 -0.671875zm4.4003906 5.5l-0.609375 -0.421875q0.546875 -0.765625 0.578125 -1.59375l0 -0.96875l1.0625 0l0 0.84375q0 0.59375 -0.296875 1.1875q-0.296875 0.59375 -0.734375 0.953125zm8.669922 -5.15625l-2.015625 0l0 3.453125l-1.125 0l0 -8.53125l2.828125 0q1.4375 0 2.203125 0.65625q0.78125 0.65625 0.78125 1.90625q0 0.796875 -0.4375 1.390625q-0.421875 0.59375 -1.1875 0.890625l2.0 3.609375l0 0.078125l-1.203125 0l-1.84375 -3.453125zm-2.015625 -0.921875l1.734375 0q0.84375 0 1.328125 -0.421875q0.5 -0.4375 0.5 -1.171875q0 -0.78125 -0.46875 -1.203125q-0.46875 -0.421875 -1.359375 -0.4375l-1.734375 0l0 3.234375zm10.013672 3.75q-0.625 0.75 -1.859375 0.75q-1.015625 0 -1.546875 -0.59375q-0.53125 -0.59375 -0.53125 -1.75l0 -4.125l1.078125 0l0 4.09375q0 1.453125 1.171875 1.453125q1.25 0 1.65625 -0.9375l0 -4.609375l1.09375 0l0 6.34375l-1.03125 0l-0.03125 -0.625zm3.7246094 -5.71875l0.03125 0.796875q0.734375 -0.90625 1.90625 -0.90625q2.015625 0 2.03125 2.265625l0 4.1875l-1.09375 0l0 -4.203125q0 -0.671875 -0.3125 -1.0q-0.296875 -0.328125 -0.953125 -0.328125q-0.53125 0 -0.9375 0.28125q-0.390625 0.28125 -0.609375 0.734375l0 4.515625l-1.078125 0l0 -6.34375l1.015625 0zm12.042969 3.640625q-0.15625 1.34375 -1.0 2.09375q-0.84375 0.734375 -2.234375 0.734375q-1.515625 0 -2.421875 -1.078125q-0.90625 -1.09375 -0.90625 -2.921875l0 -0.8125q0 -1.1875 0.421875 -2.09375q0.421875 -0.90625 1.203125 -1.390625q0.78125 -0.484375 1.796875 -0.484375q1.359375 0 2.171875 0.765625q0.828125 0.765625 0.96875 2.09375l-1.125 0q-0.15625 -1.015625 -0.640625 -1.46875q-0.484375 -0.453125 -1.375 -0.453125q-1.078125 0 -1.6875 0.796875q-0.609375 0.796875 -0.609375 2.265625l0 0.828125q0 1.390625 0.578125 2.21875q0.578125 0.8125 1.625 0.8125q0.9375 0 1.4375 -0.421875q0.5 -0.4375 0.671875 -1.484375l1.125 0zm7.810547 0q-0.15625 1.34375 -1.0 2.09375q-0.84375 0.734375 -2.234375 0.734375q-1.515625 0 -2.421875 -1.078125q-0.90625 -1.09375 -0.90625 -2.921875l0 -0.8125q0 -1.1875 0.421875 -2.09375q0.421875 -0.90625 1.203125 -1.390625q0.78125 -0.484375 1.796875 -0.484375q1.359375 0 2.171875 0.765625q0.828125 0.765625 0.96875 2.09375l-1.125 0q-0.15625 -1.015625 -0.640625 -1.46875q-0.484375 -0.453125 -1.375 -0.453125q-1.078125 0 -1.6875 0.796875q-0.609375 0.796875 -0.609375 2.265625l0 0.828125q0 1.390625 0.578125 2.21875q0.578125 0.8125 1.625 0.8125q0.9375 0 1.4375 -0.421875q0.5 -0.4375 0.671875 -1.484375l1.125 0zm1.3261719 4.40625l-0.609375 -0.421875q0.546875 -0.765625 0.578125 -1.59375l0 -0.96875l1.0625 0l0 0.84375q0 0.59375 -0.296875 1.1875q-0.296875 0.59375 -0.734375 0.953125z" fill-rule="nonzero"/><path fill="#434343" d="m44.357666 301.59796l-3.578125 0l-0.796875 2.234375l-1.15625 0l3.25 -8.53125l0.984375 0l3.265625 8.53125l-1.15625 0l-0.8125 -2.234375zm-3.234375 -0.921875l2.90625 0l-1.453125 -3.984375l-1.453125 3.984375zm11.53125 0.0625q0 1.4375 -0.65625 2.328125q-0.65625 0.890625 -1.796875 0.890625q-1.15625 0 -1.8125 -0.734375l0 3.046875l-1.078125 0l0 -8.78125l0.984375 0l0.046875 0.703125q0.671875 -0.8125 1.84375 -0.8125q1.140625 0 1.796875 0.859375q0.671875 0.859375 0.671875 2.390625l0 0.109375zm-1.078125 -0.125q0 -1.078125 -0.46875 -1.6875q-0.453125 -0.625 -1.25 -0.625q-0.984375 0 -1.46875 0.859375l0 3.03125q0.484375 0.875 1.484375 0.875q0.78125 0 1.234375 -0.609375q0.46875 -0.625 0.46875 -1.84375zm6.373047 3.21875q-0.09375 -0.1875 -0.15625 -0.671875q-0.75 0.796875 -1.796875 0.796875q-0.9375 0 -1.546875 -0.53125q-0.59375 -0.53125 -0.59375 -1.359375q0 -0.984375 0.75 -1.53125q0.75 -0.546875 2.125 -0.546875l1.046875 0l0 -0.5q0 -0.5625 -0.34375 -0.890625q-0.328125 -0.34375 -1.0 -0.34375q-0.578125 0 -0.96875 0.296875q-0.390625 0.28125 -0.390625 0.703125l-1.09375 0q0 -0.484375 0.328125 -0.921875q0.34375 -0.4375 0.921875 -0.6875q0.578125 -0.265625 1.265625 -0.265625q1.109375 0 1.71875 0.546875q0.625 0.546875 0.65625 1.5l0 2.921875q0 0.875 0.21875 1.390625l0 0.09375l-1.140625 0zm-1.796875 -0.828125q0.515625 0 0.96875 -0.265625q0.453125 -0.265625 0.65625 -0.6875l0 -1.296875l-0.84375 0q-2.0 0 -2.0 1.171875q0 0.5 0.34375 0.796875q0.34375 0.28125 0.875 0.28125zm6.9492188 0.0625q0.578125 0 1.015625 -0.34375q0.4375 -0.359375 0.484375 -0.890625l1.03125 0q-0.03125 0.546875 -0.390625 1.046875q-0.34375 0.484375 -0.921875 0.78125q-0.5625 0.296875 -1.21875 0.296875q-1.296875 0 -2.0625 -0.859375q-0.75 -0.875 -0.75 -2.375l0 -0.1875q0 -0.921875 0.328125 -1.640625q0.34375 -0.71875 0.96875 -1.109375q0.640625 -0.40625 1.515625 -0.40625q1.0625 0 1.765625 0.640625q0.71875 0.625 0.765625 1.65625l-1.03125 0q-0.046875 -0.625 -0.46875 -1.015625q-0.421875 -0.390625 -1.03125 -0.390625q-0.828125 0 -1.28125 0.59375q-0.453125 0.59375 -0.453125 1.71875l0 0.203125q0 1.09375 0.453125 1.6875q0.453125 0.59375 1.28125 0.59375zm4.828125 -4.8125q0.71875 -0.875 1.875 -0.875q2.015625 0 2.03125 2.265625l0 4.1875l-1.09375 0l0 -4.203125q0 -0.671875 -0.3125 -1.0q-0.296875 -0.328125 -0.953125 -0.328125q-0.53125 0 -0.9375 0.28125q-0.390625 0.28125 -0.609375 0.734375l0 4.515625l-1.078125 0l0 -9.0l1.078125 0l0 3.421875zm8.15625 5.703125q-1.296875 0 -2.109375 -0.84375q-0.796875 -0.859375 -0.796875 -2.28125l0 -0.1875q0 -0.953125 0.359375 -1.6875q0.359375 -0.75 1.0 -1.15625q0.65625 -0.421875 1.40625 -0.421875q1.234375 0 1.921875 0.8125q0.6875 0.8125 0.6875 2.328125l0 0.453125l-4.296875 0q0.03125 0.9375 0.546875 1.515625q0.53125 0.578125 1.34375 0.578125q0.5625 0 0.953125 -0.234375q0.40625 -0.234375 0.71875 -0.625l0.65625 0.515625q-0.796875 1.234375 -2.390625 1.234375zm-0.140625 -5.6875q-0.65625 0 -1.109375 0.484375q-0.4375 0.46875 -0.53125 1.328125l3.171875 0l0 -0.078125q-0.046875 -0.828125 -0.453125 -1.28125q-0.390625 -0.453125 -1.078125 -0.453125zm13.28125 2.859375q-0.15625 1.34375 -1.0 2.09375q-0.84375 0.734375 -2.234375 0.734375q-1.515625 0 -2.421875 -1.078125q-0.90625 -1.09375 -0.90625 -2.921875l0 -0.8125q0 -1.1875 0.421875 -2.09375q0.421875 -0.90625 1.203125 -1.390625q0.78125 -0.484375 1.796875 -0.484375q1.359375 0 2.171875 0.765625q0.828125 0.765625 0.96875 2.09375l-1.125 0q-0.15625 -1.015625 -0.640625 -1.46875q-0.484375 -0.453125 -1.375 -0.453125q-1.078125 0 -1.6875 0.796875q-0.609375 0.796875 -0.609375 2.265625l0 0.828125q0 1.390625 0.578125 2.21875q0.578125 0.8125 1.625 0.8125q0.9375 0 1.4375 -0.421875q0.5 -0.4375 0.671875 -1.484375l1.125 0zm1.0761719 -0.53125q0 -0.921875 0.359375 -1.671875q0.375 -0.75 1.03125 -1.140625q0.65625 -0.40625 1.484375 -0.40625q1.296875 0 2.09375 0.890625q0.8125 0.890625 0.8125 2.390625l0 0.078125q0 0.921875 -0.359375 1.65625q-0.359375 0.734375 -1.015625 1.15625q-0.65625 0.40625 -1.515625 0.40625q-1.28125 0 -2.09375 -0.890625q-0.796875 -0.90625 -0.796875 -2.390625l0 -0.078125zm1.09375 0.140625q0 1.046875 0.484375 1.6875q0.5 0.640625 1.3125 0.640625q0.828125 0 1.3125 -0.640625q0.484375 -0.65625 0.484375 -1.828125q0 -1.03125 -0.5 -1.671875q-0.484375 -0.65625 -1.3125 -0.65625q-0.796875 0 -1.296875 0.640625q-0.484375 0.625 -0.484375 1.828125zm7.0625 -3.25l0.03125 0.703125q0.6875 -0.8125 1.875 -0.8125q1.328125 0 1.8125 1.015625q0.3125 -0.453125 0.8125 -0.734375q0.515625 -0.28125 1.203125 -0.28125q2.09375 0 2.125 2.203125l0 4.25l-1.078125 0l0 -4.1875q0 -0.671875 -0.3125 -1.0q-0.3125 -0.34375 -1.046875 -0.34375q-0.609375 0 -1.015625 0.359375q-0.390625 0.359375 -0.453125 0.96875l0 4.203125l-1.078125 0l0 -4.15625q0 -1.375 -1.359375 -1.375q-1.0625 0 -1.453125 0.90625l0 4.625l-1.09375 0l0 -6.34375l1.03125 0zm10.517578 0l0.03125 0.703125q0.6875 -0.8125 1.875 -0.8125q1.328125 0 1.8125 1.015625q0.3125 -0.453125 0.8125 -0.734375q0.515625 -0.28125 1.203125 -0.28125q2.09375 0 2.125 2.203125l0 4.25l-1.078125 0l0 -4.1875q0 -0.671875 -0.3125 -1.0q-0.3125 -0.34375 -1.046875 -0.34375q-0.609375 0 -1.015625 0.359375q-0.390625 0.359375 -0.453125 0.96875l0 4.203125l-1.078125 0l0 -4.15625q0 -1.375 -1.359375 -1.375q-1.0625 0 -1.453125 0.90625l0 4.625l-1.09375 0l0 -6.34375l1.03125 0zm9.205078 3.109375q0 -0.921875 0.359375 -1.671875q0.375 -0.75 1.03125 -1.140625q0.65625 -0.40625 1.484375 -0.40625q1.296875 0 2.09375 0.890625q0.8125 0.890625 0.8125 2.390625l0 0.078125q0 0.921875 -0.359375 1.65625q-0.359375 0.734375 -1.015625 1.15625q-0.65625 0.40625 -1.515625 0.40625q-1.28125 0 -2.09375 -0.890625q-0.796875 -0.90625 -0.796875 -2.390625l0 -0.078125zm1.09375 0.140625q0 1.046875 0.484375 1.6875q0.5 0.640625 1.3125 0.640625q0.828125 0 1.3125 -0.640625q0.484375 -0.65625 0.484375 -1.828125q0 -1.03125 -0.5 -1.671875q-0.484375 -0.65625 -1.3125 -0.65625q-0.796875 0 -1.296875 0.640625q-0.484375 0.625 -0.484375 1.828125zm7.0625 -3.25l0.03125 0.796875q0.734375 -0.90625 1.90625 -0.90625q2.015625 0 2.03125 2.265625l0 4.1875l-1.09375 0l0 -4.203125q0 -0.671875 -0.3125 -1.0q-0.296875 -0.328125 -0.953125 -0.328125q-0.53125 0 -0.9375 0.28125q-0.390625 0.28125 -0.609375 0.734375l0 4.515625l-1.078125 0l0 -6.34375l1.015625 0zm9.292969 4.65625q0 -0.4375 -0.34375 -0.671875q-0.328125 -0.25 -1.15625 -0.421875q-0.8125 -0.171875 -1.296875 -0.421875q-0.484375 -0.25 -0.71875 -0.578125q-0.21875 -0.34375 -0.21875 -0.8125q0 -0.78125 0.65625 -1.3125q0.65625 -0.546875 1.6875 -0.546875q1.078125 0 1.734375 0.5625q0.671875 0.546875 0.671875 1.40625l-1.078125 0q0 -0.4375 -0.390625 -0.75q-0.375 -0.328125 -0.9375 -0.328125q-0.59375 0 -0.9375 0.265625q-0.328125 0.25 -0.328125 0.65625q0 0.390625 0.3125 0.59375q0.3125 0.203125 1.125 0.390625q0.8125 0.171875 1.3125 0.421875q0.5 0.25 0.734375 0.609375q0.25 0.359375 0.25 0.859375q0 0.859375 -0.6875 1.375q-0.671875 0.515625 -1.75 0.515625q-0.765625 0 -1.359375 -0.265625q-0.578125 -0.28125 -0.90625 -0.765625q-0.328125 -0.484375 -0.328125 -1.046875l1.078125 0q0.03125 0.546875 0.4375 0.875q0.40625 0.3125 1.078125 0.3125q0.609375 0 0.984375 -0.25q0.375 -0.25 0.375 -0.671875zm2.453125 3.390625l-0.609375 -0.421875q0.546875 -0.765625 0.578125 -1.59375l0 -0.96875l1.0625 0l0 0.84375q0 0.59375 -0.296875 1.1875q-0.296875 0.59375 -0.734375 0.953125zm5.388672 -2.265625q0 -0.28125 0.15625 -0.46875q0.171875 -0.1875 0.5 -0.1875q0.34375 0 0.515625 0.1875q0.171875 0.1875 0.171875 0.46875q0 0.265625 -0.171875 0.453125q-0.171875 0.171875 -0.515625 0.171875q-0.328125 0 -0.5 -0.171875q-0.15625 -0.1875 -0.15625 -0.453125zm3.0 0q0 -0.28125 0.15625 -0.46875q0.171875 -0.1875 0.5 -0.1875q0.34375 0 0.515625 0.1875q0.171875 0.1875 0.171875 0.46875q0 0.265625 -0.171875 0.453125q-0.171875 0.171875 -0.515625 0.171875q-0.328125 0 -0.5 -0.171875q-0.15625 -0.1875 -0.15625 -0.453125zm2.0 0q0 -0.28125 0.15625 -0.46875q0.171875 -0.1875 0.5 -0.1875q0.34375 0 0.515625 0.1875q0.171875 0.1875 0.171875 0.46875q0 0.265625 -0.171875 0.453125q-0.171875 0.171875 -0.515625 0.171875q-0.328125 0 -0.5 -0.171875q-0.15625 -0.1875 -0.15625 -0.453125zm5.5117188 -2.84375q0 1.3125 -0.34375 2.515625q-0.34375 1.1875 -1.0625 2.203125q-0.703125 1.015625 -1.46875 1.4375l-0.234375 -0.65625q0.90625 -0.6875 1.453125 -2.140625q0.546875 -1.46875 0.5625 -3.234375l0 -0.1875q0 -1.234375 -0.265625 -2.296875q-0.25 -1.0625 -0.71875 -1.890625q-0.453125 -0.84375 -1.03125 -1.3125l0.234375 -0.65625q0.765625 0.421875 1.46875 1.421875q0.703125 1.0 1.046875 2.21875q0.359375 1.203125 0.359375 2.578125z" fill-rule="nonzero"/><path fill="#000000" fill-opacity="0.0" d="m181.6885 174.88933l0 0c0 -3.7323914 3.0256958 -6.758087 6.758087 -6.758087l91.74365 0c1.7923584 0 3.511322 0.7120056 4.7786865 1.9793854c1.267395 1.267395 1.9794006 2.9863434 1.9794006 4.778702l0 56.342087c0 3.7323914 -3.0256958 6.758087 -6.758087 6.758087l-91.74365 0l0 0c-3.7323914 0 -6.758087 -3.0256958 -6.758087 -6.758087z" fill-rule="evenodd"/><path stroke="#434343" stroke-width="2.0" stroke-linejoin="round" stroke-linecap="butt" d="m181.6885 174.88933l0 0c0 -3.7323914 3.0256958 -6.758087 6.758087 -6.758087l91.74365 0c1.7923584 0 3.511322 0.7120056 4.7786865 1.9793854c1.267395 1.267395 1.9794006 2.9863434 1.9794006 4.778702l0 56.342087c0 3.7323914 -3.0256958 6.758087 -6.758087 6.758087l-91.74365 0l0 0c-3.7323914 0 -6.758087 -3.0256958 -6.758087 -6.758087z" fill-rule="evenodd"/><path fill="#434343" d="m227.37354 194.77724q-0.25 2.09375 -1.5625 3.25q-1.296875 1.140625 -3.46875 1.140625q-2.34375 0 -3.765625 -1.6875q-1.421875 -1.6875 -1.421875 -4.515625l0 -1.265625q0 -1.859375 0.65625 -3.25q0.671875 -1.40625 1.875 -2.15625q1.21875 -0.765625 2.8125 -0.765625q2.109375 0 3.390625 1.1875q1.28125 1.171875 1.484375 3.265625l-1.765625 0q-0.21875 -1.578125 -0.984375 -2.28125q-0.765625 -0.71875 -2.125 -0.71875q-1.671875 0 -2.625 1.234375q-0.953125 1.234375 -0.953125 3.53125l0 1.28125q0 2.15625 0.890625 3.4375q0.90625 1.265625 2.53125 1.265625q1.453125 0 2.234375 -0.65625q0.78125 -0.65625 1.03125 -2.296875l1.765625 0zm9.70546 0.734375l-5.546875 0l-1.25 3.46875l-1.8125 0l5.0625 -13.265625l1.53125 0l5.078125 13.265625l-1.796875 0l-1.265625 -3.46875zm-5.03125 -1.4375l4.515625 0l-2.265625 -6.203125l-2.25 6.203125zm17.201538 1.4375l-5.546875 0l-1.25 3.46875l-1.8125 0l5.0625 -13.265625l1.53125 0l5.078125 13.265625l-1.796875 0l-1.265625 -3.46875zm-5.03125 -1.4375l4.515625 0l-2.265625 -6.203125l-2.25 6.203125z" fill-rule="nonzero"/><path fill="#434343" d="m209.29271 215.58974q0 -2.046875 0.546875 -3.9375q0.546875 -1.90625 1.640625 -3.453125q1.09375 -1.546875 2.265625 -2.1875l0.34375 1.109375q-1.328125 1.03125 -2.1875 3.125q-0.84375 2.09375 -0.921875 4.6875l-0.015625 0.765625q0 3.515625 1.296875 6.109375q0.765625 1.546875 1.828125 2.421875l-0.34375 1.03125q-1.203125 -0.671875 -2.3125 -2.265625q-2.140625 -3.09375 -2.140625 -7.40625zm12.251648 -7.875l1.765625 0l0 9.390625q0 1.90625 -1.15625 2.984375q-1.140625 1.078125 -3.03125 1.078125q-1.984375 0 -3.09375 -1.015625q-1.09375 -1.015625 -1.09375 -2.828125l1.75 0q0 1.140625 0.625 1.78125q0.625 0.625 1.8125 0.625q1.078125 0 1.75 -0.671875q0.671875 -0.6875 0.671875 -1.921875l0 -9.421875zm10.559357 13.265625q-0.140625 -0.296875 -0.234375 -1.03125q-1.171875 1.21875 -2.8125 1.21875q-1.453125 0 -2.390625 -0.828125q-0.921875 -0.828125 -0.921875 -2.09375q0 -1.53125 1.15625 -2.375q1.171875 -0.859375 3.296875 -0.859375l1.640625 0l0 -0.78125q0 -0.890625 -0.53125 -1.40625q-0.515625 -0.53125 -1.546875 -0.53125q-0.90625 0 -1.515625 0.46875q-0.609375 0.453125 -0.609375 1.09375l-1.703125 0q0 -0.734375 0.515625 -1.421875q0.53125 -0.6875 1.421875 -1.078125q0.90625 -0.40625 1.984375 -0.40625q1.703125 0 2.671875 0.859375q0.96875 0.84375 1.0 2.328125l0 4.53125q0 1.359375 0.34375 2.171875l0 0.140625l-1.765625 0zm-2.796875 -1.28125q0.796875 0 1.5 -0.40625q0.71875 -0.421875 1.03125 -1.078125l0 -2.015625l-1.3125 0q-3.109375 0 -3.109375 1.8125q0 0.796875 0.53125 1.25q0.53125 0.4375 1.359375 0.4375zm10.11673 -1.0l2.4375 -7.578125l1.71875 0l-3.53125 9.859375l-1.28125 0l-3.578125 -9.859375l1.71875 0l2.515625 7.578125zm11.864746 2.28125q-0.140625 -0.296875 -0.234375 -1.03125q-1.171875 1.21875 -2.8125 1.21875q-1.453125 0 -2.390625 -0.828125q-0.921875 -0.828125 -0.921875 -2.09375q0 -1.53125 1.15625 -2.375q1.171875 -0.859375 3.296875 -0.859375l1.640625 0l0 -0.78125q0 -0.890625 -0.53125 -1.40625q-0.515625 -0.53125 -1.546875 -0.53125q-0.90625 0 -1.515625 0.46875q-0.609375 0.453125 -0.609375 1.09375l-1.703125 0q0 -0.734375 0.515625 -1.421875q0.53125 -0.6875 1.421875 -1.078125q0.90625 -0.40625 1.984375 -0.40625q1.703125 0 2.671875 0.859375q0.96875 0.84375 1.0 2.328125l0 4.53125q0 1.359375 0.34375 2.171875l0 0.140625l-1.765625 0zm-2.796875 -1.28125q0.796875 0 1.5 -0.40625q0.71875 -0.421875 1.03125 -1.078125l0 -2.015625l-1.3125 0q-3.109375 0 -3.109375 1.8125q0 0.796875 0.53125 1.25q0.53125 0.4375 1.359375 0.4375zm10.75737 -4.015625q0 2.03125 -0.546875 3.90625q-0.53125 1.859375 -1.625 3.421875q-1.0937653 1.578125 -2.2968903 2.25l-0.359375 -1.03125q1.40625 -1.078125 2.2500153 -3.328125q0.859375 -2.265625 0.875 -5.03125l0 -0.296875q0 -1.90625 -0.40625 -3.546875q-0.390625 -1.65625 -1.109375 -2.953125q-0.71876526 -1.296875 -1.6093903 -2.03125l0.359375 -1.03125q1.203125 0.671875 2.2812653 2.234375q1.09375 1.546875 1.640625 3.421875q0.546875 1.875 0.546875 4.015625z" fill-rule="nonzero"/><path fill="#000000" fill-opacity="0.0" d="m293.57306 174.88933l0 0c0 -3.7323914 3.0256958 -6.758087 6.758087 -6.758087l91.74365 0c1.7923584 0 3.5112915 0.7120056 4.7786865 1.9793854c1.267395 1.267395 1.9794006 2.9863434 1.9794006 4.778702l0 56.342087c0 3.7323914 -3.0256958 6.758087 -6.758087 6.758087l-91.74365 0l0 0c-3.7323914 0 -6.758087 -3.0256958 -6.758087 -6.758087z" fill-rule="evenodd"/><path stroke="#434343" stroke-width="2.0" stroke-linejoin="round" stroke-linecap="butt" d="m293.57306 174.88933l0 0c0 -3.7323914 3.0256958 -6.758087 6.758087 -6.758087l91.74365 0c1.7923584 0 3.5112915 0.7120056 4.7786865 1.9793854c1.267395 1.267395 1.9794006 2.9863434 1.9794006 4.778702l0 56.342087c0 3.7323914 -3.0256958 6.758087 -6.758087 6.758087l-91.74365 0l0 0c-3.7323914 0 -6.758087 -3.0256958 -6.758087 -6.758087z" fill-rule="evenodd"/><path fill="#434343" d="m331.64343 196.71474l1.765625 0l0 9.390625q0 1.90625 -1.15625 2.984375q-1.140625 1.078125 -3.03125 1.078125q-1.984375 0 -3.09375 -1.015625q-1.09375 -1.015625 -1.09375 -2.828125l1.75 0q0 1.140625 0.625 1.78125q0.625 0.625 1.8125 0.625q1.078125 0 1.75 -0.671875q0.671875 -0.6875 0.671875 -1.921875l0 -9.421875zm14.074982 0l0 9.015625q0 1.875 -1.171875 3.078125q-1.171875 1.1875 -3.1875 1.328125l-0.453125 0.03125q-2.1875 0 -3.484375 -1.171875q-1.28125 -1.1875 -1.296875 -3.25l0 -9.03125l1.71875 0l0 8.984375q0 1.4375 0.796875 2.234375q0.796875 0.796875 2.265625 0.796875q1.484375 0 2.265625 -0.78125q0.796875 -0.796875 0.796875 -2.234375l0 -9.0l1.75 0zm4.097412 3.40625l0.046875 1.234375q1.125 -1.40625 2.953125 -1.40625q3.125 0 3.15625 3.515625l0 6.515625l-1.6875 0l0 -6.515625q-0.015625 -1.078125 -0.5 -1.578125q-0.46875 -0.515625 -1.484375 -0.515625q-0.8125 0 -1.4375 0.4375q-0.609375 0.4375 -0.96875 1.15625l0 7.015625l-1.671875 0l0 -9.859375l1.59375 0zm10.528107 9.859375l-1.6875 0l0 -9.859375l1.6875 0l0 9.859375zm-1.828125 -12.46875q0 -0.40625 0.25 -0.6875q0.25 -0.296875 0.734375 -0.296875q0.5 0 0.75 0.296875q0.265625 0.28125 0.265625 0.6875q0 0.40625 -0.265625 0.6875q-0.25 0.265625 -0.75 0.265625q-0.484375 0 -0.734375 -0.265625q-0.25 -0.28125 -0.25 -0.6875zm6.8086853 0.21875l0 2.390625l1.84375 0l0 1.3125l-1.84375 0l0 6.109375q0 0.59375 0.234375 0.890625q0.25 0.296875 0.84375 0.296875q0.296875 0 0.8125 -0.109375l0 1.359375q-0.671875 0.1875 -1.296875 0.1875q-1.125 0 -1.703125 -0.6875q-0.578125 -0.6875 -0.578125 -1.9375l0 -6.109375l-1.796875 0l0 -1.3125l1.796875 0l0 -2.390625l1.6875 0z" fill-rule="nonzero"/><path fill="#000000" fill-opacity="0.0" d="m405.45758 174.88933l0 0c0 -3.7323914 3.0256958 -6.758087 6.758087 -6.758087l91.74368 0c1.7923584 0 3.5112915 0.7120056 4.7786865 1.9793854c1.267395 1.267395 1.9794006 2.9863434 1.9794006 4.778702l0 56.342087c0 3.7323914 -3.0256958 6.758087 -6.758087 6.758087l-91.74368 0l0 0c-3.7323914 0 -6.758087 -3.0256958 -6.758087 -6.758087z" fill-rule="evenodd"/><path stroke="#434343" stroke-width="2.0" stroke-linejoin="round" stroke-linecap="butt" d="m405.45758 174.88933l0 0c0 -3.7323914 3.0256958 -6.758087 6.758087 -6.758087l91.74368 0c1.7923584 0 3.5112915 0.7120056 4.7786865 1.9793854c1.267395 1.267395 1.9794006 2.9863434 1.9794006 4.778702l0 56.342087c0 3.7323914 -3.0256958 6.758087 -6.758087 6.758087l-91.74368 0l0 0c-3.7323914 0 -6.758087 -3.0256958 -6.758087 -6.758087z" fill-rule="evenodd"/><path fill="#434343" d="m445.09918 204.79286l0 5.1875l-1.734375 0l0 -13.265625l4.890625 0q2.171875 0 3.40625 1.109375q1.234375 1.109375 1.234375 2.953125q0 1.921875 -1.21875 2.96875q-1.203125 1.046875 -3.453125 1.046875l-3.125 0zm0 -1.4375l3.15625 0q1.390625 0 2.140625 -0.65625q0.75 -0.65625 0.75 -1.90625q0 -1.1875 -0.75 -1.890625q-0.75 -0.71875 -2.046875 -0.75l-3.25 0l0 5.203125zm15.58197 -6.640625l1.765625 0l0 9.390625q0 1.90625 -1.15625 2.984375q-1.140625 1.078125 -3.03125 1.078125q-1.984375 0 -3.09375 -1.015625q-1.09375 -1.015625 -1.09375 -2.828125l1.75 0q0 1.140625 0.625 1.78125q0.625 0.625 1.8125 0.625q1.078125 0 1.75 -0.671875q0.671875 -0.6875 0.671875 -1.921875l0 -9.421875zm12.996857 13.265625l-8.6875 0l0 -1.21875l4.578125 -5.09375q1.03125 -1.15625 1.40625 -1.875q0.390625 -0.734375 0.390625 -1.5q0 -1.046875 -0.625 -1.703125q-0.625 -0.671875 -1.671875 -0.671875q-1.265625 0 -1.96875 0.71875q-0.6875 0.71875 -0.6875 1.984375l-1.6875 0q0 -1.828125 1.171875 -2.953125q1.1875 -1.140625 3.171875 -1.140625q1.84375 0 2.921875 0.984375q1.078125 0.96875 1.078125 2.578125q0 1.953125 -2.5 4.65625l-3.546875 3.859375l6.65625 0l0 1.375z" fill-rule="nonzero"/><path fill="#000000" fill-opacity="0.0" d="m181.68996 246.74002l0 0c0 -1.8089905 1.4664612 -3.2754517 3.2754364 -3.2754517l322.45697 0c0.8687134 0 1.7018433 0.34509277 2.316101 0.9593506c0.6142578 0.6142731 0.9593506 1.4473877 0.9593506 2.316101l0 27.307373c0 1.80896 -1.4664612 3.2754517 -3.2754517 3.2754517l-322.45697 0c-1.8089752 0 -3.2754364 -1.4664917 -3.2754364 -3.2754517z" fill-rule="evenodd"/><path stroke="#434343" stroke-width="2.0" stroke-linejoin="round" stroke-linecap="butt" d="m181.68996 246.74002l0 0c0 -1.8089905 1.4664612 -3.2754517 3.2754364 -3.2754517l322.45697 0c0.8687134 0 1.7018433 0.34509277 2.316101 0.9593506c0.6142578 0.6142731 0.9593506 1.4473877 0.9593506 2.316101l0 27.307373c0 1.80896 -1.4664612 3.2754517 -3.2754517 3.2754517l-322.45697 0c-1.8089752 0 -3.2754364 -1.4664917 -3.2754364 -3.2754517z" fill-rule="evenodd"/><path fill="#434343" d="m338.95383 254.04808l1.765625 0l0 9.39061q0 1.90625 -1.15625 2.984375q-1.140625 1.078125 -3.03125 1.078125q-1.984375 0 -3.09375 -1.015625q-1.09375 -1.015625 -1.09375 -2.828125l1.75 0q0 1.140625 0.625 1.78125q0.625 0.625 1.8125 0.625q1.078125 0 1.75 -0.671875q0.671875 -0.6875 0.671875 -1.921875l0 -9.42186zm14.934357 13.26561l-1.765625 0l-6.671875 -10.21875l0 10.21875l-1.75 0l0 -13.26561l1.75 0l6.703125 10.26561l0 -10.26561l1.734375 0l0 13.26561zm4.9873657 0l-1.75 0l0 -13.26561l1.75 0l0 13.26561z" fill-rule="nonzero"/><path fill="#000000" fill-opacity="0.0" d="m181.68996 287.93503l0 0c0 -2.8371582 2.2999573 -5.1371155 5.1371155 -5.1371155l94.98561 0c1.3624268 0 2.669098 0.54122925 3.6324768 1.5046082c0.9634094 0.9634094 1.5046387 2.27005 1.5046387 3.6325073l0 42.828125c0 2.8371277 -2.2999878 5.1371155 -5.1371155 5.1371155l-94.98561 0c-2.8371582 0 -5.1371155 -2.2999878 -5.1371155 -5.1371155z" fill-rule="evenodd"/><path stroke="#434343" stroke-width="2.0" stroke-linejoin="round" stroke-linecap="butt" d="m181.68996 287.93503l0 0c0 -2.8371582 2.2999573 -5.1371155 5.1371155 -5.1371155l94.98561 0c1.3624268 0 2.669098 0.54122925 3.6324768 1.5046082c0.9634094 0.9634094 1.5046387 2.27005 1.5046387 3.6325073l0 42.828125c0 2.8371277 -2.2999878 5.1371155 -5.1371155 5.1371155l-94.98561 0c-2.8371582 0 -5.1371155 -2.2999878 -5.1371155 -5.1371155z" fill-rule="evenodd"/><path fill="#434343" d="m227.37498 301.06595q-0.25 2.09375 -1.5625 3.25q-1.296875 1.140625 -3.46875 1.140625q-2.34375 0 -3.765625 -1.6875q-1.421875 -1.6875 -1.421875 -4.515625l0 -1.265625q0 -1.859375 0.65625 -3.25q0.671875 -1.40625 1.875 -2.15625q1.21875 -0.765625 2.8125 -0.765625q2.109375 0 3.390625 1.1875q1.28125 1.171875 1.484375 3.265625l-1.765625 0q-0.21875 -1.578125 -0.984375 -2.28125q-0.765625 -0.71875 -2.125 -0.71875q-1.671875 0 -2.625 1.234375q-0.953125 1.234375 -0.953125 3.53125l0 1.28125q0 2.15625 0.890625 3.4375q0.90625 1.265625 2.53125 1.265625q1.453125 0 2.234375 -0.65625q0.78125 -0.65625 1.03125 -2.296875l1.765625 0zm9.70546 0.734375l-5.546875 0l-1.25 3.46875l-1.8125 0l5.0625 -13.265625l1.53125 0l5.078125 13.265625l-1.796875 0l-1.265625 -3.46875zm-5.03125 -1.4375l4.515625 0l-2.265625 -6.203125l-2.25 6.203125zm17.201538 1.4375l-5.546875 0l-1.25 3.46875l-1.8125 0l5.0625 -13.265625l1.53125 0l5.078125 13.265625l-1.796875 0l-1.265625 -3.46875zm-5.03125 -1.4375l4.515625 0l-2.265625 -6.203125l-2.25 6.203125z" fill-rule="nonzero"/><path fill="#434343" d="m212.45972 321.87845q0 -2.046875 0.546875 -3.9375q0.546875 -1.90625 1.640625 -3.453125q1.09375 -1.546875 2.265625 -2.1875l0.34375 1.109375q-1.328125 1.03125 -2.1875 3.125q-0.84375 2.09375 -0.921875 4.6875l-0.015625 0.765625q0 3.515625 1.296875 6.109375q0.765625 1.546875 1.828125 2.421875l-0.34375 1.03125q-1.203125 -0.671875 -2.3125 -2.265625q-2.140625 -3.09375 -2.140625 -7.40625zm16.454773 1.1875q-0.25 2.09375 -1.5625 3.25q-1.296875 1.140625 -3.46875 1.140625q-2.34375 0 -3.765625 -1.6875q-1.421875 -1.6875 -1.421875 -4.515625l0 -1.265625q0 -1.859375 0.65625 -3.25q0.671875 -1.40625 1.875 -2.15625q1.21875 -0.765625 2.8125 -0.765625q2.109375 0 3.390625 1.1875q1.28125 1.171875 1.484375 3.265625l-1.765625 0q-0.21875 -1.578125 -0.984375 -2.28125q-0.765625 -0.71875 -2.125 -0.71875q-1.671875 0 -2.625 1.234375q-0.953125 1.234375 -0.953125 3.53125l0 1.28125q0 2.15625 0.890625 3.4375q0.90625 1.265625 2.53125 1.265625q1.453125 0 2.234375 -0.65625q0.78125 -0.65625 1.03125 -2.296875l1.765625 0zm6.9554596 -2.90625l3.6875 0l0 1.59375l-3.6875 0l0 4.1875l-1.703125 0l0 -4.1875l-3.703125 0l0 -1.59375l3.703125 0l0 -3.875l1.703125 0l0 3.875zm10.576126 0l3.6875 0l0 1.59375l-3.6875 0l0 4.1875l-1.703125 0l0 -4.1875l-3.703125 0l0 -1.59375l3.703125 0l0 -3.875l1.703125 0l0 3.875zm9.638611 1.8125q0 2.03125 -0.54685974 3.90625q-0.53125 1.859375 -1.625 3.421875q-1.09375 1.578125 -2.296875 2.25l-0.359375 -1.03125q1.40625 -1.078125 2.25 -3.328125q0.859375 -2.265625 0.875 -5.03125l0 -0.296875q0 -1.90625 -0.40625 -3.546875q-0.390625 -1.65625 -1.109375 -2.953125q-0.71875 -1.296875 -1.609375 -2.03125l0.359375 -1.03125q1.203125 0.671875 2.28125 2.234375q1.09375 1.546875 1.640625 3.421875q0.54685974 1.875 0.54685974 4.015625z" fill-rule="nonzero"/><path fill="#000000" fill-opacity="0.0" d="m181.68996 346.51245l0 0c0 -2.8371582 2.2999573 -5.1371155 5.1371155 -5.1371155l94.98561 0c1.3624268 0 2.669098 0.54122925 3.6324768 1.5046082c0.9634094 0.9634094 1.5046387 2.27005 1.5046387 3.6325073l0 42.828125c0 2.8371582 -2.2999878 5.1371155 -5.1371155 5.1371155l-94.98561 0c-2.8371582 0 -5.1371155 -2.2999573 -5.1371155 -5.1371155z" fill-rule="evenodd"/><path stroke="#434343" stroke-width="2.0" stroke-linejoin="round" stroke-linecap="butt" d="m181.68996 346.51245l0 0c0 -2.8371582 2.2999573 -5.1371155 5.1371155 -5.1371155l94.98561 0c1.3624268 0 2.669098 0.54122925 3.6324768 1.5046082c0.9634094 0.9634094 1.5046387 2.27005 1.5046387 3.6325073l0 42.828125c0 2.8371582 -2.2999878 5.1371155 -5.1371155 5.1371155l-94.98561 0c-2.8371582 0 -5.1371155 -2.2999573 -5.1371155 -5.1371155z" fill-rule="evenodd"/><path fill="#434343" d="m225.7209 371.37775l-5.546875 0l-1.25 3.46875l-1.8125 0l5.0625 -13.265625l1.53125 0l5.078125 13.265625l-1.796875 0l-1.265625 -3.46875zm-5.03125 -1.4375l4.515625 0l-2.265625 -6.203125l-2.25 6.203125zm17.201538 1.4375l-5.546875 0l-1.25 3.46875l-1.8125 0l5.0625 -13.265625l1.53125 0l5.078125 13.265625l-1.796875 0l-1.265625 -3.46875zm-5.03125 -1.4375l4.515625 0l-2.265625 -6.203125l-2.25 6.203125zm14.451538 -2.203125l3.6875 0l0 1.59375l-3.6875 0l0 4.1875l-1.703125 0l0 -4.1875l-3.703125 0l0 -1.59375l3.703125 0l0 -3.875l1.703125 0l0 3.875z" fill-rule="nonzero"/><path fill="#000000" fill-opacity="0.0" d="m293.5745 293.60233l0 0c0 -5.9671326 4.837311 -10.804413 10.804413 -10.804413l195.55652 0c2.865509 0 5.613678 1.1383057 7.6398926 3.1645203c2.0262146 2.0262146 3.1645203 4.7743835 3.1645203 7.6398926l0 90.0762c0 5.967102 -4.8372803 10.804413 -10.804413 10.804413l-195.55652 0c-5.967102 0 -10.804413 -4.837311 -10.804413 -10.804413z" fill-rule="evenodd"/><path stroke="#434343" stroke-width="2.0" stroke-linejoin="round" stroke-linecap="butt" d="m293.5745 293.60233l0 0c0 -5.9671326 4.837311 -10.804413 10.804413 -10.804413l195.55652 0c2.865509 0 5.613678 1.1383057 7.6398926 3.1645203c2.0262146 2.0262146 3.1645203 4.7743835 3.1645203 7.6398926l0 90.0762c0 5.967102 -4.8372803 10.804413 -10.804413 10.804413l-195.55652 0c-5.967102 0 -10.804413 -4.837311 -10.804413 -10.804413z" fill-rule="evenodd"/><path fill="#434343" d="m359.89413 336.82605q-0.671875 0.953125 -1.875 1.4375q-1.203125 0.484375 -2.8125 0.484375q-1.625 0 -2.890625 -0.765625q-1.25 -0.765625 -1.9375 -2.15625q-0.6875 -1.40625 -0.703125 -3.265625l0 -1.15625q0 -2.984375 1.390625 -4.640625q1.40625 -1.65625 3.9375 -1.65625q2.078125 0 3.34375 1.0625q1.265625 1.0625 1.546875 3.015625l-1.75 0q-0.484375 -2.625 -3.125 -2.625q-1.765625 0 -2.671875 1.234375q-0.90625 1.234375 -0.90625 3.5625l0 1.09375q0 2.234375 1.015625 3.546875q1.015625 1.3125 2.765625 1.3125q0.984375 0 1.71875 -0.21875q0.734375 -0.21875 1.21875 -0.734375l0 -2.984375l-3.078125 0l0 -1.421875l4.8125 0l0 4.875zm4.660858 -3.453125l0 5.1875l-1.734375 0l0 -13.265625l4.890625 0q2.171875 0 3.40625 1.109375q1.234375 1.109375 1.234375 2.953125q0 1.921875 -1.21875 2.96875q-1.203125 1.046875 -3.453125 1.046875l-3.125 0zm0 -1.4375l3.15625 0q1.390625 0 2.140625 -0.65625q0.75 -0.65625 0.75 -1.90625q0 -1.1875 -0.75 -1.890625q-0.75 -0.71875 -2.046875 -0.75l-3.25 0l0 5.203125zm19.36322 -6.640625l0 9.015625q0 1.875 -1.171875 3.078125q-1.171875 1.1875 -3.1875 1.328125l-0.453125 0.03125q-2.1875 0 -3.484375 -1.171875q-1.28125 -1.1875 -1.296875 -3.25l0 -9.03125l1.71875 0l0 8.984375q0 1.4375 0.796875 2.234375q0.796875 0.796875 2.265625 0.796875q1.484375 0 2.265625 -0.78125q0.796875 -0.796875 0.796875 -2.234375l0 -9.0l1.75 0zm7.0596924 7.875q0 -2.046875 0.546875 -3.9375q0.546875 -1.90625 1.640625 -3.453125q1.09375 -1.546875 2.265625 -2.1875l0.34375 1.109375q-1.328125 1.03125 -2.1875 3.125q-0.84375 2.09375 -0.921875 4.6875l-0.015625 0.765625q0 3.515625 1.296875 6.109375q0.765625 1.546875 1.828125 2.421875l-0.34375 1.03125q-1.203125 -0.671875 -2.3125 -2.265625q-2.140625 -3.09375 -2.140625 -7.40625zm16.454773 1.1875q-0.25 2.09375 -1.5625 3.25q-1.296875 1.140625 -3.46875 1.140625q-2.34375 0 -3.765625 -1.6875q-1.421875 -1.6875 -1.421875 -4.515625l0 -1.265625q0 -1.859375 0.65625 -3.25q0.671875 -1.40625 1.875 -2.15625q1.21875 -0.765625 2.8125 -0.765625q2.109375 0 3.390625 1.1875q1.28125 1.171875 1.484375 3.265625l-1.765625 0q-0.21875 -1.578125 -0.984375 -2.28125q-0.765625 -0.71875 -2.125 -0.71875q-1.671875 0 -2.625 1.234375q-0.953125 1.234375 -0.953125 3.53125l0 1.28125q0 2.15625 0.890625 3.4375q0.90625 1.265625 2.53125 1.265625q1.453125 0 2.234375 -0.65625q0.78125 -0.65625 1.03125 -2.296875l1.765625 0zm2.4554443 5.34375l-1.453125 0l5.546875 -14.40625l1.4375 0l-5.53125 14.40625zm17.375916 -5.34375q-0.25 2.09375 -1.5625 3.25q-1.296875 1.140625 -3.46875 1.140625q-2.34375 0 -3.765625 -1.6875q-1.421875 -1.6875 -1.421875 -4.515625l0 -1.265625q0 -1.859375 0.65625 -3.25q0.671875 -1.40625 1.875 -2.15625q1.21875 -0.765625 2.8125 -0.765625q2.109375 0 3.390625 1.1875q1.28125 1.171875 1.484375 3.265625l-1.765625 0q-0.21875 -1.578125 -0.984375 -2.28125q-0.765625 -0.71875 -2.125 -0.71875q-1.671875 0 -2.625 1.234375q-0.953125 1.234375 -0.953125 3.53125l0 1.28125q0 2.15625 0.890625 3.4375q0.90625 1.265625 2.53125 1.265625q1.453125 0 2.234375 -0.65625q0.78125 -0.65625 1.03125 -2.296875l1.765625 0zm6.9554443 -2.90625l3.6875 0l0 1.59375l-3.6875 0l0 4.1875l-1.703125 0l0 -4.1875l-3.703125 0l0 -1.59375l3.703125 0l0 -3.875l1.703125 0l0 3.875zm10.576141 0l3.6875 0l0 1.59375l-3.6875 0l0 4.1875l-1.703125 0l0 -4.1875l-3.703125 0l0 -1.59375l3.703125 0l0 -3.875l1.703125 0l0 3.875zm9.638611 1.8125q0 2.03125 -0.546875 3.90625q-0.53125 1.859375 -1.625 3.421875q-1.09375 1.578125 -2.296875 2.25l-0.359375 -1.03125q1.40625 -1.078125 2.25 -3.328125q0.859375 -2.265625 0.875 -5.03125l0 -0.296875q0 -1.90625 -0.40625 -3.546875q-0.390625 -1.65625 -1.109375 -2.953125q-0.71875 -1.296875 -1.609375 -2.03125l0.359375 -1.03125q1.203125 0.671875 2.28125 2.234375q1.09375 1.546875 1.640625 3.421875q0.546875 1.875 0.546875 4.015625z" fill-rule="nonzero"/><path fill="#434343" d="m369.997 350.69168q0 -1.3125 0.34375 -2.53125q0.359375 -1.21875 1.0625 -2.21875q0.703125 -1.0 1.46875 -1.40625l0.21875 0.71875q-0.859375 0.65625 -1.40625 2.0q-0.546875 1.34375 -0.59375 3.015625l-0.015625 0.5q0 2.265625 0.828125 3.921875q0.5 1.0 1.1875 1.5625l-0.21875 0.65625q-0.78125 -0.421875 -1.5 -1.453125q-1.375 -1.984375 -1.375 -4.765625z" fill-rule="nonzero"/><path fill="#434343" d="m380.19232 357.44168l-6.546875 0q-0.171875 0 -0.25 -0.0625q-0.078125 -0.0625 -0.078125 -0.171875q0 -0.109375 0.078125 -0.1875q0.078125 -0.0625 0.25 -0.0625l6.546875 0q0.1875 0 0.25 0.0625q0.078125 0.078125 0.078125 0.1875q0 0.109375 -0.078125 0.171875q-0.0625 0.0625 -0.25 0.0625zm7.201172 0l-6.546875 0q-0.171875 0 -0.25 -0.0625q-0.078125 -0.0625 -0.078125 -0.171875q0 -0.109375 0.078125 -0.1875q0.078125 -0.0625 0.25 -0.0625l6.546875 0q0.1875 0 0.25 0.0625q0.078125 0.078125 0.078125 0.1875q0 0.109375 -0.078125 0.171875q-0.0625 0.0625 -0.25 0.0625zm2.3105469 -10.640625l0 3.03125q0.46875 -0.5 0.890625 -0.703125q0.4375 -0.21875 0.96875 -0.21875q0.578125 0 0.96875 0.203125q0.40625 0.203125 0.671875 0.625q0.28125 0.40625 0.28125 0.875l0 3.046875l0.546875 0q0.1875 0 0.25 0.078125q0.078125 0.0625 0.078125 0.171875q0 0.109375 -0.078125 0.1875q-0.0625 0.0625 -0.25 0.0625l-1.59375 0q-0.1875 0 -0.265625 -0.0625q-0.078125 -0.078125 -0.078125 -0.1875q0 -0.109375 0.078125 -0.171875q0.078125 -0.078125 0.265625 -0.078125l0.546875 0l0 -3.015625q0 -0.53125 -0.390625 -0.890625q-0.375 -0.359375 -1.0625 -0.359375q-0.546875 0 -0.921875 0.265625q-0.28125 0.1875 -0.90625 0.890625l0 3.109375l0.546875 0q0.1875 0 0.25 0.078125q0.078125 0.0625 0.078125 0.171875q0 0.109375 -0.078125 0.1875q-0.0625 0.0625 -0.25 0.0625l-1.59375 0q-0.1875 0 -0.265625 -0.0625q-0.0625 -0.078125 -0.0625 -0.1875q0 -0.109375 0.0625 -0.171875q0.078125 -0.078125 0.265625 -0.078125l0.546875 0l0 -6.359375l-0.65625 0q-0.171875 0 -0.25 -0.0625q-0.078125 -0.078125 -0.078125 -0.1875q0 -0.109375 0.078125 -0.171875q0.078125 -0.078125 0.25 -0.078125l1.15625 0zm11.576172 4.828125q0 1.125 -0.8125 1.921875q-0.8125 0.796875 -1.9375 0.796875q-1.15625 0 -1.96875 -0.796875q-0.796875 -0.796875 -0.796875 -1.921875q0 -1.125 0.796875 -1.921875q0.8125 -0.796875 1.96875 -0.796875q1.125 0 1.9375 0.796875q0.8125 0.796875 0.8125 1.921875zm-0.5 0q0 -0.921875 -0.671875 -1.5625q-0.65625 -0.65625 -1.59375 -0.65625q-0.9375 0 -1.59375 0.65625q-0.65625 0.640625 -0.65625 1.5625q0 0.921875 0.65625 1.578125q0.65625 0.65625 1.59375 0.65625q0.9375 0 1.59375 -0.65625q0.671875 -0.65625 0.671875 -1.578125zm6.576172 -2.21875q0 -0.171875 0.0625 -0.25q0.078125 -0.078125 0.171875 -0.078125q0.109375 0 0.171875 0.078125q0.078125 0.078125 0.078125 0.265625l0 0.84375q0 0.171875 -0.078125 0.25q-0.0625 0.078125 -0.171875 0.078125q-0.09375 0 -0.171875 -0.0625q-0.0625 -0.078125 -0.0625 -0.21875q-0.046875 -0.359375 -0.375 -0.578125q-0.46875 -0.328125 -1.265625 -0.328125q-0.828125 0 -1.28125 0.328125q-0.34375 0.25 -0.34375 0.5625q0 0.359375 0.40625 0.59375q0.28125 0.15625 1.0625 0.25q1.03125 0.109375 1.421875 0.25q0.578125 0.203125 0.84375 0.578125q0.28125 0.359375 0.28125 0.78125q0 0.625 -0.609375 1.109375q-0.59375 0.484375 -1.765625 0.484375q-1.15625 0 -1.90625 -0.59375q0 0.203125 -0.03125 0.265625q-0.015625 0.0625 -0.078125 0.109375q-0.0625 0.03125 -0.140625 0.03125q-0.09375 0 -0.171875 -0.078125q-0.0625 -0.078125 -0.0625 -0.25l0 -1.015625q0 -0.171875 0.0625 -0.25q0.0625 -0.078125 0.171875 -0.078125q0.109375 0 0.1875 0.078125q0.078125 0.0625 0.078125 0.1875q0 0.28125 0.125 0.453125q0.203125 0.28125 0.65625 0.46875q0.453125 0.1875 1.09375 0.1875q0.96875 0 1.4375 -0.359375q0.46875 -0.359375 0.46875 -0.75q0 -0.46875 -0.484375 -0.734375q-0.46875 -0.28125 -1.390625 -0.375q-0.921875 -0.09375 -1.328125 -0.234375q-0.390625 -0.15625 -0.609375 -0.453125q-0.21875 -0.3125 -0.21875 -0.671875q0 -0.625 0.609375 -1.0q0.625 -0.375 1.484375 -0.375q1.03125 0 1.671875 0.5zm4.560547 -0.328125l2.671875 0q0.171875 0 0.25 0.078125q0.078125 0.0625 0.078125 0.171875q0 0.109375 -0.078125 0.1875q-0.078125 0.0625 -0.25 0.0625l-2.671875 0l0 3.28125q0 0.421875 0.34375 0.71875q0.34375 0.28125 1.0 0.28125q0.5 0 1.078125 -0.140625q0.578125 -0.15625 0.90625 -0.34375q0.109375 -0.078125 0.1875 -0.078125q0.09375 0 0.15625 0.078125q0.078125 0.0625 0.078125 0.171875q0 0.078125 -0.078125 0.15625q-0.1875 0.1875 -0.90625 0.421875q-0.71875 0.21875 -1.390625 0.21875q-0.859375 0 -1.375 -0.390625q-0.5 -0.40625 -0.5 -1.09375l0 -3.28125l-0.90625 0q-0.171875 0 -0.25 -0.0625q-0.078125 -0.078125 -0.078125 -0.1875q0 -0.109375 0.078125 -0.171875q0.078125 -0.078125 0.25 -0.078125l0.90625 0l0 -1.453125q0 -0.171875 0.0625 -0.25q0.078125 -0.078125 0.1875 -0.078125q0.109375 0 0.171875 0.078125q0.078125 0.078125 0.078125 0.25l0 1.453125zm11.482422 8.359375l-6.546875 0q-0.171875 0 -0.25 -0.0625q-0.078125 -0.0625 -0.078125 -0.171875q0 -0.109375 0.078125 -0.1875q0.078125 -0.0625 0.25 -0.0625l6.546875 0q0.1875 0 0.25 0.0625q0.078125 0.078125 0.078125 0.1875q0 0.109375 -0.078125 0.171875q-0.0625 0.0625 -0.25 0.0625zm7.201172 0l-6.546875 0q-0.171875 0 -0.25 -0.0625q-0.078125 -0.0625 -0.078125 -0.171875q0 -0.109375 0.078125 -0.1875q0.078125 -0.0625 0.25 -0.0625l6.546875 0q0.1875 0 0.25 0.0625q0.078125 0.078125 0.078125 0.1875q0 0.109375 -0.078125 0.171875q-0.0625 0.0625 -0.25 0.0625z" fill-rule="nonzero"/><path fill="#434343" d="m434.25482 350.75418q0 1.3125 -0.34375 2.515625q-0.34375 1.1875 -1.0625 2.203125q-0.703125 1.015625 -1.46875 1.4375l-0.234375 -0.65625q0.90625 -0.6875 1.453125 -2.140625q0.546875 -1.46875 0.5625 -3.234375l0 -0.1875q0 -1.234375 -0.265625 -2.296875q-0.25 -1.0625 -0.71875 -1.890625q-0.453125 -0.84375 -1.03125 -1.3125l0.234375 -0.65625q0.765625 0.421875 1.46875 1.421875q0.703125 1.0 1.046875 2.21875q0.359375 1.203125 0.359375 2.578125z" fill-rule="nonzero"/><path fill="#000000" fill-opacity="0.0" d="m18.395002 407.4793l0 0c0 -4.148102 3.362709 -7.510803 7.5108185 -7.510803l365.4193 0c1.9919739 0 3.9024048 0.7913208 5.3109436 2.1998596c1.4085388 1.4085693 2.1998596 3.3189697 2.1998596 5.3109436l0 96.66342c0 4.148102 -3.3627014 7.510803 -7.510803 7.510803l-365.4193 0c-4.1481094 0 -7.5108185 -3.3627014 -7.5108185 -7.510803z" fill-rule="evenodd"/><path stroke="#434343" stroke-width="2.0" stroke-linejoin="round" stroke-linecap="butt" d="m18.395002 407.4793l0 0c0 -4.148102 3.362709 -7.510803 7.5108185 -7.510803l365.4193 0c1.9919739 0 3.9024048 0.7913208 5.3109436 2.1998596c1.4085388 1.4085693 2.1998596 3.3189697 2.1998596 5.3109436l0 96.66342c0 4.148102 -3.3627014 7.510803 -7.510803 7.510803l-365.4193 0c-4.1481094 0 -7.5108185 -3.3627014 -7.5108185 -7.510803z" fill-rule="evenodd"/><path fill="#434343" d="m201.90744 458.5279q-0.25 2.09375 -1.5625 3.25q-1.296875 1.140625 -3.46875 1.140625q-2.34375 0 -3.765625 -1.6875q-1.421875 -1.6875 -1.421875 -4.515625l0 -1.265625q0 -1.859375 0.65625 -3.25q0.671875 -1.40625 1.875 -2.15625q1.21875 -0.765625 2.8125 -0.765625q2.109375 0 3.390625 1.1875q1.28125 1.171875 1.484375 3.265625l-1.765625 0q-0.21875 -1.578125 -0.984375 -2.28125q-0.765625 -0.71875 -2.125 -0.71875q-1.671875 0 -2.625 1.234375q-0.953125 1.234375 -0.953125 3.53125l0 1.28125q0 2.15625 0.890625 3.4375q0.90625 1.265625 2.53125 1.265625q1.453125 0 2.234375 -0.65625q0.78125 -0.65625 1.03125 -2.296875l1.765625 0zm4.1273346 -0.984375l0 5.1875l-1.734375 0l0 -13.265625l4.890625 0q2.171875 0 3.40625 1.109375q1.234375 1.109375 1.234375 2.953125q0 1.921875 -1.21875 2.96875q-1.203125 1.046875 -3.453125 1.046875l-3.125 0zm0 -1.4375l3.15625 0q1.390625 0 2.140625 -0.65625q0.75 -0.65625 0.75 -1.90625q0 -1.1875 -0.75 -1.890625q-0.75 -0.71875 -2.046875 -0.75l-3.25 0l0 5.203125zm19.36322 -6.640625l0 9.015625q0 1.875 -1.171875 3.078125q-1.171875 1.1875 -3.1875 1.328125l-0.453125 0.03125q-2.1875 0 -3.484375 -1.171875q-1.28125 -1.1875 -1.296875 -3.25l0 -9.03125l1.71875 0l0 8.984375q0 1.4375 0.796875 2.234375q0.796875 0.796875 2.265625 0.796875q1.484375 0 2.265625 -0.78125q0.796875 -0.796875 0.796875 -2.234375l0 -9.0l1.75 0z" fill-rule="nonzero"/><path fill="#000000" fill-opacity="0.0" d="m405.45905 405.88455l0 0c0 -3.2731323 2.6534119 -5.926544 5.926544 -5.926544l93.40674 0c1.5718079 0 3.0792542 0.62438965 4.1907043 1.7358398c1.1114502 1.1114502 1.7358398 2.6188965 1.7358398 4.1907043l0 22.005157c0 3.2731628 -2.6534119 5.9265747 -5.926544 5.9265747l-93.40674 0c-3.2731323 0 -5.926544 -2.6534119 -5.926544 -5.9265747z" fill-rule="evenodd"/><path stroke="#434343" stroke-width="2.0" stroke-linejoin="round" stroke-linecap="butt" d="m405.45905 405.88455l0 0c0 -3.2731323 2.6534119 -5.926544 5.926544 -5.926544l93.40674 0c1.5718079 0 3.0792542 0.62438965 4.1907043 1.7358398c1.1114502 1.1114502 1.7358398 2.6188965 1.7358398 4.1907043l0 22.005157c0 3.2731628 -2.6534119 5.9265747 -5.926544 5.9265747l-93.40674 0c-3.2731323 0 -5.926544 -2.6534119 -5.926544 -5.9265747z" fill-rule="evenodd"/><path fill="#434343" d="m445.06348 419.604q-0.25 2.09375 -1.5625 3.25q-1.296875 1.140625 -3.46875 1.140625q-2.34375 0 -3.765625 -1.6875q-1.421875 -1.6875 -1.421875 -4.515625l0 -1.265625q0 -1.859375 0.65625 -3.25q0.671875 -1.40625 1.875 -2.15625q1.21875 -0.765625 2.8125 -0.765625q2.109375 0 3.390625 1.1875q1.28125 1.171875 1.484375 3.265625l-1.765625 0q-0.21875 -1.578125 -0.984375 -2.28125q-0.765625 -0.71875 -2.125 -0.71875q-1.671875 0 -2.625 1.234375q-0.953125 1.234375 -0.953125 3.53125l0 1.28125q0 2.15625 0.890625 3.4375q0.90625 1.265625 2.53125 1.265625q1.453125 0 2.234375 -0.65625q0.78125 -0.65625 1.03125 -2.296875l1.765625 0zm11.721069 -9.0625l0 9.015625q0 1.875 -1.171875 3.078125q-1.171875 1.1875 -3.1875 1.328125l-0.453125 0.03125q-2.1875 0 -3.484375 -1.171875q-1.28125 -1.1875 -1.296875 -3.25l0 -9.03125l1.71875 0l0 8.984375q0 1.4375 0.796875 2.234375q0.796875 0.796875 2.265625 0.796875q1.484375 0 2.265625 -0.78125q0.796875 -0.796875 0.796875 -2.234375l0 -9.0l1.75 0zm2.769287 13.265625l0 -13.265625l3.734375 0q1.734375 0 3.0625 0.765625q1.328125 0.765625 2.046875 2.1875q0.734375 1.40625 0.734375 3.234375l0 0.84375q0 1.875 -0.71875 3.296875q-0.71875 1.40625 -2.0625 2.171875q-1.34375 0.75 -3.140625 0.765625l-3.65625 0zm1.734375 -11.828125l0 10.390625l1.84375 0q2.03125 0 3.15625 -1.25q1.125 -1.25 1.125 -3.578125l0 -0.78125q0 -2.25 -1.0625 -3.5q-1.0625 -1.265625 -3.015625 -1.28125l-2.046875 0zm17.812195 8.359375l-5.546875 0l-1.25 3.46875l-1.8125 0l5.0625 -13.265625l1.53125 0l5.078125 13.265625l-1.796875 0l-1.265625 -3.46875zm-5.03125 -1.4375l4.515625 0l-2.265625 -6.203125l-2.25 6.203125z" fill-rule="nonzero"/><path fill="#000000" fill-opacity="0.0" d="m405.45905 446.29318l0 0c0 -3.8670044 3.1348267 -7.001831 7.001831 -7.001831l91.256165 0c1.8569946 0 3.6379395 0.7376709 4.95105 2.0507812c1.3131104 1.3131104 2.0507812 3.0940552 2.0507812 4.95105l0 58.374268c0 3.8670044 -3.1348267 7.001831 -7.001831 7.001831l-91.256165 0l0 0c-3.8670044 0 -7.001831 -3.1348267 -7.001831 -7.001831z" fill-rule="evenodd"/><path stroke="#434343" stroke-width="2.0" stroke-linejoin="round" stroke-linecap="butt" d="m405.45905 446.29318l0 0c0 -3.8670044 3.1348267 -7.001831 7.001831 -7.001831l91.256165 0c1.8569946 0 3.6379395 0.7376709 4.95105 2.0507812c1.3131104 1.3131104 2.0507812 3.0940552 2.0507812 4.95105l0 58.374268c0 3.8670044 -3.1348267 7.001831 -7.001831 7.001831l-91.256165 0l0 0c-3.8670044 0 -7.001831 -3.1348267 -7.001831 -7.001831z" fill-rule="evenodd"/><path fill="#434343" d="m436.31772 473.66592q-0.671875 0.953125 -1.875 1.4375q-1.203125 0.484375 -2.8125 0.484375q-1.625 0 -2.890625 -0.765625q-1.25 -0.765625 -1.9375 -2.15625q-0.6875 -1.40625 -0.703125 -3.265625l0 -1.15625q0 -2.984375 1.390625 -4.640625q1.40625 -1.65625 3.9375 -1.65625q2.078125 0 3.34375 1.0625q1.265625 1.0625 1.546875 3.015625l-1.75 0q-0.484375 -2.625 -3.125 -2.625q-1.765625 0 -2.671875 1.234375q-0.90625 1.234375 -0.90625 3.5625l0 1.09375q0 2.234375 1.015625 3.546875q1.015625 1.3125 2.765625 1.3125q0.984375 0 1.71875 -0.21875q0.734375 -0.21875 1.21875 -0.734375l0 -2.984375l-3.078125 0l0 -1.421875l4.8125 0l0 4.875zm4.6608887 -3.453125l0 5.1875l-1.734375 0l0 -13.265625l4.890625 0q2.171875 0 3.40625 1.109375q1.234375 1.109375 1.234375 2.953125q0 1.921875 -1.21875 2.96875q-1.203125 1.046875 -3.453125 1.046875l-3.125 0zm0 -1.4375l3.15625 0q1.390625 0 2.140625 -0.65625q0.75 -0.65625 0.75 -1.90625q0 -1.1875 -0.75 -1.890625q-0.75 -0.71875 -2.046875 -0.75l-3.25 0l0 5.203125zm19.36322 -6.640625l0 9.015625q0 1.875 -1.171875 3.078125q-1.171875 1.1875 -3.1875 1.328125l-0.453125 0.03125q-2.1875 0 -3.484375 -1.171875q-1.28125 -1.1875 -1.296875 -3.25l0 -9.03125l1.71875 0l0 8.984375q0 1.4375 0.796875 2.234375q0.796875 0.796875 2.265625 0.796875q1.484375 0 2.265625 -0.78125q0.796875 -0.796875 0.796875 -2.234375l0 -9.0l1.75 0zm7.059662 7.875q0 -2.046875 0.546875 -3.9375q0.546875 -1.90625 1.640625 -3.453125q1.09375 -1.546875 2.265625 -2.1875l0.34375 1.109375q-1.328125 1.03125 -2.1875 3.125q-0.84375 2.09375 -0.921875 4.6875l-0.015625 0.765625q0 3.515625 1.296875 6.109375q0.765625 1.546875 1.828125 2.421875l-0.34375 1.03125q-1.203125 -0.671875 -2.3125 -2.265625q-2.140625 -3.09375 -2.140625 -7.40625zm16.454773 1.1875q-0.25 2.09375 -1.5625 3.25q-1.296875 1.140625 -3.46875 1.140625q-2.34375 0 -3.765625 -1.6875q-1.421875 -1.6875 -1.421875 -4.515625l0 -1.265625q0 -1.859375 0.65625 -3.25q0.671875 -1.40625 1.875 -2.15625q1.21875 -0.765625 2.8125 -0.765625q2.109375 0 3.390625 1.1875q1.28125 1.171875 1.484375 3.265625l-1.765625 0q-0.21875 -1.578125 -0.984375 -2.28125q-0.765625 -0.71875 -2.125 -0.71875q-1.671875 0 -2.625 1.234375q-0.953125 1.234375 -0.953125 3.53125l0 1.28125q0 2.15625 0.890625 3.4375q0.90625 1.265625 2.53125 1.265625q1.453125 0 2.234375 -0.65625q0.78125 -0.65625 1.03125 -2.296875l1.765625 0zm6.017975 -1.09375q0 2.03125 -0.546875 3.90625q-0.53125 1.859375 -1.625 3.421875q-1.09375 1.578125 -2.296875 2.25l-0.359375 -1.03125q1.40625 -1.078125 2.25 -3.328125q0.859375 -2.265625 0.875 -5.03125l0 -0.296875q0 -1.90625 -0.40625 -3.546875q-0.390625 -1.65625 -1.109375 -2.953125q-0.71875 -1.296875 -1.609375 -2.03125l0.359375 -1.03125q1.203125 0.671875 2.28125 2.234375q1.09375 1.546875 1.640625 3.421875q0.546875 1.875 0.546875 4.015625z" fill-rule="nonzero"/><path fill="#434343" d="m418.72763 487.53156q0 -1.3125 0.34375 -2.53125q0.359375 -1.21875 1.0625 -2.21875q0.703125 -1.0 1.46875 -1.40625l0.21875 0.71875q-0.859375 0.65625 -1.40625 2.0q-0.546875 1.34375 -0.59375 3.015625l-0.015625 0.5q0 2.265625 0.828125 3.921875q0.5 1.0 1.1875 1.5625l-0.21875 0.65625q-0.78125 -0.421875 -1.5 -1.453125q-1.375 -1.984375 -1.375 -4.765625z" fill-rule="nonzero"/><path fill="#434343" d="m428.92294 494.28156l-6.546875 0q-0.171875 0 -0.25 -0.0625q-0.078125 -0.0625 -0.078125 -0.171875q0 -0.109375 0.078125 -0.1875q0.078125 -0.0625 0.25 -0.0625l6.546875 0q0.1875 0 0.25 0.0625q0.078125 0.078125 0.078125 0.1875q0 0.109375 -0.078125 0.171875q-0.0625 0.0625 -0.25 0.0625zm7.201172 0l-6.546875 0q-0.171875 0 -0.25 -0.0625q-0.078125 -0.0625 -0.078125 -0.171875q0 -0.109375 0.078125 -0.1875q0.078125 -0.0625 0.25 -0.0625l6.546875 0q0.1875 0 0.25 0.0625q0.078125 0.078125 0.078125 0.1875q0 0.109375 -0.078125 0.171875q-0.0625 0.0625 -0.25 0.0625zm6.341797 -10.640625l0 6.859375l0.65625 0q0.171875 0 0.25 0.078125q0.078125 0.0625 0.078125 0.171875q0 0.109375 -0.078125 0.1875q-0.078125 0.0625 -0.25 0.0625l-1.15625 0l0 -0.984375q-0.859375 1.171875 -2.171875 1.171875q-0.671875 0 -1.28125 -0.34375q-0.609375 -0.359375 -0.96875 -1.015625q-0.359375 -0.65625 -0.359375 -1.359375q0 -0.703125 0.359375 -1.34375q0.359375 -0.65625 0.96875 -1.015625q0.609375 -0.359375 1.28125 -0.359375q1.296875 0 2.171875 1.171875l0 -2.78125l-0.65625 0q-0.1875 0 -0.265625 -0.0625q-0.0625 -0.078125 -0.0625 -0.1875q0 -0.109375 0.0625 -0.171875q0.078125 -0.078125 0.265625 -0.078125l1.15625 0zm-0.5 4.828125q0 -0.9375 -0.640625 -1.578125q-0.625 -0.640625 -1.5 -0.640625q-0.875 0 -1.515625 0.640625q-0.625 0.640625 -0.625 1.578125q0 0.9375 0.625 1.59375q0.640625 0.640625 1.515625 0.640625q0.875 0 1.5 -0.640625q0.640625 -0.65625 0.640625 -1.59375zm7.951172 0.109375l-5.015625 0q0.125 0.953125 0.796875 1.546875q0.671875 0.578125 1.65625 0.578125q0.5625 0 1.15625 -0.171875q0.609375 -0.1875 0.984375 -0.5q0.109375 -0.078125 0.203125 -0.078125q0.09375 0 0.15625 0.078125q0.078125 0.0625 0.078125 0.171875q0 0.09375 -0.09375 0.1875q-0.28125 0.296875 -1.0 0.546875q-0.71875 0.25 -1.484375 0.25q-1.265625 0 -2.109375 -0.828125q-0.84375 -0.828125 -0.84375 -2.0q0 -1.078125 0.796875 -1.84375q0.796875 -0.765625 1.96875 -0.765625q1.203125 0 1.984375 0.796875q0.78125 0.78125 0.765625 2.03125zm-0.5 -0.5q-0.140625 -0.8125 -0.765625 -1.3125q-0.625 -0.515625 -1.484375 -0.515625q-0.859375 0 -1.484375 0.5q-0.625 0.5 -0.78125 1.328125l4.515625 0zm5.466797 2.921875l-0.828125 0l-2.03125 -4.578125l-0.5 0q-0.171875 0 -0.25 -0.0625q-0.078125 -0.078125 -0.078125 -0.1875q0 -0.109375 0.078125 -0.171875q0.078125 -0.078125 0.25 -0.078125l1.84375 0q0.1875 0 0.25 0.078125q0.078125 0.0625 0.078125 0.171875q0 0.109375 -0.078125 0.1875q-0.0625 0.0625 -0.25 0.0625l-0.8125 0l1.8125 4.078125l0.21875 0l1.765625 -4.078125l-0.828125 0q-0.171875 0 -0.25 -0.0625q-0.078125 -0.078125 -0.078125 -0.1875q0 -0.109375 0.078125 -0.171875q0.078125 -0.078125 0.25 -0.078125l1.859375 0q0.171875 0 0.25 0.078125q0.078125 0.0625 0.078125 0.171875q0 0.109375 -0.078125 0.1875q-0.078125 0.0625 -0.25 0.0625l-0.5 0l-2.0 4.578125zm7.013672 -7.59375l0 1.265625l-0.71875 0l0 -1.265625l0.71875 0zm0.015625 2.515625l0 4.578125l1.9375 0q0.1875 0 0.25 0.078125q0.078125 0.0625 0.078125 0.171875q0 0.109375 -0.078125 0.1875q-0.0625 0.0625 -0.25 0.0625l-4.359375 0q-0.171875 0 -0.25 -0.0625q-0.078125 -0.078125 -0.078125 -0.1875q0 -0.109375 0.078125 -0.171875q0.078125 -0.078125 0.25 -0.078125l1.9375 0l0 -4.078125l-1.4375 0q-0.171875 0 -0.265625 -0.0625q-0.078125 -0.078125 -0.078125 -0.1875q0 -0.109375 0.078125 -0.171875q0.078125 -0.078125 0.265625 -0.078125l1.921875 0zm8.998047 0.5l0 -0.15625q0 -0.1875 0.0625 -0.265625q0.078125 -0.078125 0.1875 -0.078125q0.109375 0 0.171875 0.078125q0.078125 0.078125 0.078125 0.265625l0 1.109375q-0.015625 0.171875 -0.078125 0.25q-0.0625 0.078125 -0.171875 0.078125q-0.109375 0 -0.171875 -0.0625q-0.0625 -0.0625 -0.078125 -0.234375q-0.03125 -0.40625 -0.546875 -0.78125q-0.515625 -0.375 -1.375 -0.375q-1.109375 0 -1.671875 0.6875q-0.5625 0.6875 -0.5625 1.5625q0 0.953125 0.625 1.578125q0.625 0.625 1.625 0.625q0.5625 0 1.15625 -0.203125q0.609375 -0.21875 1.078125 -0.6875q0.125 -0.125 0.21875 -0.125q0.109375 0 0.171875 0.078125q0.0625 0.0625 0.0625 0.15625q0 0.25 -0.59375 0.640625q-0.953125 0.625 -2.125 0.625q-1.1875 0 -1.953125 -0.75q-0.765625 -0.765625 -0.765625 -1.921875q0 -1.203125 0.78125 -1.984375q0.78125 -0.78125 1.96875 -0.78125q1.140625 0 1.90625 0.671875zm7.810547 2.15625l-5.015625 0q0.125 0.953125 0.796875 1.546875q0.671875 0.578125 1.65625 0.578125q0.5625 0 1.15625 -0.171875q0.609375 -0.1875 0.984375 -0.5q0.109375 -0.078125 0.203125 -0.078125q0.09375 0 0.15625 0.078125q0.078125 0.0625 0.078125 0.171875q0 0.09375 -0.09375 0.1875q-0.28125 0.296875 -1.0 0.546875q-0.71875 0.25 -1.484375 0.25q-1.265625 0 -2.109375 -0.828125q-0.84375 -0.828125 -0.84375 -2.0q0 -1.078125 0.796875 -1.84375q0.796875 -0.765625 1.96875 -0.765625q1.203125 0 1.984375 0.796875q0.78125 0.78125 0.765625 2.03125zm-0.5 -0.5q-0.140625 -0.8125 -0.765625 -1.3125q-0.625 -0.515625 -1.484375 -0.515625q-0.859375 0 -1.484375 0.5q-0.625 0.5 -0.78125 1.328125l4.515625 0zm8.310547 6.203125l-6.546875 0q-0.171875 0 -0.25 -0.0625q-0.078125 -0.0625 -0.078125 -0.171875q0 -0.109375 0.078125 -0.1875q0.078125 -0.0625 0.25 -0.0625l6.546875 0q0.1875 0 0.25 0.0625q0.078125 0.078125 0.078125 0.1875q0 0.109375 -0.078125 0.171875q-0.0625 0.0625 -0.25 0.0625zm7.201172 0l-6.546875 0q-0.171875 0 -0.25 -0.0625q-0.078125 -0.0625 -0.078125 -0.171875q0 -0.109375 0.078125 -0.1875q0.078125 -0.0625 0.25 -0.0625l6.546875 0q0.1875 0 0.25 0.0625q0.078125 0.078125 0.078125 0.1875q0 0.109375 -0.078125 0.171875q-0.0625 0.0625 -0.25 0.0625z" fill-rule="nonzero"/><path fill="#434343" d="m497.3878 487.59406q0 1.3125 -0.34375 2.515625q-0.34375 1.1875 -1.0625 2.203125q-0.703125 1.015625 -1.46875 1.4375l-0.234375 -0.65625q0.90625 -0.6875 1.453125 -2.140625q0.546875 -1.46875 0.5625 -3.234375l0 -0.1875q0 -1.234375 -0.265625 -2.296875q-0.25 -1.0625 -0.71875 -1.890625q-0.453125 -0.84375 -1.03125 -1.3125l0.234375 -0.65625q0.765625 0.421875 1.46875 1.421875q0.703125 1.0 1.046875 2.21875q0.359375 1.203125 0.359375 2.578125z" fill-rule="nonzero"/></g></svg>