<svg version="1.1" viewBox="0.0 0.0 529.1338582677165 529.1338582677165" fill="none" stroke="none" stroke-linecap="square" stroke-miterlimit="10" xmlns:xlink="http://www.w3.org/1999/xlink" xmlns="http://www.w3.org/2000/svg"><clipPath id="p.0"><path d="m0 0l529.13385 0l0 529.13385l-529.13385 0l0 -529.13385z" clip-rule="nonzero"/></clipPath><g clip-path="url(#p.0)"><path fill="#000000" fill-opacity="0.0" d="m18.3979 24.222656l0 0c0 -3.7323895 3.0256996 -6.758089 6.758089 -6.758089l478.7988 0c1.7923584 0 3.5112915 0.71201134 4.7786865 1.9793987c1.267395 1.2673874 1.9794006 2.9863338 1.9794006 4.7786903l0 56.342087c0 3.7323914 -3.0256958 6.758095 -6.758087 6.758095l-478.7988 0c-3.7323895 0 -6.758089 -3.0257034 -6.758089 -6.758095z" fill-rule="evenodd"/><path stroke="#434343" stroke-width="2.0" stroke-linejoin="round" stroke-linecap="butt" d="m18.3979 24.222656l0 0c0 -3.7323895 3.0256996 -6.758089 6.758089 -6.758089l478.7988 0c1.7923584 0 3.5112915 0.71201134 4.7786865 1.9793987c1.267395 1.2673874 1.9794006 2.9863338 1.9794006 4.7786903l0 56.342087c0 3.7323914 -3.0256958 6.758095 -6.758087 6.758095l-478.7988 0c-3.7323895 0 -6.758089 -3.0257034 -6.758089 -6.758095z" fill-rule="evenodd"/><path fill="#434343" d="m217.45995 59.501198q-2.671875 0 -4.296875 -1.828125q-1.625 -1.84375 -1.625 -5.171875q0 -3.296875 1.546875 -5.140625q1.5625 -1.859375 4.328125 -1.859375q1.453125 0 2.59375 0.28125q0.28125 0.078125 0.453125 0.328125q0.171875 0.234375 0.171875 0.53125q0 0.25 -0.203125 0.390625q-0.1875 0.140625 -0.421875 0.0625q-1.109375 -0.34375 -2.46875 -0.34375q-2.109375 0 -3.3125 1.515625q-1.1875 1.515625 -1.1875 4.234375q0 2.703125 1.234375 4.234375q1.25 1.515625 3.328125 1.515625q1.375 0 2.5 -0.34375q0.234375 -0.0625 0.421875 0.078125q0.203125 0.140625 0.203125 0.375q0 0.296875 -0.171875 0.53125q-0.171875 0.234375 -0.453125 0.3125q-1.25 0.296875 -2.640625 0.296875zm7.4831543 -0.390625q-0.203125 0.203125 -0.5 0.203125q-0.296875 0 -0.515625 -0.203125q-0.203125 -0.203125 -0.203125 -0.5l0 -12.578125q0 -0.296875 0.203125 -0.5q0.21875 -0.21875 0.515625 -0.21875q0.296875 0 0.5 0.21875q0.203125 0.203125 0.203125 0.5l0 5.03125q0 0.015625 0.015625 0.015625q0.03125 0 0.046875 -0.015625q1.34375 -1.640625 3.109375 -1.640625q1.703125 0 2.46875 0.953125q0.765625 0.9375 0.765625 3.15625l0 5.078125q0 0.296875 -0.203125 0.5q-0.1875 0.203125 -0.484375 0.203125q-0.296875 0 -0.515625 -0.203125q-0.203125 -0.203125 -0.203125 -0.5l0 -4.84375q0 -1.875 -0.5 -2.515625q-0.484375 -0.65625 -1.6875 -0.65625q-0.984375 0 -1.90625 0.9375q-0.90625 0.921875 -0.90625 1.890625l0 5.1875q0 0.296875 -0.203125 0.5zm14.009064 -4.921875q-1.84375 0 -2.78125 0.59375q-0.9375 0.59375 -0.9375 1.671875q0 0.84375 0.46875 1.359375q0.484375 0.515625 1.265625 0.515625q1.34375 0 2.21875 -0.890625q0.890625 -0.90625 0.890625 -2.375l0 -0.71875q0 -0.15625 -0.171875 -0.15625l-0.953125 0zm-2.28125 5.3125q-1.28125 0 -2.078125 -0.796875q-0.796875 -0.8125 -0.796875 -2.140625q0 -1.546875 1.21875 -2.46875q1.234375 -0.9375 3.9375 -0.9375l0.953125 0q0.171875 0 0.171875 -0.15625l0 -0.34375q0 -1.140625 -0.53125 -1.59375q-0.515625 -0.46875 -1.84375 -0.46875q-1.28125 0 -2.765625 0.484375q-0.234375 0.078125 -0.421875 -0.046875q-0.1875 -0.125 -0.1875 -0.375q0 -0.65625 0.625 -0.84375q1.375 -0.390625 2.75 -0.390625q2.15625 0 2.984375 0.78125q0.828125 0.78125 0.828125 2.828125l0 5.609375q0 0.28125 -0.203125 0.484375q-0.1875 0.1875 -0.46875 0.1875q-0.28125 0 -0.484375 -0.1875q-0.203125 -0.203125 -0.203125 -0.484375l-0.015625 -0.96875q0 -0.015625 -0.03125 -0.015625q-0.03125 0 -0.03125 0.03125q-1.09375 1.8125 -3.40625 1.8125zm8.821808 -0.40625q-0.203125 0.21875 -0.53125 0.21875q-0.3125 0 -0.53125 -0.21875q-0.203125 -0.234375 -0.203125 -0.53125l0 -8.25q0 -0.296875 0.203125 -0.5q0.203125 -0.203125 0.5 -0.203125q0.296875 0 0.5 0.203125q0.203125 0.203125 0.203125 0.5l0 1.4375q0 0.03125 0.015625 0.03125q0.046875 0 0.046875 -0.046875q0.5625 -0.921875 1.578125 -1.484375q1.015625 -0.578125 2.28125 -0.640625q0.265625 -0.015625 0.453125 0.171875q0.1875 0.1875 0.1875 0.453125q0 0.234375 -0.1875 0.421875q-0.171875 0.1875 -0.4375 0.203125q-1.84375 0.078125 -2.859375 1.078125q-1.0 1.0 -1.0 2.78125l0 3.84375q0 0.296875 -0.21875 0.53125zm7.2234344 -7.984375q-0.25 0 -0.40625 -0.15625q-0.15625 -0.171875 -0.15625 -0.40625q0 -0.25 0.15625 -0.40625q0.15625 -0.15625 0.40625 -0.15625l1.359375 0q0.15625 0 0.15625 -0.171875l0 -2.65625q0 -0.3125 0.203125 -0.515625q0.21875 -0.203125 0.515625 -0.203125q0.296875 0 0.5 0.203125q0.203125 0.203125 0.203125 0.515625l0 2.65625q0 0.171875 0.171875 0.171875l2.796875 0q0.25 0 0.40625 0.15625q0.15625 0.15625 0.15625 0.40625q0 0.234375 -0.15625 0.40625q-0.15625 0.15625 -0.40625 0.15625l-2.796875 0q-0.171875 0 -0.171875 0.15625l0 4.9375q0 1.34375 0.359375 1.765625q0.359375 0.40625 1.359375 0.40625q0.59375 0 0.984375 -0.09375q0.203125 -0.03125 0.375 0.09375q0.1875 0.109375 0.1875 0.328125q0 0.25 -0.15625 0.46875q-0.15625 0.203125 -0.40625 0.234375q-0.484375 0.09375 -1.234375 0.09375q-1.640625 0 -2.265625 -0.671875q-0.625 -0.6875 -0.625 -2.5l0 -5.0625q0 -0.15625 -0.15625 -0.15625l-1.359375 0zm13.959198 3.078125q-1.84375 0 -2.78125 0.59375q-0.9375 0.59375 -0.9375 1.671875q0 0.84375 0.46875 1.359375q0.484375 0.515625 1.265625 0.515625q1.34375 0 2.21875 -0.890625q0.890625 -0.90625 0.890625 -2.375l0 -0.71875q0 -0.15625 -0.171875 -0.15625l-0.953125 0zm-2.28125 5.3125q-1.28125 0 -2.078125 -0.796875q-0.796875 -0.8125 -0.796875 -2.140625q0 -1.546875 1.21875 -2.46875q1.234375 -0.9375 3.9375 -0.9375l0.953125 0q0.171875 0 0.171875 -0.15625l0 -0.34375q0 -1.140625 -0.53125 -1.59375q-0.515625 -0.46875 -1.84375 -0.46875q-1.28125 0 -2.765625 0.484375q-0.234375 0.078125 -0.421875 -0.046875q-0.1875 -0.125 -0.1875 -0.375q0 -0.65625 0.625 -0.84375q1.375 -0.390625 2.75 -0.390625q2.15625 0 2.984375 0.78125q0.828125 0.78125 0.828125 2.828125l0 5.609375q0 0.28125 -0.203125 0.484375q-0.1875 0.1875 -0.46875 0.1875q-0.28125 0 -0.484375 -0.1875q-0.203125 -0.203125 -0.203125 -0.484375l-0.015625 -0.96875q0 -0.015625 -0.03125 -0.015625q-0.03125 0 -0.03125 0.03125q-1.09375 1.8125 -3.40625 1.8125zm17.858978 0q-2.671875 0 -4.296875 -1.828125q-1.625 -1.84375 -1.625 -5.171875q0 -3.296875 1.546875 -5.140625q1.5625 -1.859375 4.328125 -1.859375q1.453125 0 2.59375 0.28125q0.28125 0.078125 0.453125 0.328125q0.171875 0.234375 0.171875 0.53125q0 0.25 -0.203125 0.390625q-0.1875 0.140625 -0.421875 0.0625q-1.109375 -0.34375 -2.46875 -0.34375q-2.109375 0 -3.3125 1.515625q-1.1875 1.515625 -1.1875 4.234375q0 2.703125 1.234375 4.234375q1.25 1.515625 3.328125 1.515625q1.375 0 2.5 -0.34375q0.234375 -0.0625 0.421875 0.078125q0.203125 0.140625 0.203125 0.375q0 0.296875 -0.171875 0.53125q-0.171875 0.234375 -0.453125 0.3125q-1.25 0.296875 -2.640625 0.296875zm10.858154 -5.3125q-1.84375 0 -2.78125 0.59375q-0.9375 0.59375 -0.9375 1.671875q0 0.84375 0.46875 1.359375q0.484375 0.515625 1.265625 0.515625q1.34375 0 2.21875 -0.890625q0.890625 -0.90625 0.890625 -2.375l0 -0.71875q0 -0.15625 -0.171875 -0.15625l-0.953125 0zm-2.28125 5.3125q-1.28125 0 -2.078125 -0.796875q-0.796875 -0.8125 -0.796875 -2.140625q0 -1.546875 1.21875 -2.46875q1.234375 -0.9375 3.9375 -0.9375l0.953125 0q0.171875 0 0.171875 -0.15625l0 -0.34375q0 -1.140625 -0.53125 -1.59375q-0.515625 -0.46875 -1.84375 -0.46875q-1.28125 0 -2.765625 0.484375q-0.234375 0.078125 -0.421875 -0.046875q-0.1875 -0.125 -0.1875 -0.375q0 -0.65625 0.625 -0.84375q1.375 -0.390625 2.75 -0.390625q2.15625 0 2.984375 0.78125q0.828125 0.78125 0.828125 2.828125l0 5.609375q0 0.28125 -0.203125 0.484375q-0.1875 0.1875 -0.46875 0.1875q-0.28125 0 -0.484375 -0.1875q-0.203125 -0.203125 -0.203125 -0.484375l-0.015625 -0.96875q0 -0.015625 -0.03125 -0.015625q-0.03125 0 -0.03125 0.03125q-1.09375 1.8125 -3.40625 1.8125zm11.181213 -9.0q-2.59375 0 -2.828125 3.078125q0 0.15625 0.171875 0.15625l5.015625 0q0.140625 0 0.140625 -0.15625q-0.109375 -3.078125 -2.5 -3.078125zm0.390625 9.0q-2.28125 0 -3.484375 -1.25q-1.1875 -1.265625 -1.1875 -3.78125q0 -2.59375 1.140625 -3.8125q1.15625 -1.234375 3.140625 -1.234375q3.6875 0 3.90625 4.34375q0.015625 0.453125 -0.3125 0.765625q-0.328125 0.296875 -0.765625 0.296875l-5.53125 0q-0.140625 0 -0.140625 0.171875q0.15625 3.421875 3.375 3.421875q1.0625 0 2.1875 -0.390625q0.203125 -0.078125 0.390625 0.046875q0.1875 0.109375 0.1875 0.34375q0 0.625 -0.578125 0.78125q-1.203125 0.296875 -2.328125 0.296875zm7.775879 -0.40625q-0.21875 0.21875 -0.53125 0.21875q-0.3125 0 -0.53125 -0.21875q-0.21875 -0.234375 -0.21875 -0.53125l0 -12.5q0 -0.296875 0.21875 -0.515625q0.21875 -0.234375 0.53125 -0.234375q0.3125 0 0.53125 0.234375q0.21875 0.21875 0.21875 0.515625l0 12.5q0 0.296875 -0.21875 0.53125zm5.7834167 0q-0.21875 0.21875 -0.53125 0.21875q-0.3125 0 -0.53125 -0.21875q-0.21875 -0.234375 -0.21875 -0.53125l0 -8.203125q0 -0.296875 0.21875 -0.515625q0.21875 -0.234375 0.53125 -0.234375q0.3125 0 0.53125 0.234375q0.21875 0.21875 0.21875 0.515625l0 8.203125q0 0.296875 -0.21875 0.53125zm0 -11.984375q-0.21875 0.203125 -0.53125 0.203125q-0.3125 0 -0.53125 -0.203125q-0.21875 -0.21875 -0.21875 -0.546875l0 -0.5q0 -0.296875 0.21875 -0.515625q0.21875 -0.234375 0.53125 -0.234375q0.3125 0 0.53125 0.234375q0.21875 0.21875 0.21875 0.515625l0 0.5q0 0.328125 -0.21875 0.546875z" fill-rule="nonzero"/><path fill="#000000" fill-opacity="0.0" d="m18.3979 99.55599l0 0c0 -3.7323914 3.0256996 -6.758095 6.758089 -6.758095l478.7988 0c1.7923584 0 3.5112915 0.71201324 4.7786865 1.9794006c1.267395 1.2673874 1.9794006 2.9863358 1.9794006 4.778694l0 56.342094c0 3.732376 -3.0256958 6.758087 -6.758087 6.758087l-478.7988 0c-3.7323895 0 -6.758089 -3.025711 -6.758089 -6.758087z" fill-rule="evenodd"/><path stroke="#434343" stroke-width="2.0" stroke-linejoin="round" stroke-linecap="butt" d="m18.3979 99.55599l0 0c0 -3.7323914 3.0256996 -6.758095 6.758089 -6.758095l478.7988 0c1.7923584 0 3.5112915 0.71201324 4.7786865 1.9794006c1.267395 1.2673874 1.9794006 2.9863358 1.9794006 4.778694l0 56.342094c0 3.732376 -3.0256958 6.758087 -6.758087 6.758087l-478.7988 0c-3.7323895 0 -6.758089 -3.025711 -6.758089 -6.758087z" fill-rule="evenodd"/><path fill="#434343" d="m246.20163 134.47516q-0.296875 -0.09375 -0.484375 -0.328125q-0.1875 -0.25 -0.1875 -0.5625q0 -0.25 0.203125 -0.390625q0.203125 -0.15625 0.453125 -0.0625q1.28125 0.453125 2.640625 0.453125q1.46875 0 2.15625 -0.875q0.703125 -0.875 0.703125 -2.90625l0 -7.984375q0 -0.328125 0.234375 -0.5625q0.234375 -0.234375 0.546875 -0.234375q0.3125 0 0.546875 0.234375q0.234375 0.234375 0.234375 0.5625l0 8.34375q0 2.4375 -1.078125 3.5625q-1.078125 1.109375 -3.34375 1.109375q-1.328125 0 -2.625 -0.359375zm14.541046 -4.953125q-1.84375 0 -2.78125 0.59375q-0.9375 0.59375 -0.9375 1.671875q0 0.84375 0.46875 1.359375q0.484375 0.515625 1.265625 0.515625q1.34375 0 2.21875 -0.890625q0.890625 -0.90625 0.890625 -2.375l0 -0.71875q0 -0.15625 -0.171875 -0.15625l-0.953125 0zm-2.28125 5.3125q-1.28125 0 -2.078125 -0.796875q-0.79689026 -0.8125 -0.79689026 -2.140625q0 -1.546875 1.2187653 -2.46875q1.234375 -0.9375 3.9375 -0.9375l0.953125 0q0.171875 0 0.171875 -0.15625l0 -0.34375q0 -1.140625 -0.53125 -1.59375q-0.515625 -0.46875 -1.84375 -0.46875q-1.28125 0 -2.765625 0.484375q-0.234375 0.078125 -0.421875 -0.046875q-0.1875 -0.125 -0.1875 -0.375q0 -0.65625 0.625 -0.84375q1.375 -0.390625 2.75 -0.390625q2.15625 0 2.984375 0.78125q0.828125 0.78125 0.828125 2.828125l0 5.609375q0 0.28125 -0.203125 0.484375q-0.1875 0.1875 -0.46875 0.1875q-0.28125 0 -0.484375 -0.1875q-0.203125 -0.203125 -0.203125 -0.484375l-0.015625 -0.96875q0 -0.015625 -0.03125 -0.015625q-0.03125 0 -0.03125 0.03125q-1.09375 1.8125 -3.40625 1.8125zm9.806183 -1.109375l-2.890625 -8.046875q-0.09375 -0.265625 0.0625 -0.5q0.171875 -0.234375 0.4375 -0.234375q0.359375 0 0.640625 0.203125q0.28125 0.203125 0.390625 0.546875l2.65625 8.09375q0 0.015625 0.015625 0.015625q0.03125 0 0.03125 -0.015625l2.65625 -8.140625q0.09375 -0.3125 0.375 -0.5q0.28125 -0.203125 0.609375 -0.203125q0.28125 0 0.4375 0.234375q0.15625 0.21875 0.0625 0.46875l-2.90625 8.078125q-0.15625 0.421875 -0.515625 0.671875q-0.34375 0.25 -0.78125 0.25q-0.421875 0 -0.78125 -0.25q-0.359375 -0.25 -0.5 -0.671875zm12.194702 -4.203125q-1.84375 0 -2.78125 0.59375q-0.9375 0.59375 -0.9375 1.671875q0 0.84375 0.46875 1.359375q0.484375 0.515625 1.265625 0.515625q1.34375 0 2.21875 -0.890625q0.890625 -0.90625 0.890625 -2.375l0 -0.71875q0 -0.15625 -0.171875 -0.15625l-0.953125 0zm-2.28125 5.3125q-1.28125 0 -2.078125 -0.796875q-0.796875 -0.8125 -0.796875 -2.140625q0 -1.546875 1.21875 -2.46875q1.234375 -0.9375 3.9375 -0.9375l0.953125 0q0.171875 0 0.171875 -0.15625l0 -0.34375q0 -1.140625 -0.53125 -1.59375q-0.515625 -0.46875 -1.84375 -0.46875q-1.28125 0 -2.765625 0.484375q-0.234375 0.078125 -0.421875 -0.046875q-0.1875 -0.125 -0.1875 -0.375q0 -0.65625 0.625 -0.84375q1.375 -0.390625 2.75 -0.390625q2.15625 0 2.984375 0.78125q0.828125 0.78125 0.828125 2.828125l0 5.609375q0 0.28125 -0.203125 0.484375q-0.1875 0.1875 -0.46875 0.1875q-0.28125 0 -0.484375 -0.1875q-0.203125 -0.203125 -0.203125 -0.484375l-0.015625 -0.96875q0 -0.015625 -0.03125 -0.015625q-0.03125 0 -0.03125 0.03125q-1.09375 1.8125 -3.40625 1.8125z" fill-rule="nonzero"/><path fill="#000000" fill-opacity="0.0" d="m18.395002 176.42186l0 0c0 -4.578781 3.7118378 -8.290619 8.290623 -8.290619l140.11166 0c2.198822 0 4.3075714 0.8734741 5.8623657 2.4282532c1.5547943 1.5547943 2.4282684 3.663559 2.4282684 5.8623657l0 209.78096c0 4.578766 -3.7118378 8.290619 -8.290634 8.290619l-140.11166 0c-4.578785 0 -8.290623 -3.711853 -8.290623 -8.290619z" fill-rule="evenodd"/><path stroke="#434343" stroke-width="2.0" stroke-linejoin="round" stroke-linecap="butt" d="m18.395002 176.42186l0 0c0 -4.578781 3.7118378 -8.290619 8.290623 -8.290619l140.11166 0c2.198822 0 4.3075714 0.8734741 5.8623657 2.4282532c1.5547943 1.5547943 2.4282684 3.663559 2.4282684 5.8623657l0 209.78096c0 4.578766 -3.7118378 8.290619 -8.290634 8.290619l-140.11166 0c-4.578785 0 -8.290623 -3.711853 -8.290623 -8.290619z" fill-rule="evenodd"/><path fill="#434343" d="m82.100296 255.06046q-0.296875 -0.09375 -0.484375 -0.328125q-0.1875 -0.25 -0.1875 -0.5625q0 -0.25 0.203125 -0.390625q0.203125 -0.15625 0.453125 -0.0625q1.28125 0.453125 2.640625 0.453125q1.46875 0 2.15625 -0.875q0.703125 -0.875 0.703125 -2.90625l0 -7.984375q0 -0.328125 0.234375 -0.5625q0.234375 -0.234375 0.546875 -0.234375q0.3125 0 0.546875 0.234375q0.234375 0.234375 0.234375 0.5625l0 8.34375q0 2.4375 -1.078125 3.5625q-1.078125 1.109375 -3.34375 1.109375q-1.328125 0 -2.625 -0.359375zm11.525406 -12.078125l0 4.953125q0 0.171875 0.171875 0.171875l1.328125 0q2.21875 0 3.25 -0.71875q1.046875 -0.71875 1.046875 -2.140625q0 -2.609375 -3.9375 -2.609375q-0.828125 0 -1.6875 0.15625q-0.171875 0.03125 -0.171875 0.1875zm-0.21875 12.03125q-0.203125 0.21875 -0.53125 0.21875q-0.3125 0 -0.53125 -0.21875q-0.21875 -0.234375 -0.21875 -0.53125l0 -11.71875q0 -0.453125 0.296875 -0.796875q0.3125 -0.359375 0.75 -0.40625q1.109375 -0.140625 2.453125 -0.140625q2.609375 0 3.9375 0.96875q1.34375 0.953125 1.34375 2.734375q0 1.421875 -0.765625 2.359375q-0.75 0.9375 -2.15625 1.296875q-0.015625 0 -0.015625 0.03125q0 0.015625 0.015625 0.015625q0.8125 0.46875 1.640625 2.4375l1.34375 3.265625q0.125 0.234375 -0.046875 0.46875q-0.15625 0.234375 -0.4375 0.234375q-0.34375 0 -0.640625 -0.203125q-0.28125 -0.203125 -0.421875 -0.53125l-1.296875 -3.203125q-0.5625 -1.34375 -1.0625 -1.671875q-0.484375 -0.328125 -1.9375 -0.328125l-1.328125 0q-0.171875 0 -0.171875 0.15625l0 5.03125q0 0.296875 -0.21875 0.53125zm11.10257 0.21875q-0.4375 0 -0.765625 -0.3125q-0.3125 -0.328125 -0.3125 -0.75l0 -11.5q0 -0.421875 0.3125 -0.734375q0.328125 -0.328125 0.765625 -0.328125l6.265625 0q0.25 0 0.4375 0.1875q0.1875 0.1875 0.1875 0.4375q0 0.234375 -0.1875 0.4375q-0.1875 0.1875 -0.4375 0.1875l-5.671875 0q-0.171875 0 -0.171875 0.15625l0 4.140625q0 0.15625 0.171875 0.15625l5.328125 0q0.265625 0 0.421875 0.171875q0.171875 0.171875 0.171875 0.421875q0 0.234375 -0.171875 0.421875q-0.15625 0.171875 -0.421875 0.171875l-5.328125 0q-0.171875 0 -0.171875 0.171875l0 5.15625q0 0.15625 0.171875 0.15625l5.671875 0q0.25 0 0.4375 0.203125q0.1875 0.1875 0.1875 0.4375q0 0.234375 -0.1875 0.421875q-0.1875 0.1875 -0.4375 0.1875l-6.265625 0z" fill-rule="nonzero"/><path fill="#434343" d="m45.881638 279.8417q-0.75 0 -1.21875 -0.5q-3.109375 -3.265625 -3.109375 -7.984375q0 -4.71875 3.109375 -7.984375q0.46875 -0.5 1.21875 -0.5q0.1875 0 0.265625 0.1875q0.078125 0.171875 -0.0625 0.328125q-3.09375 3.265625 -3.09375 7.96875q0 4.703125 3.09375 7.96875q0.125 0.140625 0.046875 0.328125q-0.0625 0.1875 -0.25 0.1875zm7.803467 -2.421875q-2.671875 0 -4.296875 -1.828125q-1.625 -1.84375 -1.625 -5.171875q0 -3.296875 1.546875 -5.140625q1.5625 -1.859375 4.328125 -1.859375q1.453125 0 2.59375 0.28125q0.28125 0.078125 0.453125 0.328125q0.171875 0.234375 0.171875 0.53125q0 0.25 -0.203125 0.390625q-0.1875 0.140625 -0.421875 0.0625q-1.109375 -0.34375 -2.46875 -0.34375q-2.109375 0 -3.3125 1.515625q-1.1875 1.515625 -1.1875 4.234375q0 2.703125 1.234375 4.234375q1.25 1.515625 3.328125 1.515625q1.375 0 2.5 -0.34375q0.234375 -0.0625 0.421875 0.078125q0.203125 0.140625 0.203125 0.375q0 0.296875 -0.171875 0.53125q-0.171875 0.234375 -0.453125 0.3125q-1.25 0.296875 -2.640625 0.296875zm10.858154 -5.3125q-1.84375 0 -2.78125 0.59375q-0.9375 0.59375 -0.9375 1.671875q0 0.84375 0.46875 1.359375q0.484375 0.515625 1.265625 0.515625q1.34375 0 2.21875 -0.890625q0.890625 -0.90625 0.890625 -2.375l0 -0.71875q0 -0.15625 -0.171875 -0.15625l-0.953125 0zm-2.28125 5.3125q-1.28125 0 -2.078125 -0.796875q-0.796875 -0.8125 -0.796875 -2.140625q0 -1.546875 1.21875 -2.46875q1.234375 -0.9375 3.9375 -0.9375l0.953125 0q0.171875 0 0.171875 -0.15625l0 -0.34375q0 -1.140625 -0.53125 -1.59375q-0.515625 -0.46875 -1.84375 -0.46875q-1.28125 0 -2.765625 0.484375q-0.234375 0.078125 -0.421875 -0.046875q-0.1875 -0.125 -0.1875 -0.375q0 -0.65625 0.625 -0.84375q1.375 -0.390625 2.75 -0.390625q2.15625 0 2.984375 0.78125q0.828125 0.78125 0.828125 2.828125l0 5.609375q0 0.28125 -0.203125 0.484375q-0.1875 0.1875 -0.46875 0.1875q-0.28125 0 -0.484375 -0.1875q-0.203125 -0.203125 -0.203125 -0.484375l-0.015625 -0.96875q0 -0.015625 -0.03125 -0.015625q-0.03125 0 -0.03125 0.03125q-1.09375 1.8125 -3.40625 1.8125zm10.634308 -4.53125q-1.8125 -0.4375 -2.59375 -1.109375q-0.765625 -0.6875 -0.765625 -1.765625q0 -1.234375 0.921875 -1.953125q0.921875 -0.71875 2.640625 -0.71875q1.28125 0 2.546875 0.34375q0.578125 0.140625 0.578125 0.765625q0 0.21875 -0.171875 0.328125q-0.15625 0.109375 -0.390625 0.0625q-1.21875 -0.375 -2.453125 -0.375q-2.234375 0 -2.234375 1.4375q0 0.625 0.4375 1.046875q0.453125 0.421875 1.625 0.6875q2.015625 0.4375 2.765625 1.140625q0.765625 0.6875 0.765625 1.96875q0 1.25 -0.96875 1.96875q-0.953125 0.703125 -2.703125 0.703125q-1.375 0 -2.59375 -0.40625q-0.578125 -0.1875 -0.578125 -0.8125q0 -0.203125 0.171875 -0.3125q0.1875 -0.125 0.40625 -0.0625q1.203125 0.46875 2.46875 0.46875q2.359375 0 2.359375 -1.546875q0 -0.671875 -0.484375 -1.109375q-0.46875 -0.453125 -1.75 -0.75zm6.287781 -3.859375q-0.25 0 -0.40625 -0.15625q-0.15625 -0.171875 -0.15625 -0.40625q0 -0.25 0.15625 -0.40625q0.15625 -0.15625 0.40625 -0.15625l1.359375 0q0.15625 0 0.15625 -0.171875l0 -2.65625q0 -0.3125 0.203125 -0.515625q0.21875 -0.203125 0.515625 -0.203125q0.296875 0 0.5 0.203125q0.203125 0.203125 0.203125 0.515625l0 2.65625q0 0.171875 0.171875 0.171875l2.796875 0q0.25 0 0.40625 0.15625q0.15625 0.15625 0.15625 0.40625q0 0.234375 -0.15625 0.40625q-0.15625 0.15625 -0.40625 0.15625l-2.796875 0q-0.171875 0 -0.171875 0.15625l0 4.9375q0 1.34375 0.359375 1.765625q0.359375 0.40625 1.359375 0.40625q0.59375 0 0.984375 -0.09375q0.203125 -0.03125 0.375 0.09375q0.1875 0.109375 0.1875 0.328125q0 0.25 -0.15625 0.46875q-0.15625 0.203125 -0.40625 0.234375q-0.484375 0.09375 -1.234375 0.09375q-1.640625 0 -2.265625 -0.671875q-0.625 -0.6875 -0.625 -2.5l0 -5.0625q0 -0.15625 -0.15625 -0.15625l-1.359375 0zm16.037308 3.359375q0 -3.921875 -2.984375 -3.921875q-2.984375 0 -2.984375 3.921875q0 3.90625 2.984375 3.90625q2.984375 0 2.984375 -3.90625zm0.28125 3.703125q-1.171875 1.328125 -3.265625 1.328125q-2.09375 0 -3.265625 -1.328125q-1.171875 -1.328125 -1.171875 -3.703125q0 -2.390625 1.171875 -3.71875q1.171875 -1.328125 3.265625 -1.328125q2.09375 0 3.265625 1.328125q1.171875 1.328125 1.171875 3.71875q0 2.375 -1.171875 3.703125zm4.591629 0.921875q-0.203125 0.21875 -0.53125 0.21875q-0.3125 0 -0.53125 -0.21875q-0.203125 -0.234375 -0.203125 -0.53125l0 -8.25q0 -0.296875 0.203125 -0.5q0.203125 -0.203125 0.5 -0.203125q0.296875 0 0.5 0.203125q0.203125 0.203125 0.203125 0.5l0 1.4375q0 0.03125 0.015625 0.03125q0.046875 0 0.046875 -0.046875q0.5625 -0.921875 1.578125 -1.484375q1.015625 -0.578125 2.28125 -0.640625q0.265625 -0.015625 0.453125 0.171875q0.1875 0.1875 0.1875 0.453125q0 0.234375 -0.1875 0.421875q-0.171875 0.1875 -0.4375 0.203125q-1.84375 0.078125 -2.859375 1.078125q-1.0 1.0 -1.0 2.78125l0 3.84375q0 0.296875 -0.21875 0.53125zm7.4265594 2.265625q-0.25 0 -0.40625 -0.203125q-0.15625 -0.203125 -0.078125 -0.4375l0.890625 -3.0625q0.109375 -0.390625 0.453125 -0.640625q0.34375 -0.265625 0.765625 -0.265625q0.328125 0 0.515625 0.28125q0.1875 0.28125 0.0625 0.609375l-1.25 3.09375q-0.109375 0.296875 -0.375 0.453125q-0.265625 0.171875 -0.578125 0.171875zm9.942368 -2.21875q-0.296875 -0.09375 -0.484375 -0.328125q-0.1875 -0.25 -0.1875 -0.5625q0 -0.25 0.203125 -0.390625q0.203125 -0.15625 0.453125 -0.0625q1.28125 0.453125 2.640625 0.453125q1.46875 0 2.15625 -0.875q0.703125 -0.875 0.703125 -2.90625l0 -7.984375q0 -0.328125 0.234375 -0.5625q0.234375 -0.234375 0.546875 -0.234375q0.3125 0 0.546875 0.234375q0.234375 0.234375 0.234375 0.5625l0 8.34375q0 2.4375 -1.078125 3.5625q-1.078125 1.109375 -3.34375 1.109375q-1.328125 0 -2.625 -0.359375zm10.197281 -12.171875q-0.25 0 -0.4375 -0.1875q-0.1875 -0.1875 -0.1875 -0.453125q0 -0.265625 0.1875 -0.453125q0.1875 -0.1875 0.4375 -0.1875l8.328125 0q0.25 0 0.4375 0.1875q0.1875 0.1875 0.1875 0.453125q0 0.265625 -0.1875 0.453125q-0.1875 0.1875 -0.4375 0.1875l-3.25 0q-0.171875 0 -0.171875 0.15625l0 11.4375q0 0.296875 -0.21875 0.53125q-0.203125 0.21875 -0.53125 0.21875q-0.3125 0 -0.53125 -0.21875q-0.203125 -0.234375 -0.203125 -0.53125l0 -11.4375q0 -0.15625 -0.171875 -0.15625l-3.25 0zm15.062439 5.9375q-3.859375 -1.296875 -3.859375 -4.078125q0 -1.5625 1.0 -2.4375q1.015625 -0.890625 2.8125 -0.890625q1.6875 0 3.125 0.515625q0.296875 0.109375 0.484375 0.375q0.1875 0.265625 0.1875 0.609375q0 0.234375 -0.203125 0.359375q-0.203125 0.125 -0.4375 0.03125q-1.515625 -0.671875 -3.03125 -0.671875q-1.125 0 -1.8125 0.53125q-0.671875 0.515625 -0.671875 1.578125q0 1.828125 2.4375 2.65625q2.3125 0.75 3.25 1.75q0.9375 0.984375 0.9375 2.53125q0 1.828125 -1.109375 2.78125q-1.09375 0.953125 -3.21875 0.953125q-1.609375 0 -2.890625 -0.578125q-0.65625 -0.296875 -0.65625 -1.046875q0 -0.234375 0.203125 -0.34375q0.203125 -0.125 0.40625 -0.015625q1.265625 0.734375 2.8125 0.734375q2.953125 0 2.953125 -2.484375q0 -1.0 -0.640625 -1.671875q-0.625 -0.671875 -2.078125 -1.1875zm7.03566 8.453125q-0.25 0 -0.40625 -0.203125q-0.15625 -0.203125 -0.078125 -0.4375l0.890625 -3.0625q0.109375 -0.390625 0.453125 -0.640625q0.34375 -0.265625 0.765625 -0.265625q0.328125 0 0.515625 0.28125q0.1875 0.28125 0.0625 0.609375l-1.25 3.09375q-0.109375 0.296875 -0.375 0.453125q-0.265625 0.171875 -0.578125 0.171875z" fill-rule="nonzero"/><path fill="#434343" d="m36.02452 286.98233l0 4.953125q0 0.171875 0.171875 0.171875l1.328125 0q2.21875 0 3.25 -0.71875q1.046875 -0.71875 1.046875 -2.140625q0 -2.609375 -3.9375 -2.609375q-0.828125 0 -1.6875 0.15625q-0.171875 0.03125 -0.171875 0.1875zm-0.21875 12.03125q-0.203125 0.21875 -0.53125 0.21875q-0.3125 0 -0.53125 -0.21875q-0.21875 -0.234375 -0.21875 -0.53125l0 -11.71875q0 -0.453125 0.296875 -0.796875q0.3125 -0.359375 0.75 -0.40625q1.109375 -0.140625 2.453125 -0.140625q2.609375 0 3.9375 0.96875q1.34375 0.953125 1.34375 2.734375q0 1.421875 -0.765625 2.359375q-0.75 0.9375 -2.15625 1.296875q-0.015625 0 -0.015625 0.03125q0 0.015625 0.015625 0.015625q0.8125 0.46875 1.640625 2.4375l1.34375 3.265625q0.125 0.234375 -0.046875 0.46875q-0.15625 0.234375 -0.4375 0.234375q-0.34375 0 -0.640625 -0.203125q-0.28125 -0.203125 -0.421875 -0.53125l-1.296875 -3.203125q-0.5625 -1.34375 -1.0625 -1.671875q-0.484375 -0.328125 -1.9375 -0.328125l-1.328125 0q-0.171875 0 -0.171875 0.15625l0 5.03125q0 0.296875 -0.21875 0.53125zm12.88382 0.40625q-1.625 0 -2.375 -0.890625q-0.75 -0.90625 -0.75 -2.96875l0 -5.328125q0 -0.296875 0.1875 -0.5q0.203125 -0.203125 0.5 -0.203125q0.296875 0 0.5 0.203125q0.203125 0.203125 0.203125 0.5l0 5.140625q0 1.671875 0.5 2.296875q0.515625 0.625 1.609375 0.625q1.015625 0 1.90625 -0.859375q0.890625 -0.875 0.890625 -1.890625l0 -5.3125q0 -0.296875 0.21875 -0.5q0.21875 -0.203125 0.515625 -0.203125q0.296875 0 0.5 0.203125q0.203125 0.203125 0.203125 0.5l0 8.328125q0 0.28125 -0.203125 0.484375q-0.1875 0.1875 -0.46875 0.1875q-0.28125 0 -0.484375 -0.1875q-0.203125 -0.203125 -0.203125 -0.484375l0 -0.765625q0 -0.015625 -0.015625 -0.015625q-0.015625 0 -0.046875 0.015625q-1.28125 1.625 -3.1875 1.625zm8.619385 -0.390625q-0.203125 0.203125 -0.5 0.203125q-0.296875 0 -0.5 -0.203125q-0.203125 -0.203125 -0.203125 -0.5l0 -8.328125q0 -0.28125 0.1875 -0.46875q0.203125 -0.203125 0.46875 -0.203125q0.28125 0 0.484375 0.203125q0.21875 0.1875 0.21875 0.46875l0 0.765625q0 0.015625 0.015625 0.015625q0.015625 0 0.03125 -0.015625q1.34375 -1.625 3.1875 -1.625q1.703125 0 2.46875 0.953125q0.765625 0.953125 0.765625 3.15625l0 5.078125q0 0.296875 -0.203125 0.5q-0.1875 0.203125 -0.484375 0.203125q-0.296875 0 -0.515625 -0.203125q-0.203125 -0.203125 -0.203125 -0.5l0 -4.890625q0 -1.84375 -0.5 -2.5q-0.5 -0.671875 -1.6875 -0.671875q-0.96875 0 -1.890625 0.90625q-0.921875 0.90625 -0.921875 1.859375l0 5.296875q0 0.296875 -0.21875 0.5zm14.603287 0.390625q-2.671875 0 -4.296875 -1.828125q-1.625 -1.84375 -1.625 -5.171875q0 -3.296875 1.546875 -5.140625q1.5625 -1.859375 4.328125 -1.859375q1.453125 0 2.59375 0.28125q0.28125 0.078125 0.453125 0.328125q0.171875 0.234375 0.171875 0.53125q0 0.25 -0.203125 0.390625q-0.1875 0.140625 -0.421875 0.0625q-1.109375 -0.34375 -2.46875 -0.34375q-2.109375 0 -3.3125 1.515625q-1.1875 1.515625 -1.1875 4.234375q0 2.703125 1.234375 4.234375q1.25 1.515625 3.328125 1.515625q1.375 0 2.5 -0.34375q0.234375 -0.0625 0.421875 0.078125q0.203125 0.140625 0.203125 0.375q0 0.296875 -0.171875 0.53125q-0.171875 0.234375 -0.453125 0.3125q-1.25 0.296875 -2.640625 0.296875zm11.436279 0q-2.671875 0 -4.296875 -1.828125q-1.625 -1.84375 -1.625 -5.171875q0 -3.296875 1.546875 -5.140625q1.5625 -1.859375 4.328125 -1.859375q1.453125 0 2.59375 0.28125q0.28125 0.078125 0.453125 0.328125q0.171875 0.234375 0.171875 0.53125q0 0.25 -0.203125 0.390625q-0.1875 0.140625 -0.421875 0.0625q-1.109375 -0.34375 -2.46875 -0.34375q-2.109375 0 -3.3125 1.515625q-1.1875 1.515625 -1.1875 4.234375q0 2.703125 1.234375 4.234375q1.25 1.515625 3.328125 1.515625q1.375 0 2.5 -0.34375q0.234375 -0.0625 0.421875 0.078125q0.203125 0.140625 0.203125 0.375q0 0.296875 -0.171875 0.53125q-0.171875 0.234375 -0.453125 0.3125q-1.25 0.296875 -2.640625 0.296875zm6.4675293 1.859375q-0.25 0 -0.40625 -0.203125q-0.15625 -0.203125 -0.078125 -0.4375l0.890625 -3.0625q0.109375 -0.390625 0.453125 -0.640625q0.34375 -0.265625 0.765625 -0.265625q0.328125 0 0.515625 0.28125q0.1875 0.28125 0.0625 0.609375l-1.25 3.09375q-0.109375 0.296875 -0.375 0.453125q-0.265625 0.171875 -0.578125 0.171875zm14.504868 -14.296875l-2.265625 6.9375q-0.015625 0.046875 0.015625 0.09375q0.03125 0.046875 0.09375 0.046875l4.390625 0q0.046875 0 0.078125 -0.046875q0.03125 -0.046875 0.03125 -0.09375l-2.28125 -6.9375q0 -0.03125 -0.015625 -0.03125q-0.046875 0 -0.046875 0.03125zm-4.78125 12.25q-0.28125 0 -0.453125 -0.234375q-0.171875 -0.234375 -0.078125 -0.5l4.25 -12.09375q0.140625 -0.359375 0.4375 -0.578125q0.3125 -0.21875 0.6875 -0.21875q0.375 0 0.671875 0.21875q0.3125 0.21875 0.453125 0.578125l4.234375 12.078125q0.09375 0.28125 -0.078125 0.515625q-0.171875 0.234375 -0.453125 0.234375q-0.375 0 -0.671875 -0.203125q-0.28125 -0.21875 -0.390625 -0.5625l-0.984375 -3.0625q-0.0625 -0.140625 -0.21875 -0.140625l-5.171875 0q-0.15625 0 -0.203125 0.140625l-1.03125 3.09375q-0.109375 0.34375 -0.390625 0.546875q-0.265625 0.1875 -0.609375 0.1875zm13.546341 -6.171875l0 2.640625q0 1.0625 0.84375 1.828125q0.84375 0.765625 1.96875 0.765625q1.3125 0 2.046875 -0.984375q0.75 -1.0 0.75 -2.921875q0 -3.921875 -2.796875 -3.921875q-1.140625 0 -1.984375 0.78125q-0.828125 0.765625 -0.828125 1.8125zm-0.203125 10.0625q-0.203125 0.21875 -0.5 0.21875q-0.296875 0 -0.515625 -0.21875q-0.203125 -0.203125 -0.203125 -0.5l0 -12.421875q0 -0.28125 0.1875 -0.46875q0.203125 -0.203125 0.46875 -0.203125q0.28125 0 0.484375 0.203125q0.21875 0.1875 0.21875 0.46875l0.015625 0.703125q0 0.03125 0.015625 0.03125l0.03125 -0.046875q1.234375 -1.546875 3.125 -1.546875q1.8125 0 2.859375 1.328125q1.0625 1.3125 1.0625 3.71875q0 2.328125 -1.09375 3.6875q-1.09375 1.34375 -2.828125 1.34375q-1.90625 0 -3.0625 -1.4375q-0.015625 -0.015625 -0.046875 -0.015625q-0.015625 0 -0.015625 0.015625l0 4.640625q0 0.296875 -0.203125 0.5zm14.177444 -9.015625q-1.84375 0 -2.78125 0.59375q-0.9375 0.59375 -0.9375 1.671875q0 0.84375 0.46875 1.359375q0.484375 0.515625 1.265625 0.515625q1.34375 0 2.21875 -0.890625q0.890625 -0.90625 0.890625 -2.375l0 -0.71875q0 -0.15625 -0.171875 -0.15625l-0.953125 0zm-2.28125 5.3125q-1.28125 0 -2.078125 -0.796875q-0.796875 -0.8125 -0.796875 -2.140625q0 -1.546875 1.21875 -2.46875q1.234375 -0.9375 3.9375 -0.9375l0.953125 0q0.171875 0 0.171875 -0.15625l0 -0.34375q0 -1.140625 -0.53125 -1.59375q-0.515625 -0.46875 -1.84375 -0.46875q-1.28125 0 -2.765625 0.484375q-0.234375 0.078125 -0.421875 -0.046875q-0.1875 -0.125 -0.1875 -0.375q0 -0.65625 0.625 -0.84375q1.375 -0.390625 2.75 -0.390625q2.15625 0 2.984375 0.78125q0.828125 0.78125 0.828125 2.828125l0 5.609375q0 0.28125 -0.203125 0.484375q-0.1875 0.1875 -0.46875 0.1875q-0.28125 0 -0.484375 -0.1875q-0.203125 -0.203125 -0.203125 -0.484375l-0.015625 -0.96875q0 -0.015625 -0.03125 -0.015625q-0.03125 0 -0.03125 0.03125q-1.09375 1.8125 -3.40625 1.8125zm11.462433 0q-2.203125 0 -3.390625 -1.28125q-1.171875 -1.28125 -1.171875 -3.75q0 -2.46875 1.140625 -3.75q1.15625 -1.296875 3.234375 -1.296875q0.96875 0 2.0625 0.203125q0.25 0.0625 0.421875 0.28125q0.1875 0.203125 0.1875 0.484375q0 0.234375 -0.203125 0.359375q-0.1875 0.125 -0.40625 0.078125q-0.953125 -0.25 -1.96875 -0.25q-2.984375 0 -2.984375 3.890625q0 2.015625 0.78125 2.953125q0.796875 0.921875 2.390625 0.921875q1.046875 0 1.90625 -0.28125q0.203125 -0.078125 0.390625 0.0625q0.1875 0.125 0.1875 0.34375q0 0.28125 -0.171875 0.515625q-0.15625 0.21875 -0.4375 0.296875q-0.875 0.21875 -1.96875 0.21875zm6.6037903 -0.390625q-0.203125 0.203125 -0.5 0.203125q-0.296875 0 -0.515625 -0.203125q-0.203125 -0.203125 -0.203125 -0.5l0 -12.578125q0 -0.296875 0.203125 -0.5q0.21875 -0.21875 0.515625 -0.21875q0.296875 0 0.5 0.21875q0.203125 0.203125 0.203125 0.5l0 5.03125q0 0.015625 0.015625 0.015625q0.03125 0 0.046875 -0.015625q1.34375 -1.640625 3.109375 -1.640625q1.703125 0 2.46875 0.953125q0.765625 0.9375 0.765625 3.15625l0 5.078125q0 0.296875 -0.203125 0.5q-0.1875 0.203125 -0.484375 0.203125q-0.296875 0 -0.515625 -0.203125q-0.203125 -0.203125 -0.203125 -0.5l0 -4.84375q0 -1.875 -0.5 -2.515625q-0.484375 -0.65625 -1.6875 -0.65625q-0.984375 0 -1.90625 0.9375q-0.90625 0.921875 -0.90625 1.890625l0 5.1875q0 0.296875 -0.203125 0.5zm12.946564 -8.609375q-2.59375 0 -2.828125 3.078125q0 0.15625 0.171875 0.15625l5.015625 0q0.140625 0 0.140625 -0.15625q-0.109375 -3.078125 -2.5 -3.078125zm0.390625 9.0q-2.28125 0 -3.484375 -1.25q-1.1875 -1.265625 -1.1875 -3.78125q0 -2.59375 1.140625 -3.8125q1.15625 -1.234375 3.140625 -1.234375q3.6875 0 3.90625 4.34375q0.015625 0.453125 -0.3125 0.765625q-0.328125 0.296875 -0.765625 0.296875l-5.53125 0q-0.140625 0 -0.140625 0.171875q0.15625 3.421875 3.375 3.421875q1.0625 0 2.1875 -0.390625q0.203125 -0.078125 0.390625 0.046875q0.1875 0.109375 0.1875 0.34375q0 0.625 -0.578125 0.78125q-1.203125 0.296875 -2.328125 0.296875z" fill-rule="nonzero"/><path fill="#434343" d="m46.32521 321.41983q-2.671875 0 -4.296875 -1.828125q-1.625 -1.84375 -1.625 -5.171875q0 -3.296875 1.546875 -5.140625q1.5625 -1.859375 4.328125 -1.859375q1.453125 0 2.59375 0.28125q0.28125 0.078125 0.453125 0.328125q0.171875 0.234375 0.171875 0.53125q0 0.25 -0.203125 0.390625q-0.1875 0.140625 -0.421875 0.0625q-1.109375 -0.34375 -2.46875 -0.34375q-2.109375 0 -3.3125 1.515625q-1.1875 1.515625 -1.1875 4.234375q0 2.703125 1.234375 4.234375q1.25 1.515625 3.328125 1.515625q1.375 0 2.5 -0.34375q0.234375 -0.0625 0.421875 0.078125q0.203125 0.140625 0.203125 0.375q0 0.296875 -0.171875 0.53125q-0.171875 0.234375 -0.453125 0.3125q-1.25 0.296875 -2.640625 0.296875zm12.936279 -5.03125q0 -3.921875 -2.984375 -3.921875q-2.984375 0 -2.984375 3.921875q0 3.90625 2.984375 3.90625q2.984375 0 2.984375 -3.90625zm0.28125 3.703125q-1.171875 1.328125 -3.265625 1.328125q-2.09375 0 -3.265625 -1.328125q-1.171875 -1.328125 -1.171875 -3.703125q0 -2.390625 1.171875 -3.71875q1.171875 -1.328125 3.265625 -1.328125q2.09375 0 3.265625 1.328125q1.171875 1.328125 1.171875 3.71875q0 2.375 -1.171875 3.703125zm4.544754 0.9375q-0.203125 0.203125 -0.5 0.203125q-0.296875 0 -0.515625 -0.203125q-0.203125 -0.203125 -0.203125 -0.5l0 -8.3125q0 -0.28125 0.203125 -0.484375q0.203125 -0.203125 0.484375 -0.203125q0.28125 0 0.484375 0.203125q0.203125 0.203125 0.203125 0.484375l0.015625 0.625q0 0.015625 0.015625 0.015625q0.046875 0 0.046875 -0.03125q1.0625 -1.484375 2.53125 -1.484375q0.890625 0 1.4375 0.390625q0.5625 0.390625 0.921875 1.3125q0 0.03125 0.015625 0.03125q0.03125 0 0.03125 -0.03125q1.046875 -1.703125 2.71875 -1.703125q1.5 0 2.15625 0.859375q0.671875 0.859375 0.671875 2.875l0 5.453125q0 0.296875 -0.203125 0.5q-0.1875 0.203125 -0.5 0.203125q-0.296875 0 -0.5 -0.203125q-0.203125 -0.203125 -0.203125 -0.5l0 -5.078125q0 -1.734375 -0.40625 -2.359375q-0.390625 -0.625 -1.40625 -0.625q-0.6875 0 -1.359375 0.734375q-0.671875 0.734375 -0.671875 1.515625l0 5.8125q0 0.296875 -0.203125 0.5q-0.203125 0.203125 -0.5 0.203125q-0.296875 0 -0.515625 -0.203125q-0.203125 -0.203125 -0.203125 -0.5l0 -5.078125q0 -1.734375 -0.40625 -2.359375q-0.390625 -0.625 -1.375 -0.625q-0.6875 0 -1.375 0.734375q-0.6875 0.734375 -0.6875 1.515625l0 5.8125q0 0.296875 -0.203125 0.5zm14.645157 0q-0.203125 0.203125 -0.5 0.203125q-0.296875 0 -0.515625 -0.203125q-0.203125 -0.203125 -0.203125 -0.5l0 -8.3125q0 -0.28125 0.203125 -0.484375q0.203125 -0.203125 0.484375 -0.203125q0.28125 0 0.484375 0.203125q0.203125 0.203125 0.203125 0.484375l0.015625 0.625q0 0.015625 0.015625 0.015625q0.046875 0 0.046875 -0.03125q1.0625 -1.484375 2.53125 -1.484375q0.890625 0 1.4375 0.390625q0.5625 0.390625 0.921875 1.3125q0 0.03125 0.015625 0.03125q0.03125 0 0.03125 -0.03125q1.046875 -1.703125 2.71875 -1.703125q1.5 0 2.15625 0.859375q0.671875 0.859375 0.671875 2.875l0 5.453125q0 0.296875 -0.203125 0.5q-0.1875 0.203125 -0.5 0.203125q-0.296875 0 -0.5 -0.203125q-0.203125 -0.203125 -0.203125 -0.5l0 -5.078125q0 -1.734375 -0.40625 -2.359375q-0.390625 -0.625 -1.40625 -0.625q-0.6875 0 -1.359375 0.734375q-0.671875 0.734375 -0.671875 1.515625l0 5.8125q0 0.296875 -0.203125 0.5q-0.203125 0.203125 -0.5 0.203125q-0.296875 0 -0.515625 -0.203125q-0.203125 -0.203125 -0.203125 -0.5l0 -5.078125q0 -1.734375 -0.40625 -2.359375q-0.390625 -0.625 -1.375 -0.625q-0.6875 0 -1.375 0.734375q-0.6875 0.734375 -0.6875 1.515625l0 5.8125q0 0.296875 -0.203125 0.5zm20.192032 -4.640625q0 -3.921875 -2.984375 -3.921875q-2.984375 0 -2.984375 3.921875q0 3.90625 2.984375 3.90625q2.984375 0 2.984375 -3.90625zm0.28125 3.703125q-1.171875 1.328125 -3.265625 1.328125q-2.09375 0 -3.265625 -1.328125q-1.171875 -1.328125 -1.171875 -3.703125q0 -2.390625 1.171875 -3.71875q1.171875 -1.328125 3.265625 -1.328125q2.09375 0 3.265625 1.328125q1.171875 1.328125 1.171875 3.71875q0 2.375 -1.171875 3.703125zm4.529129 0.9375q-0.203125 0.203125 -0.5 0.203125q-0.296875 0 -0.5 -0.203125q-0.203125 -0.203125 -0.203125 -0.5l0 -8.328125q0 -0.28125 0.1875 -0.46875q0.203125 -0.203125 0.46875 -0.203125q0.28125 0 0.484375 0.203125q0.21875 0.1875 0.21875 0.46875l0 0.765625q0 0.015625 0.015625 0.015625q0.015625 0 0.03125 -0.015625q1.34375 -1.625 3.1875 -1.625q1.703125 0 2.46875 0.953125q0.765625 0.953125 0.765625 3.15625l0 5.078125q0 0.296875 -0.203125 0.5q-0.1875 0.203125 -0.484375 0.203125q-0.296875 0 -0.515625 -0.203125q-0.203125 -0.203125 -0.203125 -0.5l0 -4.890625q0 -1.84375 -0.5 -2.5q-0.5 -0.671875 -1.6875 -0.671875q-0.96875 0 -1.890625 0.90625q-0.921875 0.90625 -0.921875 1.859375l0 5.296875q0 0.296875 -0.21875 0.5zm12.415787 -4.140625q-1.8125 -0.4375 -2.59375 -1.109375q-0.765625 -0.6875 -0.765625 -1.765625q0 -1.234375 0.921875 -1.953125q0.921875 -0.71875 2.640625 -0.71875q1.28125 0 2.546875 0.34375q0.578125 0.140625 0.578125 0.765625q0 0.21875 -0.171875 0.328125q-0.15625 0.109375 -0.390625 0.0625q-1.21875 -0.375 -2.453125 -0.375q-2.234375 0 -2.234375 1.4375q0 0.625 0.4375 1.046875q0.453125 0.421875 1.625 0.6875q2.015625 0.4375 2.765625 1.140625q0.765625 0.6875 0.765625 1.96875q0 1.25 -0.96875 1.96875q-0.953125 0.703125 -2.703125 0.703125q-1.375 0 -2.59375 -0.40625q-0.578125 -0.1875 -0.578125 -0.8125q0 -0.203125 0.171875 -0.3125q0.1875 -0.125 0.40625 -0.0625q1.203125 0.46875 2.46875 0.46875q2.359375 0 2.359375 -1.546875q0 -0.671875 -0.484375 -1.109375q-0.46875 -0.453125 -1.75 -0.75zm6.490906 6.390625q-0.25 0 -0.40625 -0.203125q-0.15625 -0.203125 -0.078125 -0.4375l0.890625 -3.0625q0.109375 -0.390625 0.453125 -0.640625q0.34375 -0.265625 0.765625 -0.265625q0.328125 0 0.515625 0.28125q0.1875 0.28125 0.0625 0.609375l-1.25 3.09375q-0.109375 0.296875 -0.375 0.453125q-0.265625 0.171875 -0.578125 0.171875zm11.786118 -2.296875q-0.25 0.25 -0.625 0.25q-0.359375 0 -0.625 -0.25q-0.25 -0.265625 -0.25 -0.625l0 -0.796875q0 -0.375 0.25 -0.625q0.265625 -0.265625 0.625 -0.265625q0.375 0 0.625 0.265625q0.265625 0.25 0.265625 0.625l0 0.796875q0 0.359375 -0.265625 0.625zm5.2983704 0q-0.25 0.25 -0.625 0.25q-0.359375 0 -0.625 -0.25q-0.25 -0.265625 -0.25 -0.625l0 -0.796875q0 -0.375 0.25 -0.625q0.265625 -0.265625 0.625 -0.265625q0.375 0 0.625 0.265625q0.265625 0.25 0.265625 0.625l0 0.796875q0 0.359375 -0.265625 0.625zm5.2983704 0q-0.25 0.25 -0.625 0.25q-0.359375 0 -0.625 -0.25q-0.25 -0.265625 -0.25 -0.625l0 -0.796875q0 -0.375 0.25 -0.625q0.265625 -0.265625 0.625 -0.265625q0.375 0 0.625 0.265625q0.265625 0.25 0.265625 0.625l0 0.796875q0 0.359375 -0.265625 0.625zm3.2514954 2.859375q-0.203125 0 -0.28125 -0.1875q-0.078125 -0.1875 0.078125 -0.328125q3.09375 -3.265625 3.09375 -7.96875q0 -4.703125 -3.09375 -7.96875q-0.140625 -0.15625 -0.0625 -0.328125q0.078125 -0.1875 0.265625 -0.1875q0.71875 0 1.203125 0.5q1.515625 1.578125 2.3125 3.625q0.8125 2.046875 0.8125 4.359375q0 2.3125 -0.8125 4.359375q-0.796875 2.03125 -2.3125 3.625q-0.484375 0.5 -1.203125 0.5z" fill-rule="nonzero"/><path fill="#000000" fill-opacity="0.0" d="m181.6885 174.88933l0 0c0 -3.7323914 3.0256958 -6.758087 6.758087 -6.758087l91.74365 0c1.7923584 0 3.511322 0.7120056 4.7786865 1.9793854c1.267395 1.267395 1.9794006 2.9863434 1.9794006 4.778702l0 56.342087c0 3.7323914 -3.0256958 6.758087 -6.758087 6.758087l-91.74365 0l0 0c-3.7323914 0 -6.758087 -3.0256958 -6.758087 -6.758087z" fill-rule="evenodd"/><path stroke="#434343" stroke-width="2.0" stroke-linejoin="round" stroke-linecap="butt" d="m181.6885 174.88933l0 0c0 -3.7323914 3.0256958 -6.758087 6.758087 -6.758087l91.74365 0c1.7923584 0 3.511322 0.7120056 4.7786865 1.9793854c1.267395 1.267395 1.9794006 2.9863434 1.9794006 4.778702l0 56.342087c0 3.7323914 -3.0256958 6.758087 -6.758087 6.758087l-91.74365 0l0 0c-3.7323914 0 -6.758087 -3.0256958 -6.758087 -6.758087z" fill-rule="evenodd"/><path fill="#434343" d="m223.35081 199.16786q-2.671875 0 -4.296875 -1.828125q-1.625 -1.84375 -1.625 -5.171875q0 -3.296875 1.546875 -5.140625q1.5625 -1.859375 4.328125 -1.859375q1.453125 0 2.59375 0.28125q0.28125 0.078125 0.453125 0.328125q0.171875 0.234375 0.171875 0.53125q0 0.25 -0.203125 0.390625q-0.1875 0.140625 -0.421875 0.0625q-1.109375 -0.34375 -2.46875 -0.34375q-2.109375 0 -3.3125 1.515625q-1.1875 1.515625 -1.1875 4.234375q0 2.703125 1.234375 4.234375q1.25 1.515625 3.328125 1.515625q1.375 0 2.5 -0.34375q0.234375 -0.0625 0.421875 0.078125q0.203125 0.140625 0.203125 0.375q0 0.296875 -0.171875 0.53125q-0.171875 0.234375 -0.453125 0.3125q-1.25 0.296875 -2.640625 0.296875zm10.748779 -12.4375l-2.265625 6.9375q-0.015625 0.046875 0.015625 0.09375q0.03125 0.046875 0.09375 0.046875l4.390625 0q0.046875 0 0.078125 -0.046875q0.03125 -0.046875 0.03125 -0.09375l-2.28125 -6.9375q0 -0.03125 -0.015625 -0.03125q-0.046875 0 -0.046875 0.03125zm-4.78125 12.25q-0.28125 0 -0.453125 -0.234375q-0.171875 -0.234375 -0.078125 -0.5l4.25 -12.09375q0.140625 -0.359375 0.4375 -0.578125q0.3125 -0.21875 0.6875 -0.21875q0.375 0 0.671875 0.21875q0.3125 0.21875 0.453125 0.578125l4.234375 12.078125q0.09375 0.28125 -0.078125 0.515625q-0.171875 0.234375 -0.453125 0.234375q-0.375 0 -0.671875 -0.203125q-0.28125 -0.21875 -0.390625 -0.5625l-0.984375 -3.0625q-0.0625 -0.140625 -0.21875 -0.140625l-5.171875 0q-0.15625 0 -0.203125 0.140625l-1.03125 3.09375q-0.109375 0.34375 -0.390625 0.546875q-0.265625 0.1875 -0.609375 0.1875zm16.70259 -12.25l-2.265625 6.9375q-0.015625 0.046875 0.015625 0.09375q0.03125 0.046875 0.09375 0.046875l4.390625 0q0.046875 0 0.078125 -0.046875q0.03125 -0.046875 0.03125 -0.09375l-2.28125 -6.9375q0 -0.03125 -0.015625 -0.03125q-0.046875 0 -0.046875 0.03125zm-4.78125 12.25q-0.28125 0 -0.453125 -0.234375q-0.171875 -0.234375 -0.078125 -0.5l4.25 -12.09375q0.140625 -0.359375 0.4375 -0.578125q0.3125 -0.21875 0.6875 -0.21875q0.375 0 0.671875 0.21875q0.3125 0.21875 0.453125 0.578125l4.234375 12.078125q0.09375 0.28125 -0.078125 0.515625q-0.171875 0.234375 -0.453125 0.234375q-0.375 0 -0.671875 -0.203125q-0.28125 -0.21875 -0.390625 -0.5625l-0.984375 -3.0625q-0.0625 -0.140625 -0.21875 -0.140625l-5.171875 0q-0.15625 0 -0.203125 0.140625l-1.03125 3.09375q-0.109375 0.34375 -0.390625 0.546875q-0.265625 0.1875 -0.609375 0.1875z" fill-rule="nonzero"/><path fill="#434343" d="m213.41121 223.58974q-0.75 0 -1.21875 -0.5q-3.109375 -3.265625 -3.109375 -7.984375q0 -4.71875 3.109375 -7.984375q0.46875 -0.5 1.21875 -0.5q0.1875 0 0.265625 0.1875q0.078125 0.171875 -0.0625 0.328125q-3.09375 3.265625 -3.09375 7.96875q0 4.703125 3.09375 7.96875q0.125 0.140625 0.046875 0.328125q-0.0625 0.1875 -0.25 0.1875zm2.5534668 -2.78125q-0.296875 -0.09375 -0.484375 -0.328125q-0.1875 -0.25 -0.1875 -0.5625q0 -0.25 0.203125 -0.390625q0.203125 -0.15625 0.453125 -0.0625q1.28125 0.453125 2.640625 0.453125q1.46875 0 2.15625 -0.875q0.703125 -0.875 0.703125 -2.90625l0 -7.984375q0 -0.328125 0.234375 -0.5625q0.234375 -0.234375 0.546875 -0.234375q0.3125 0 0.546875 0.234375q0.234375 0.234375 0.234375 0.5625l0 8.34375q0 2.4375 -1.078125 3.5625q-1.078125 1.109375 -3.34375 1.109375q-1.328125 0 -2.625 -0.359375zm14.541031 -4.953125q-1.84375 0 -2.78125 0.59375q-0.9375 0.59375 -0.9375 1.671875q0 0.84375 0.46875 1.359375q0.484375 0.515625 1.265625 0.515625q1.34375 0 2.21875 -0.890625q0.890625 -0.90625 0.890625 -2.375l0 -0.71875q0 -0.15625 -0.171875 -0.15625l-0.953125 0zm-2.28125 5.3125q-1.28125 0 -2.078125 -0.796875q-0.796875 -0.8125 -0.796875 -2.140625q0 -1.546875 1.21875 -2.46875q1.234375 -0.9375 3.9375 -0.9375l0.953125 0q0.171875 0 0.171875 -0.15625l0 -0.34375q0 -1.140625 -0.53125 -1.59375q-0.515625 -0.46875 -1.84375 -0.46875q-1.28125 0 -2.765625 0.484375q-0.234375 0.078125 -0.421875 -0.046875q-0.1875 -0.125 -0.1875 -0.375q0 -0.65625 0.625 -0.84375q1.375 -0.390625 2.75 -0.390625q2.15625 0 2.984375 0.78125q0.828125 0.78125 0.828125 2.828125l0 5.609375q0 0.28125 -0.203125 0.484375q-0.1875 0.1875 -0.46875 0.1875q-0.28125 0 -0.484375 -0.1875q-0.203125 -0.203125 -0.203125 -0.484375l-0.015625 -0.96875q0 -0.015625 -0.03125 -0.015625q-0.03125 0 -0.03125 0.03125q-1.09375 1.8125 -3.40625 1.8125zm9.806183 -1.109375l-2.890625 -8.046875q-0.09375 -0.265625 0.0625 -0.5q0.171875 -0.234375 0.4375 -0.234375q0.359375 0 0.640625 0.203125q0.28125 0.203125 0.390625 0.546875l2.65625 8.09375q0 0.015625 0.015625 0.015625q0.03125 0 0.03125 -0.015625l2.65625 -8.140625q0.09375 -0.3125 0.375 -0.5q0.28125 -0.203125 0.609375 -0.203125q0.28125 0 0.4375 0.234375q0.15625 0.21875 0.0625 0.46875l-2.90625 8.078125q-0.15625 0.421875 -0.515625 0.671875q-0.34375 0.25 -0.78125 0.25q-0.421875 0 -0.78125 -0.25q-0.359375 -0.25 -0.5 -0.671875zm12.194717 -4.203125q-1.84375 0 -2.78125 0.59375q-0.9375 0.59375 -0.9375 1.671875q0 0.84375 0.46875 1.359375q0.484375 0.515625 1.265625 0.515625q1.34375 0 2.21875 -0.890625q0.890625 -0.90625 0.890625 -2.375l0 -0.71875q0 -0.15625 -0.171875 -0.15625l-0.953125 0zm-2.28125 5.3125q-1.28125 0 -2.078125 -0.796875q-0.796875 -0.8125 -0.796875 -2.140625q0 -1.546875 1.21875 -2.46875q1.234375 -0.9375 3.9375 -0.9375l0.953125 0q0.171875 0 0.171875 -0.15625l0 -0.34375q0 -1.140625 -0.53125 -1.59375q-0.515625 -0.46875 -1.84375 -0.46875q-1.28125 0 -2.765625 0.484375q-0.234375 0.078125 -0.421875 -0.046875q-0.1875 -0.125 -0.1875 -0.375q0 -0.65625 0.625 -0.84375q1.375 -0.390625 2.75 -0.390625q2.15625 0 2.984375 0.78125q0.828125 0.78125 0.828125 2.828125l0 5.609375q0 0.28125 -0.203125 0.484375q-0.1875 0.1875 -0.46875 0.1875q-0.28125 0 -0.484375 -0.1875q-0.203125 -0.203125 -0.203125 -0.484375l-0.015625 -0.96875q0 -0.015625 -0.03125 -0.015625q-0.03125 0 -0.03125 0.03125q-1.09375 1.8125 -3.40625 1.8125zm7.368683 2.421875q-0.203125 0 -0.28125 -0.1875q-0.078125 -0.1875 0.078125 -0.328125q3.0937653 -3.265625 3.0937653 -7.96875q0 -4.703125 -3.0937653 -7.96875q-0.140625 -0.15625 -0.0625 -0.328125q0.078125 -0.1875 0.265625 -0.1875q0.71876526 0 1.2031403 0.5q1.515625 1.578125 2.3125 3.625q0.8125 2.046875 0.8125 4.359375q0 2.3125 -0.8125 4.359375q-0.796875 2.03125 -2.3125 3.625q-0.484375 0.5 -1.2031403 0.5z" fill-rule="nonzero"/><path fill="#000000" fill-opacity="0.0" d="m293.57306 174.88933l0 0c0 -3.7323914 3.0256958 -6.758087 6.758087 -6.758087l91.74365 0c1.7923584 0 3.5112915 0.7120056 4.7786865 1.9793854c1.267395 1.267395 1.9794006 2.9863434 1.9794006 4.778702l0 56.342087c0 3.7323914 -3.0256958 6.758087 -6.758087 6.758087l-91.74365 0l0 0c-3.7323914 0 -6.758087 -3.0256958 -6.758087 -6.758087z" fill-rule="evenodd"/><path stroke="#434343" stroke-width="2.0" stroke-linejoin="round" stroke-linecap="butt" d="m293.57306 174.88933l0 0c0 -3.7323914 3.0256958 -6.758087 6.758087 -6.758087l91.74365 0c1.7923584 0 3.5112915 0.7120056 4.7786865 1.9793854c1.267395 1.267395 1.9794006 2.9863434 1.9794006 4.778702l0 56.342087c0 3.7323914 -3.0256958 6.758087 -6.758087 6.758087l-91.74365 0l0 0c-3.7323914 0 -6.758087 -3.0256958 -6.758087 -6.758087z" fill-rule="evenodd"/><path fill="#434343" d="m323.7262 209.80849q-0.296875 -0.09375 -0.484375 -0.328125q-0.1875 -0.25 -0.1875 -0.5625q0 -0.25 0.203125 -0.390625q0.203125 -0.15625 0.453125 -0.0625q1.28125 0.453125 2.640625 0.453125q1.46875 0 2.15625 -0.875q0.703125 -0.875 0.703125 -2.90625l0 -7.984375q0 -0.328125 0.234375 -0.5625q0.234375 -0.234375 0.546875 -0.234375q0.3125 0 0.546875 0.234375q0.234375 0.234375 0.234375 0.5625l0 8.34375q0 2.4375 -1.078125 3.5625q-1.078125 1.109375 -3.34375 1.109375q-1.328125 0 -2.625 -0.359375zm18.072266 -0.859375q-1.21875 1.21875 -3.515625 1.21875q-2.28125 0 -3.5 -1.21875q-1.203125 -1.21875 -1.203125 -3.640625l0 -8.1875q0 -0.3125 0.21875 -0.53125q0.21875 -0.234375 0.515625 -0.234375q0.328125 0 0.546875 0.234375q0.21875 0.21875 0.21875 0.53125l0 8.25q0 1.8125 0.796875 2.671875q0.796875 0.859375 2.4375 0.859375q1.640625 0 2.4375 -0.859375q0.8125 -0.859375 0.8125 -2.671875l0 -8.28125q0 -0.3125 0.203125 -0.515625q0.21875 -0.21875 0.515625 -0.21875q0.296875 0 0.515625 0.21875q0.21875 0.203125 0.21875 0.515625l0 8.21875q0 2.421875 -1.21875 3.640625zm5.2229004 0.828125q-0.203125 0.203125 -0.5 0.203125q-0.296875 0 -0.5 -0.203125q-0.203125 -0.203125 -0.203125 -0.5l0 -8.328125q0 -0.28125 0.1875 -0.46875q0.203125 -0.203125 0.46875 -0.203125q0.28125 0 0.484375 0.203125q0.21875 0.1875 0.21875 0.46875l0 0.765625q0 0.015625 0.015625 0.015625q0.015625 0 0.03125 -0.015625q1.34375 -1.625 3.1875 -1.625q1.703125 0 2.46875 0.953125q0.765625 0.953125 0.765625 3.15625l0 5.078125q0 0.296875 -0.203125 0.5q-0.1875 0.203125 -0.484375 0.203125q-0.296875 0 -0.515625 -0.203125q-0.203125 -0.203125 -0.203125 -0.5l0 -4.890625q0 -1.84375 -0.5 -2.5q-0.5 -0.671875 -1.6875 -0.671875q-0.96875 0 -1.890625 0.90625q-0.921875 0.90625 -0.921875 1.859375l0 5.296875q0 0.296875 -0.21875 0.5zm11.3532715 -0.015625q-0.21875 0.21875 -0.53125 0.21875q-0.3125 0 -0.53125 -0.21875q-0.21875 -0.234375 -0.21875 -0.53125l0 -8.203125q0 -0.296875 0.21875 -0.515625q0.21875 -0.234375 0.53125 -0.234375q0.3125 0 0.53125 0.234375q0.21875 0.21875 0.21875 0.515625l0 8.203125q0 0.296875 -0.21875 0.53125zm0 -11.984375q-0.21875 0.203125 -0.53125 0.203125q-0.3125 0 -0.53125 -0.203125q-0.21875 -0.21875 -0.21875 -0.546875l0 -0.5q0 -0.296875 0.21875 -0.515625q0.21875 -0.234375 0.53125 -0.234375q0.3125 0 0.53125 0.234375q0.21875 0.21875 0.21875 0.515625l0 0.5q0 0.328125 -0.21875 0.546875zm3.8615723 4.0q-0.25 0 -0.40625 -0.15625q-0.15625 -0.171875 -0.15625 -0.40625q0 -0.25 0.15625 -0.40625q0.15625 -0.15625 0.40625 -0.15625l1.359375 0q0.15625 0 0.15625 -0.171875l0 -2.65625q0 -0.3125 0.203125 -0.515625q0.21875 -0.203125 0.515625 -0.203125q0.296875 0 0.5 0.203125q0.203125 0.203125 0.203125 0.515625l0 2.65625q0 0.171875 0.171875 0.171875l2.796875 0q0.25 0 0.40625 0.15625q0.15625 0.15625 0.15625 0.40625q0 0.234375 -0.15625 0.40625q-0.15625 0.15625 -0.40625 0.15625l-2.796875 0q-0.171875 0 -0.171875 0.15625l0 4.9375q0 1.34375 0.359375 1.765625q0.359375 0.40625 1.359375 0.40625q0.59375 0 0.984375 -0.09375q0.203125 -0.03125 0.375 0.09375q0.1875 0.109375 0.1875 0.328125q0 0.25 -0.15625 0.46875q-0.15625 0.203125 -0.40625 0.234375q-0.484375 0.09375 -1.234375 0.09375q-1.640625 0 -2.265625 -0.671875q-0.625 -0.6875 -0.625 -2.5l0 -5.0625q0 -0.15625 -0.15625 -0.15625l-1.359375 0z" fill-rule="nonzero"/><path fill="#000000" fill-opacity="0.0" d="m405.45758 174.88933l0 0c0 -3.7323914 3.0256958 -6.758087 6.758087 -6.758087l91.74368 0c1.7923584 0 3.5112915 0.7120056 4.7786865 1.9793854c1.267395 1.267395 1.9794006 2.9863434 1.9794006 4.778702l0 56.342087c0 3.7323914 -3.0256958 6.758087 -6.758087 6.758087l-91.74368 0l0 0c-3.7323914 0 -6.758087 -3.0256958 -6.758087 -6.758087z" fill-rule="evenodd"/><path stroke="#434343" stroke-width="2.0" stroke-linejoin="round" stroke-linecap="butt" d="m405.45758 174.88933l0 0c0 -3.7323914 3.0256958 -6.758087 6.758087 -6.758087l91.74368 0c1.7923584 0 3.5112915 0.7120056 4.7786865 1.9793854c1.267395 1.267395 1.9794006 2.9863434 1.9794006 4.778702l0 56.342087c0 3.7323914 -3.0256958 6.758087 -6.758087 6.758087l-91.74368 0l0 0c-3.7323914 0 -6.758087 -3.0256958 -6.758087 -6.758087z" fill-rule="evenodd"/><path fill="#434343" d="m444.85074 197.73036l0 5.484375q0 0.140625 0.171875 0.1875q0.890625 0.125 2.015625 0.125q1.84375 0 2.8125 -0.796875q0.984375 -0.8125 0.984375 -2.296875q0 -1.5 -0.96875 -2.265625q-0.953125 -0.78125 -2.828125 -0.78125q-1.015625 0 -2.015625 0.15625q-0.171875 0.03125 -0.171875 0.1875zm-0.21875 12.03125q-0.203125 0.21875 -0.53125 0.21875q-0.3125 0 -0.53125 -0.21875q-0.21875 -0.234375 -0.21875 -0.53125l0 -11.71875q0 -0.4375 0.296875 -0.78125q0.3125 -0.34375 0.75 -0.40625q1.4375 -0.15625 2.75 -0.15625q2.53125 0 3.84375 1.078125q1.328125 1.078125 1.328125 3.078125q0 2.15625 -1.328125 3.28125q-1.328125 1.109375 -3.84375 1.109375q-1.015625 0 -2.125 -0.09375q-0.171875 0 -0.171875 0.140625l0 4.46875q0 0.296875 -0.21875 0.53125zm9.756256 0.046875q-0.296875 -0.09375 -0.484375 -0.328125q-0.1875 -0.25 -0.1875 -0.5625q0 -0.25 0.203125 -0.390625q0.203125 -0.15625 0.453125 -0.0625q1.28125 0.453125 2.640625 0.453125q1.46875 0 2.15625 -0.875q0.703125 -0.875 0.703125 -2.90625l0 -7.984375q0 -0.328125 0.234375 -0.5625q0.234375 -0.234375 0.546875 -0.234375q0.3125 0 0.546875 0.234375q0.234375 0.234375 0.234375 0.5625l0 8.34375q0 2.4375 -1.078125 3.5625q-1.078125 1.109375 -3.34375 1.109375q-1.328125 0 -2.625 -0.359375zm17.228516 -12.609375q1.109375 1.015625 1.109375 2.84375q0 1.828125 -1.328125 3.703125q-1.328125 1.875 -4.9375 4.953125q-0.03125 0 -0.03125 0.015625q0 0.015625 0.03125 0.015625l5.703125 0q0.25 0 0.421875 0.1875q0.1875 0.1875 0.1875 0.453125q0 0.234375 -0.171875 0.421875q-0.171875 0.1875 -0.4375 0.1875l-7.140625 0q-0.265625 0 -0.453125 -0.1875q-0.1875 -0.1875 -0.1875 -0.421875q0 -0.640625 0.484375 -1.03125q3.671875 -3.078125 5.0 -4.84375q1.328125 -1.765625 1.328125 -3.34375q0 -1.328125 -0.734375 -2.015625q-0.71875 -0.6875 -2.125 -0.6875q-1.421875 0 -3.015625 0.734375q-0.234375 0.09375 -0.453125 -0.015625q-0.203125 -0.125 -0.203125 -0.375q0 -0.734375 0.671875 -1.015625q1.515625 -0.609375 3.1875 -0.609375q2.0 0 3.09375 1.03125z" fill-rule="nonzero"/><path fill="#000000" fill-opacity="0.0" d="m181.68996 246.74002l0 0c0 -1.8089905 1.4664612 -3.2754517 3.2754364 -3.2754517l322.45697 0c0.8687134 0 1.7018433 0.34509277 2.316101 0.9593506c0.6142578 0.6142731 0.9593506 1.4473877 0.9593506 2.316101l0 27.307373c0 1.80896 -1.4664612 3.2754517 -3.2754517 3.2754517l-322.45697 0c-1.8089752 0 -3.2754364 -1.4664917 -3.2754364 -3.2754517z" fill-rule="evenodd"/><path stroke="#434343" stroke-width="2.0" stroke-linejoin="round" stroke-linecap="butt" d="m181.68996 246.74002l0 0c0 -1.8089905 1.4664612 -3.2754517 3.2754364 -3.2754517l322.45697 0c0.8687134 0 1.7018433 0.34509277 2.316101 0.9593506c0.6142578 0.6142731 0.9593506 1.4473877 0.9593506 2.316101l0 27.307373c0 1.80896 -1.4664612 3.2754517 -3.2754517 3.2754517l-322.45697 0c-1.8089752 0 -3.2754364 -1.4664917 -3.2754364 -3.2754517z" fill-rule="evenodd"/><path fill="#434343" d="m333.3344 267.1418q-0.296875 -0.09375 -0.484375 -0.328125q-0.1875 -0.25 -0.1875 -0.5625q0 -0.25 0.203125 -0.390625q0.203125 -0.15625 0.453125 -0.0625q1.28125 0.453125 2.640625 0.453125q1.46875 0 2.15625 -0.875q0.703125 -0.875 0.703125 -2.90625l0 -7.9843597q0 -0.328125 0.234375 -0.5625q0.234375 -0.234375 0.546875 -0.234375q0.3125 0 0.546875 0.234375q0.234375 0.234375 0.234375 0.5625l0 8.343735q0 2.4375 -1.078125 3.5625q-1.078125 1.109375 -3.34375 1.109375q-1.328125 0 -2.625 -0.359375zm11.275391 -0.03125q-0.21875 0.203125 -0.515625 0.203125q-0.296875 0 -0.515625 -0.203125q-0.21875 -0.203125 -0.21875 -0.53125l0 -12.124985q0 -0.3125 0.21875 -0.53125q0.234375 -0.234375 0.546875 -0.234375q0.765625 0 1.15625 0.671875l6.203125 10.51561q0 0.015625 0.03125 0.015625q0.015625 0 0.015625 -0.015625l0 -10.45311q0 -0.3125 0.21875 -0.515625q0.21875 -0.21875 0.515625 -0.21875q0.296875 0 0.515625 0.21875q0.21875 0.203125 0.21875 0.515625l0 12.124985q0 0.3125 -0.234375 0.546875q-0.21875 0.21875 -0.53125 0.21875q-0.765625 0 -1.15625 -0.671875l-6.203125 -10.5q0 -0.015625 -0.03125 -0.015625q-0.015625 0 -0.015625 0.015625l0 10.4375q0 0.328125 -0.21875 0.53125zm13.485687 -0.03125q-0.234375 0.234375 -0.578125 0.234375q-0.328125 0 -0.5625 -0.234375q-0.234375 -0.234375 -0.234375 -0.5625l0 -12.01561q0 -0.34375 0.234375 -0.578125q0.234375 -0.234375 0.5625 -0.234375q0.34375 0 0.578125 0.234375q0.234375 0.234375 0.234375 0.578125l0 12.01561q0 0.328125 -0.234375 0.5625z" fill-rule="nonzero"/><path fill="#000000" fill-opacity="0.0" d="m181.68996 287.93503l0 0c0 -2.8371582 2.2999573 -5.1371155 5.1371155 -5.1371155l94.98561 0c1.3624268 0 2.669098 0.54122925 3.6324768 1.5046082c0.9634094 0.9634094 1.5046387 2.27005 1.5046387 3.6325073l0 42.828125c0 2.8371277 -2.2999878 5.1371155 -5.1371155 5.1371155l-94.98561 0c-2.8371582 0 -5.1371155 -2.2999878 -5.1371155 -5.1371155z" fill-rule="evenodd"/><path stroke="#434343" stroke-width="2.0" stroke-linejoin="round" stroke-linecap="butt" d="m181.68996 287.93503l0 0c0 -2.8371582 2.2999573 -5.1371155 5.1371155 -5.1371155l94.98561 0c1.3624268 0 2.669098 0.54122925 3.6324768 1.5046082c0.9634094 0.9634094 1.5046387 2.27005 1.5046387 3.6325073l0 42.828125c0 2.8371277 -2.2999878 5.1371155 -5.1371155 5.1371155l-94.98561 0c-2.8371582 0 -5.1371155 -2.2999878 -5.1371155 -5.1371155z" fill-rule="evenodd"/><path fill="#434343" d="m223.35226 305.45657q-2.671875 0 -4.296875 -1.828125q-1.625 -1.84375 -1.625 -5.171875q0 -3.296875 1.546875 -5.140625q1.5625 -1.859375 4.328125 -1.859375q1.453125 0 2.59375 0.28125q0.28125 0.078125 0.453125 0.328125q0.171875 0.234375 0.171875 0.53125q0 0.25 -0.203125 0.390625q-0.1875 0.140625 -0.421875 0.0625q-1.109375 -0.34375 -2.46875 -0.34375q-2.109375 0 -3.3125 1.515625q-1.1875 1.515625 -1.1875 4.234375q0 2.703125 1.234375 4.234375q1.25 1.515625 3.328125 1.515625q1.375 0 2.5 -0.34375q0.234375 -0.0625 0.421875 0.078125q0.203125 0.140625 0.203125 0.375q0 0.296875 -0.171875 0.53125q-0.171875 0.234375 -0.453125 0.3125q-1.25 0.296875 -2.640625 0.296875zm10.748779 -12.4375l-2.265625 6.9375q-0.015625 0.046875 0.015625 0.09375q0.03125 0.046875 0.09375 0.046875l4.390625 0q0.046875 0 0.078125 -0.046875q0.03125 -0.046875 0.03125 -0.09375l-2.28125 -6.9375q0 -0.03125 -0.015625 -0.03125q-0.046875 0 -0.046875 0.03125zm-4.78125 12.25q-0.28125 0 -0.453125 -0.234375q-0.171875 -0.234375 -0.078125 -0.5l4.25 -12.09375q0.140625 -0.359375 0.4375 -0.578125q0.3125 -0.21875 0.6875 -0.21875q0.375 0 0.671875 0.21875q0.3125 0.21875 0.453125 0.578125l4.234375 12.078125q0.09375 0.28125 -0.078125 0.515625q-0.171875 0.234375 -0.453125 0.234375q-0.375 0 -0.671875 -0.203125q-0.28125 -0.21875 -0.390625 -0.5625l-0.984375 -3.0625q-0.0625 -0.140625 -0.21875 -0.140625l-5.171875 0q-0.15625 0 -0.203125 0.140625l-1.03125 3.09375q-0.109375 0.34375 -0.390625 0.546875q-0.265625 0.1875 -0.609375 0.1875zm16.70259 -12.25l-2.265625 6.9375q-0.015625 0.046875 0.015625 0.09375q0.03125 0.046875 0.09375 0.046875l4.390625 0q0.046875 0 0.078125 -0.046875q0.03125 -0.046875 0.03125 -0.09375l-2.28125 -6.9375q0 -0.03125 -0.015625 -0.03125q-0.046875 0 -0.046875 0.03125zm-4.78125 12.25q-0.28125 0 -0.453125 -0.234375q-0.171875 -0.234375 -0.078125 -0.5l4.25 -12.09375q0.140625 -0.359375 0.4375 -0.578125q0.3125 -0.21875 0.6875 -0.21875q0.375 0 0.671875 0.21875q0.3125 0.21875 0.453125 0.578125l4.234375 12.078125q0.09375 0.28125 -0.078125 0.515625q-0.171875 0.234375 -0.453125 0.234375q-0.375 0 -0.671875 -0.203125q-0.28125 -0.21875 -0.390625 -0.5625l-0.984375 -3.0625q-0.0625 -0.140625 -0.21875 -0.140625l-5.171875 0q-0.15625 0 -0.203125 0.140625l-1.03125 3.09375q-0.109375 0.34375 -0.390625 0.546875q-0.265625 0.1875 -0.609375 0.1875z" fill-rule="nonzero"/><path fill="#434343" d="m213.77644 329.87845q-0.75 0 -1.21875 -0.5q-3.109375 -3.265625 -3.109375 -7.984375q0 -4.71875 3.109375 -7.984375q0.46875 -0.5 1.21875 -0.5q0.1875 0 0.265625 0.1875q0.078125 0.171875 -0.0625 0.328125q-3.09375 3.265625 -3.09375 7.96875q0 4.703125 3.09375 7.96875q0.125 0.140625 0.046875 0.328125q-0.0625 0.1875 -0.25 0.1875zm7.803467 -2.421875q-2.671875 0 -4.296875 -1.828125q-1.625 -1.84375 -1.625 -5.171875q0 -3.296875 1.546875 -5.140625q1.5625 -1.859375 4.328125 -1.859375q1.453125 0 2.59375 0.28125q0.28125 0.078125 0.453125 0.328125q0.171875 0.234375 0.171875 0.53125q0 0.25 -0.203125 0.390625q-0.1875 0.140625 -0.421875 0.0625q-1.109375 -0.34375 -2.46875 -0.34375q-2.109375 0 -3.3125 1.515625q-1.1875 1.515625 -1.1875 4.234375q0 2.703125 1.234375 4.234375q1.25 1.515625 3.328125 1.515625q1.375 0 2.5 -0.34375q0.234375 -0.0625 0.421875 0.078125q0.203125 0.140625 0.203125 0.375q0 0.296875 -0.171875 0.53125q-0.171875 0.234375 -0.453125 0.3125q-1.25 0.296875 -2.640625 0.296875zm6.8581543 -5.0q-0.25 0 -0.421875 -0.171875q-0.171875 -0.1875 -0.171875 -0.421875q0 -0.25 0.171875 -0.421875q0.171875 -0.171875 0.421875 -0.171875l3.96875 0q0.171875 0 0.171875 -0.15625l0 -4.046875q0 -0.25 0.1875 -0.4375q0.1875 -0.1875 0.421875 -0.1875q0.25 0 0.4375 0.1875q0.1875 0.1875 0.1875 0.4375l0 4.046875q0 0.15625 0.15625 0.15625l3.984375 0q0.234375 0 0.40625 0.171875q0.1875 0.171875 0.1875 0.421875q0 0.234375 -0.1875 0.421875q-0.171875 0.171875 -0.40625 0.171875l-3.984375 0q-0.15625 0 -0.15625 0.140625l0 4.0625q0 0.234375 -0.1875 0.421875q-0.1875 0.1875 -0.4375 0.1875q-0.234375 0 -0.421875 -0.1875q-0.1875 -0.1875 -0.1875 -0.421875l0 -4.0625q0 -0.140625 -0.171875 -0.140625l-3.96875 0zm13.693695 0q-0.25 0 -0.421875 -0.171875q-0.171875 -0.1875 -0.171875 -0.421875q0 -0.25 0.171875 -0.421875q0.171875 -0.171875 0.421875 -0.171875l3.96875 0q0.171875 0 0.171875 -0.15625l0 -4.046875q0 -0.25 0.1875 -0.4375q0.1875 -0.1875 0.421875 -0.1875q0.25 0 0.4375 0.1875q0.1875 0.1875 0.1875 0.4375l0 4.046875q0 0.15625 0.15625 0.15625l3.984375 0q0.234375 0 0.40625 0.171875q0.1875 0.171875 0.1875 0.421875q0 0.234375 -0.1875 0.421875q-0.171875 0.171875 -0.40625 0.171875l-3.984375 0q-0.15625 0 -0.15625 0.140625l0 4.0625q0 0.234375 -0.1875 0.421875q-0.1875 0.1875 -0.4375 0.1875q-0.234375 0 -0.421875 -0.1875q-0.1875 -0.1875 -0.1875 -0.421875l0 -4.0625q0 -0.140625 -0.171875 -0.140625l-3.96875 0zm12.818695 7.421875q-0.203125 0 -0.28125 -0.1875q-0.078125 -0.1875 0.078125 -0.328125q3.0937347 -3.265625 3.0937347 -7.96875q0 -4.703125 -3.0937347 -7.96875q-0.140625 -0.15625 -0.0625 -0.328125q0.078125 -0.1875 0.265625 -0.1875q0.71875 0 1.2031097 0.5q1.515625 1.578125 2.3125 3.625q0.8125 2.046875 0.8125 4.359375q0 2.3125 -0.8125 4.359375q-0.796875 2.03125 -2.3125 3.625q-0.48435974 0.5 -1.2031097 0.5z" fill-rule="nonzero"/><path fill="#000000" fill-opacity="0.0" d="m181.68996 346.51245l0 0c0 -2.8371582 2.2999573 -5.1371155 5.1371155 -5.1371155l94.98561 0c1.3624268 0 2.669098 0.54122925 3.6324768 1.5046082c0.9634094 0.9634094 1.5046387 2.27005 1.5046387 3.6325073l0 42.828125c0 2.8371582 -2.2999878 5.1371155 -5.1371155 5.1371155l-94.98561 0c-2.8371582 0 -5.1371155 -2.2999573 -5.1371155 -5.1371155z" fill-rule="evenodd"/><path stroke="#434343" stroke-width="2.0" stroke-linejoin="round" stroke-linecap="butt" d="m181.68996 346.51245l0 0c0 -2.8371582 2.2999573 -5.1371155 5.1371155 -5.1371155l94.98561 0c1.3624268 0 2.669098 0.54122925 3.6324768 1.5046082c0.9634094 0.9634094 1.5046387 2.27005 1.5046387 3.6325073l0 42.828125c0 2.8371582 -2.2999878 5.1371155 -5.1371155 5.1371155l-94.98561 0c-2.8371582 0 -5.1371155 -2.2999573 -5.1371155 -5.1371155z" fill-rule="evenodd"/><path fill="#434343" d="m221.53606 362.5965l-2.265625 6.9375q-0.015625 0.046875 0.015625 0.09375q0.03125 0.046875 0.09375 0.046875l4.390625 0q0.046875 0 0.078125 -0.046875q0.03125 -0.046875 0.03125 -0.09375l-2.28125 -6.9375q0 -0.03125 -0.015625 -0.03125q-0.046875 0 -0.046875 0.03125zm-4.78125 12.25q-0.28125 0 -0.453125 -0.234375q-0.171875 -0.234375 -0.078125 -0.5l4.25 -12.09375q0.140625 -0.359375 0.4375 -0.578125q0.3125 -0.21875 0.6875 -0.21875q0.375 0 0.671875 0.21875q0.3125 0.21875 0.453125 0.578125l4.234375 12.078125q0.09375 0.28125 -0.078125 0.515625q-0.171875 0.234375 -0.453125 0.234375q-0.375 0 -0.671875 -0.203125q-0.28125 -0.21875 -0.390625 -0.5625l-0.984375 -3.0625q-0.0625 -0.140625 -0.21875 -0.140625l-5.171875 0q-0.15625 0 -0.203125 0.140625l-1.03125 3.09375q-0.109375 0.34375 -0.390625 0.546875q-0.265625 0.1875 -0.609375 0.1875zm16.70259 -12.25l-2.265625 6.9375q-0.015625 0.046875 0.015625 0.09375q0.03125 0.046875 0.09375 0.046875l4.390625 0q0.046875 0 0.078125 -0.046875q0.03125 -0.046875 0.03125 -0.09375l-2.28125 -6.9375q0 -0.03125 -0.015625 -0.03125q-0.046875 0 -0.046875 0.03125zm-4.78125 12.25q-0.28125 0 -0.453125 -0.234375q-0.171875 -0.234375 -0.078125 -0.5l4.25 -12.09375q0.140625 -0.359375 0.4375 -0.578125q0.3125 -0.21875 0.6875 -0.21875q0.375 0 0.671875 0.21875q0.3125 0.21875 0.453125 0.578125l4.234375 12.078125q0.09375 0.28125 -0.078125 0.515625q-0.171875 0.234375 -0.453125 0.234375q-0.375 0 -0.671875 -0.203125q-0.28125 -0.21875 -0.390625 -0.5625l-0.984375 -3.0625q-0.0625 -0.140625 -0.21875 -0.140625l-5.171875 0q-0.15625 0 -0.203125 0.140625l-1.03125 3.09375q-0.109375 0.34375 -0.390625 0.546875q-0.265625 0.1875 -0.609375 0.1875zm12.811966 -4.8125q-0.25 0 -0.421875 -0.171875q-0.171875 -0.1875 -0.171875 -0.421875q0 -0.25 0.171875 -0.421875q0.171875 -0.171875 0.421875 -0.171875l3.96875 0q0.171875 0 0.171875 -0.15625l0 -4.046875q0 -0.25 0.1875 -0.4375q0.1875 -0.1875 0.421875 -0.1875q0.25 0 0.4375 0.1875q0.1875 0.1875 0.1875 0.4375l0 4.046875q0 0.15625 0.15625 0.15625l3.984375 0q0.234375 0 0.40625 0.171875q0.1875 0.171875 0.1875 0.421875q0 0.234375 -0.1875 0.421875q-0.171875 0.171875 -0.40625 0.171875l-3.984375 0q-0.15625 0 -0.15625 0.140625l0 4.0625q0 0.234375 -0.1875 0.421875q-0.1875 0.1875 -0.4375 0.1875q-0.234375 0 -0.421875 -0.1875q-0.1875 -0.1875 -0.1875 -0.421875l0 -4.0625q0 -0.140625 -0.171875 -0.140625l-3.96875 0z" fill-rule="nonzero"/><path fill="#000000" fill-opacity="0.0" d="m293.5745 293.60233l0 0c0 -5.9671326 4.837311 -10.804413 10.804413 -10.804413l195.55652 0c2.865509 0 5.613678 1.1383057 7.6398926 3.1645203c2.0262146 2.0262146 3.1645203 4.7743835 3.1645203 7.6398926l0 90.0762c0 5.967102 -4.8372803 10.804413 -10.804413 10.804413l-195.55652 0c-5.967102 0 -10.804413 -4.837311 -10.804413 -10.804413z" fill-rule="evenodd"/><path stroke="#434343" stroke-width="2.0" stroke-linejoin="round" stroke-linecap="butt" d="m293.5745 293.60233l0 0c0 -5.9671326 4.837311 -10.804413 10.804413 -10.804413l195.55652 0c2.865509 0 5.613678 1.1383057 7.6398926 3.1645203c2.0262146 2.0262146 3.1645203 4.7743835 3.1645203 7.6398926l0 90.0762c0 5.967102 -4.8372803 10.804413 -10.804413 10.804413l-195.55652 0c-5.967102 0 -10.804413 -4.837311 -10.804413 -10.804413z" fill-rule="evenodd"/><path fill="#434343" d="m352.2374 334.74792q-2.796875 0 -4.578125 -1.890625q-1.765625 -1.890625 -1.765625 -5.109375q0 -3.25 1.78125 -5.125q1.796875 -1.875 4.875 -1.875q1.46875 0 2.671875 0.28125q0.28125 0.0625 0.453125 0.296875q0.171875 0.234375 0.171875 0.515625q0 0.234375 -0.203125 0.390625q-0.203125 0.140625 -0.4375 0.078125q-1.21875 -0.34375 -2.53125 -0.34375q-2.46875 0 -3.859375 1.53125q-1.390625 1.515625 -1.390625 4.25q0 2.671875 1.34375 4.234375q1.359375 1.546875 3.59375 1.546875q1.359375 0 2.515625 -0.390625q0.15625 -0.046875 0.15625 -0.21875l0 -4.921875q0 -0.171875 -0.15625 -0.171875l-3.65625 0q-0.25 0 -0.421875 -0.171875q-0.171875 -0.1875 -0.171875 -0.421875q0 -0.25 0.171875 -0.421875q0.171875 -0.171875 0.421875 -0.171875l4.1875 0q0.421875 0 0.734375 0.3125q0.328125 0.3125 0.328125 0.75l0 5.15625q0 0.484375 -0.28125 0.890625q-0.265625 0.40625 -0.71875 0.546875q-1.40625 0.453125 -3.234375 0.453125zm8.801239 -12.4375l0 5.484375q0 0.140625 0.171875 0.1875q0.890625 0.125 2.015625 0.125q1.84375 0 2.8125 -0.796875q0.984375 -0.8125 0.984375 -2.296875q0 -1.5 -0.96875 -2.265625q-0.953125 -0.78125 -2.828125 -0.78125q-1.015625 0 -2.015625 0.15625q-0.171875 0.03125 -0.171875 0.1875zm-0.21875 12.03125q-0.203125 0.21875 -0.53125 0.21875q-0.3125 0 -0.53125 -0.21875q-0.21875 -0.234375 -0.21875 -0.53125l0 -11.71875q0 -0.4375 0.296875 -0.78125q0.3125 -0.34375 0.75 -0.40625q1.4375 -0.15625 2.75 -0.15625q2.53125 0 3.84375 1.078125q1.328125 1.078125 1.328125 3.078125q0 2.15625 -1.328125 3.28125q-1.328125 1.109375 -3.84375 1.109375q-1.015625 0 -2.125 -0.09375q-0.171875 0 -0.171875 0.140625l0 4.46875q0 0.296875 -0.21875 0.53125zm17.959381 -0.8125q-1.21875 1.21875 -3.515625 1.21875q-2.28125 0 -3.5 -1.21875q-1.203125 -1.21875 -1.203125 -3.640625l0 -8.1875q0 -0.3125 0.21875 -0.53125q0.21875 -0.234375 0.515625 -0.234375q0.328125 0 0.546875 0.234375q0.21875 0.21875 0.21875 0.53125l0 8.25q0 1.8125 0.796875 2.671875q0.796875 0.859375 2.4375 0.859375q1.640625 0 2.4375 -0.859375q0.8125 -0.859375 0.8125 -2.671875l0 -8.28125q0 -0.3125 0.203125 -0.515625q0.21875 -0.21875 0.515625 -0.21875q0.296875 0 0.515625 0.21875q0.21875 0.203125 0.21875 0.515625l0 8.21875q0 2.421875 -1.21875 3.640625zm13.291321 3.640625q-0.75 0 -1.21875 -0.5q-3.109375 -3.265625 -3.109375 -7.984375q0 -4.71875 3.109375 -7.984375q0.46875 -0.5 1.21875 -0.5q0.1875 0 0.265625 0.1875q0.078125 0.171875 -0.0625 0.328125q-3.09375 3.265625 -3.09375 7.96875q0 4.703125 3.09375 7.96875q0.125 0.140625 0.046875 0.328125q-0.0625 0.1875 -0.25 0.1875zm7.803467 -2.421875q-2.671875 0 -4.296875 -1.828125q-1.625 -1.84375 -1.625 -5.171875q0 -3.296875 1.546875 -5.140625q1.5625 -1.859375 4.328125 -1.859375q1.453125 0 2.59375 0.28125q0.28125 0.078125 0.453125 0.328125q0.171875 0.234375 0.171875 0.53125q0 0.25 -0.203125 0.390625q-0.1875 0.140625 -0.421875 0.0625q-1.109375 -0.34375 -2.46875 -0.34375q-2.109375 0 -3.3125 1.515625q-1.1875 1.515625 -1.1875 4.234375q0 2.703125 1.234375 4.234375q1.25 1.515625 3.328125 1.515625q1.375 0 2.5 -0.34375q0.234375 -0.0625 0.421875 0.078125q0.203125 0.140625 0.203125 0.375q0 0.296875 -0.171875 0.53125q-0.171875 0.234375 -0.453125 0.3125q-1.25 0.296875 -2.640625 0.296875zm5.9831543 0.5625q-0.265625 0 -0.40625 -0.21875q-0.125 -0.203125 -0.03125 -0.4375l5.84375 -13.0625q0.140625 -0.296875 0.40625 -0.46875q0.28125 -0.1875 0.59375 -0.1875q0.265625 0 0.390625 0.21875q0.140625 0.203125 0.046875 0.4375l-5.84375 13.0625q-0.140625 0.296875 -0.421875 0.46875q-0.265625 0.1875 -0.578125 0.1875zm14.389465 -0.5625q-2.671875 0 -4.296875 -1.828125q-1.625 -1.84375 -1.625 -5.171875q0 -3.296875 1.546875 -5.140625q1.5625 -1.859375 4.328125 -1.859375q1.453125 0 2.59375 0.28125q0.28125 0.078125 0.453125 0.328125q0.171875 0.234375 0.171875 0.53125q0 0.25 -0.203125 0.390625q-0.1875 0.140625 -0.421875 0.0625q-1.109375 -0.34375 -2.46875 -0.34375q-2.109375 0 -3.3125 1.515625q-1.1875 1.515625 -1.1875 4.234375q0 2.703125 1.234375 4.234375q1.25 1.515625 3.328125 1.515625q1.375 0 2.5 -0.34375q0.234375 -0.0625 0.421875 0.078125q0.203125 0.140625 0.203125 0.375q0 0.296875 -0.171875 0.53125q-0.171875 0.234375 -0.453125 0.3125q-1.25 0.296875 -2.640625 0.296875zm6.8581543 -5.0q-0.25 0 -0.421875 -0.171875q-0.171875 -0.1875 -0.171875 -0.421875q0 -0.25 0.171875 -0.421875q0.171875 -0.171875 0.421875 -0.171875l3.96875 0q0.171875 0 0.171875 -0.15625l0 -4.046875q0 -0.25 0.1875 -0.4375q0.1875 -0.1875 0.421875 -0.1875q0.25 0 0.4375 0.1875q0.1875 0.1875 0.1875 0.4375l0 4.046875q0 0.15625 0.15625 0.15625l3.984375 0q0.234375 0 0.40625 0.171875q0.1875 0.171875 0.1875 0.421875q0 0.234375 -0.1875 0.421875q-0.171875 0.171875 -0.40625 0.171875l-3.984375 0q-0.15625 0 -0.15625 0.140625l0 4.0625q0 0.234375 -0.1875 0.421875q-0.1875 0.1875 -0.4375 0.1875q-0.234375 0 -0.421875 -0.1875q-0.1875 -0.1875 -0.1875 -0.421875l0 -4.0625q0 -0.140625 -0.171875 -0.140625l-3.96875 0zm13.693695 0q-0.25 0 -0.421875 -0.171875q-0.171875 -0.1875 -0.171875 -0.421875q0 -0.25 0.171875 -0.421875q0.171875 -0.171875 0.421875 -0.171875l3.96875 0q0.171875 0 0.171875 -0.15625l0 -4.046875q0 -0.25 0.1875 -0.4375q0.1875 -0.1875 0.421875 -0.1875q0.25 0 0.4375 0.1875q0.1875 0.1875 0.1875 0.4375l0 4.046875q0 0.15625 0.15625 0.15625l3.984375 0q0.234375 0 0.40625 0.171875q0.1875 0.171875 0.1875 0.421875q0 0.234375 -0.1875 0.421875q-0.171875 0.171875 -0.40625 0.171875l-3.984375 0q-0.15625 0 -0.15625 0.140625l0 4.0625q0 0.234375 -0.1875 0.421875q-0.1875 0.1875 -0.4375 0.1875q-0.234375 0 -0.421875 -0.1875q-0.1875 -0.1875 -0.1875 -0.421875l0 -4.0625q0 -0.140625 -0.171875 -0.140625l-3.96875 0zm12.818695 7.421875q-0.203125 0 -0.28125 -0.1875q-0.078125 -0.1875 0.078125 -0.328125q3.09375 -3.265625 3.09375 -7.96875q0 -4.703125 -3.09375 -7.96875q-0.140625 -0.15625 -0.0625 -0.328125q0.078125 -0.1875 0.265625 -0.1875q0.71875 0 1.203125 0.5q1.515625 1.578125 2.3125 3.625q0.8125 2.046875 0.8125 4.359375q0 2.3125 -0.8125 4.359375q-0.796875 2.03125 -2.3125 3.625q-0.484375 0.5 -1.203125 0.5z" fill-rule="nonzero"/><path fill="#434343" d="m355.41815 359.1698q-0.75 0 -1.21875 -0.5q-3.109375 -3.265625 -3.109375 -7.984375q0 -4.71875 3.109375 -7.984375q0.46875 -0.5 1.21875 -0.5q0.1875 0 0.265625 0.1875q0.078125 0.171875 -0.0625 0.328125q-3.09375 3.265625 -3.09375 7.96875q0 4.703125 3.09375 7.96875q0.125 0.140625 0.046875 0.328125q-0.0625 0.1875 -0.25 0.1875z" fill-rule="nonzero"/><path fill="#434343" d="m367.42474 361.76355l-10.359375 0q-0.28125 0 -0.40625 -0.109375q-0.109375 -0.109375 -0.109375 -0.28125q0 -0.171875 0.109375 -0.28125q0.125 -0.109375 0.40625 -0.109375l10.359375 0q0.296875 0 0.40625 0.109375q0.125 0.109375 0.125 0.28125q0 0.171875 -0.125 0.28125q-0.109375 0.109375 -0.40625 0.109375zm11.401855 0l-10.359375 0q-0.28125 0 -0.40625 -0.109375q-0.109375 -0.109375 -0.109375 -0.28125q0 -0.171875 0.109375 -0.28125q0.125 -0.109375 0.40625 -0.109375l10.359375 0q0.296875 0 0.40625 0.109375q0.125 0.109375 0.125 0.28125q0 0.171875 -0.125 0.28125q-0.109375 0.109375 -0.40625 0.109375zm3.6674805 -16.84375l0 4.796875q0.734375 -0.8125 1.40625 -1.140625q0.6875 -0.328125 1.546875 -0.328125q0.90625 0 1.53125 0.328125q0.640625 0.3125 1.0625 0.984375q0.4375 0.65625 0.4375 1.390625l0 4.828125l0.859375 0q0.296875 0 0.40625 0.109375q0.125 0.109375 0.125 0.28125q0 0.171875 -0.125 0.28125q-0.109375 0.109375 -0.40625 0.109375l-2.53125 0q-0.28125 0 -0.40625 -0.109375q-0.109375 -0.109375 -0.109375 -0.28125q0 -0.171875 0.109375 -0.28125q0.125 -0.109375 0.40625 -0.109375l0.875 0l0 -4.78125q0 -0.84375 -0.609375 -1.40625q-0.609375 -0.5625 -1.6875 -0.5625q-0.859375 0 -1.453125 0.421875q-0.4375 0.296875 -1.4375 1.390625l0 4.9375l0.875 0q0.28125 0 0.390625 0.109375q0.125 0.109375 0.125 0.28125q0 0.171875 -0.125 0.28125q-0.109375 0.109375 -0.390625 0.109375l-2.546875 0q-0.265625 0 -0.390625 -0.109375q-0.125 -0.109375 -0.125 -0.28125q0 -0.171875 0.125 -0.28125q0.125 -0.109375 0.390625 -0.109375l0.890625 0l0 -10.078125l-1.046875 0q-0.28125 0 -0.40625 -0.109375q-0.125 -0.109375 -0.125 -0.28125q0 -0.171875 0.125 -0.28125q0.125 -0.109375 0.40625 -0.109375l1.828125 0zm18.32373 7.640625q0 1.78125 -1.28125 3.046875q-1.28125 1.265625 -3.078125 1.265625q-1.8125 0 -3.09375 -1.265625q-1.265625 -1.28125 -1.265625 -3.046875q0 -1.78125 1.265625 -3.046875q1.28125 -1.265625 3.09375 -1.265625q1.796875 0 3.078125 1.265625q1.28125 1.25 1.28125 3.046875zm-0.796875 0q0 -1.46875 -1.046875 -2.5q-1.03125 -1.03125 -2.515625 -1.03125q-1.484375 0 -2.53125 1.046875q-1.046875 1.03125 -1.046875 2.484375q0 1.453125 1.046875 2.5q1.046875 1.03125 2.53125 1.03125q1.484375 0 2.515625 -1.03125q1.046875 -1.046875 1.046875 -2.5zm10.41748 -3.53125q0 -0.265625 0.109375 -0.375q0.109375 -0.125 0.28125 -0.125q0.171875 0 0.28125 0.125q0.109375 0.109375 0.109375 0.40625l0 1.328125q0 0.28125 -0.109375 0.40625q-0.109375 0.109375 -0.28125 0.109375q-0.171875 0 -0.28125 -0.09375q-0.09375 -0.109375 -0.109375 -0.34375q-0.0625 -0.546875 -0.578125 -0.90625q-0.765625 -0.53125 -2.015625 -0.53125q-1.3125 0 -2.03125 0.53125q-0.546875 0.40625 -0.546875 0.890625q0 0.5625 0.640625 0.9375q0.453125 0.25 1.703125 0.390625q1.609375 0.171875 2.25 0.40625q0.890625 0.328125 1.328125 0.90625q0.453125 0.5625 0.453125 1.234375q0 0.984375 -0.953125 1.765625q-0.953125 0.78125 -2.8125 0.78125q-1.84375 0 -3.015625 -0.9375q0 0.3125 -0.046875 0.40625q-0.03125 0.09375 -0.125 0.15625q-0.09375 0.0625 -0.21875 0.0625q-0.171875 0 -0.28125 -0.109375q-0.109375 -0.125 -0.109375 -0.40625l0 -1.609375q0 -0.28125 0.109375 -0.390625q0.109375 -0.125 0.28125 -0.125q0.171875 0 0.28125 0.125q0.109375 0.109375 0.109375 0.296875q0 0.421875 0.21875 0.71875q0.328125 0.4375 1.03125 0.734375q0.71875 0.296875 1.75 0.296875q1.515625 0 2.25 -0.5625q0.75 -0.578125 0.75 -1.203125q0 -0.71875 -0.75 -1.15625q-0.765625 -0.4375 -2.21875 -0.578125q-1.453125 -0.15625 -2.078125 -0.390625q-0.625 -0.25 -0.984375 -0.734375q-0.359375 -0.484375 -0.359375 -1.03125q0 -1.015625 0.984375 -1.59375q0.984375 -0.59375 2.359375 -0.59375q1.609375 0 2.625 0.78125zm7.2143555 -0.5l4.234375 0q0.28125 0 0.390625 0.109375q0.125 0.109375 0.125 0.28125q0 0.171875 -0.125 0.28125q-0.109375 0.109375 -0.390625 0.109375l-4.234375 0l0 5.1875q0 0.6875 0.546875 1.140625q0.546875 0.453125 1.59375 0.453125q0.78125 0 1.703125 -0.234375q0.921875 -0.25 1.4375 -0.546875q0.1875 -0.109375 0.296875 -0.109375q0.15625 0 0.265625 0.125q0.109375 0.109375 0.109375 0.265625q0 0.140625 -0.125 0.25q-0.296875 0.3125 -1.4375 0.671875q-1.140625 0.359375 -2.1875 0.359375q-1.375 0 -2.1875 -0.640625q-0.796875 -0.640625 -0.796875 -1.734375l0 -5.1875l-1.4375 0q-0.28125 0 -0.40625 -0.109375q-0.109375 -0.109375 -0.109375 -0.28125q0 -0.171875 0.109375 -0.28125q0.125 -0.109375 0.40625 -0.109375l1.4375 0l0 -2.296875q0 -0.28125 0.109375 -0.40625q0.109375 -0.125 0.28125 -0.125q0.171875 0 0.28125 0.125q0.109375 0.125 0.109375 0.40625l0 2.296875zm18.183105 13.234375l-10.359375 0q-0.28125 0 -0.40625 -0.109375q-0.109375 -0.109375 -0.109375 -0.28125q0 -0.171875 0.109375 -0.28125q0.125 -0.109375 0.40625 -0.109375l10.359375 0q0.296875 0 0.40625 0.109375q0.125 0.109375 0.125 0.28125q0 0.171875 -0.125 0.28125q-0.109375 0.109375 -0.40625 0.109375zm11.401855 0l-10.359375 0q-0.28125 0 -0.40625 -0.109375q-0.109375 -0.109375 -0.109375 -0.28125q0 -0.171875 0.109375 -0.28125q0.125 -0.109375 0.40625 -0.109375l10.359375 0q0.296875 0 0.40625 0.109375q0.125 0.109375 0.125 0.28125q0 0.171875 -0.125 0.28125q-0.109375 0.109375 -0.40625 0.109375z" fill-rule="nonzero"/><path fill="#434343" d="m448.98334 359.1698q-0.203125 0 -0.28125 -0.1875q-0.078125 -0.1875 0.078125 -0.328125q3.09375 -3.265625 3.09375 -7.96875q0 -4.703125 -3.09375 -7.96875q-0.140625 -0.15625 -0.0625 -0.328125q0.078125 -0.1875 0.265625 -0.1875q0.71875 0 1.203125 0.5q1.515625 1.578125 2.3125 3.625q0.8125 2.046875 0.8125 4.359375q0 2.3125 -0.8125 4.359375q-0.796875 2.03125 -2.3125 3.625q-0.484375 0.5 -1.203125 0.5z" fill-rule="nonzero"/><path fill="#000000" fill-opacity="0.0" d="m18.395002 407.4793l0 0c0 -4.148102 3.362709 -7.510803 7.5108185 -7.510803l365.4193 0c1.9919739 0 3.9024048 0.7913208 5.3109436 2.1998596c1.4085388 1.4085693 2.1998596 3.3189697 2.1998596 5.3109436l0 96.66342c0 4.148102 -3.3627014 7.510803 -7.510803 7.510803l-365.4193 0c-4.1481094 0 -7.5108185 -3.3627014 -7.5108185 -7.510803z" fill-rule="evenodd"/><path stroke="#434343" stroke-width="2.0" stroke-linejoin="round" stroke-linecap="butt" d="m18.395002 407.4793l0 0c0 -4.148102 3.362709 -7.510803 7.5108185 -7.510803l365.4193 0c1.9919739 0 3.9024048 0.7913208 5.3109436 2.1998596c1.4085388 1.4085693 2.1998596 3.3189697 2.1998596 5.3109436l0 96.66342c0 4.148102 -3.3627014 7.510803 -7.510803 7.510803l-365.4193 0c-4.1481094 0 -7.5108185 -3.3627014 -7.5108185 -7.510803z" fill-rule="evenodd"/><path fill="#434343" d="m197.85309 462.91852q-2.671875 0 -4.296875 -1.828125q-1.625 -1.84375 -1.625 -5.171875q0 -3.296875 1.546875 -5.140625q1.5625 -1.859375 4.328125 -1.859375q1.453125 0 2.59375 0.28125q0.28125 0.078125 0.453125 0.328125q0.171875 0.234375 0.171875 0.53125q0 0.25 -0.203125 0.390625q-0.1875 0.140625 -0.421875 0.0625q-1.109375 -0.34375 -2.46875 -0.34375q-2.109375 0 -3.3125 1.515625q-1.1875 1.515625 -1.1875 4.234375q0 2.703125 1.234375 4.234375q1.25 1.515625 3.328125 1.515625q1.375 0 2.5 -0.34375q0.234375 -0.0625 0.421875 0.078125q0.203125 0.140625 0.203125 0.375q0 0.296875 -0.171875 0.53125q-0.171875 0.234375 -0.453125 0.3125q-1.25 0.296875 -2.640625 0.296875zm7.8425293 -12.4375l0 5.484375q0 0.140625 0.171875 0.1875q0.890625 0.125 2.015625 0.125q1.84375 0 2.8125 -0.796875q0.984375 -0.8125 0.984375 -2.296875q0 -1.5 -0.96875 -2.265625q-0.953125 -0.78125 -2.828125 -0.78125q-1.015625 0 -2.015625 0.15625q-0.171875 0.03125 -0.171875 0.1875zm-0.21875 12.03125q-0.203125 0.21875 -0.53125 0.21875q-0.3125 0 -0.53125 -0.21875q-0.21875 -0.234375 -0.21875 -0.53125l0 -11.71875q0 -0.4375 0.296875 -0.78125q0.3125 -0.34375 0.75 -0.40625q1.4375 -0.15625 2.75 -0.15625q2.53125 0 3.84375 1.078125q1.328125 1.078125 1.328125 3.078125q0 2.15625 -1.328125 3.28125q-1.328125 1.109375 -3.84375 1.109375q-1.015625 0 -2.125 -0.09375q-0.171875 0 -0.171875 0.140625l0 4.46875q0 0.296875 -0.21875 0.53125zm17.959381 -0.8125q-1.21875 1.21875 -3.515625 1.21875q-2.28125 0 -3.5 -1.21875q-1.203125 -1.21875 -1.203125 -3.640625l0 -8.1875q0 -0.3125 0.21875 -0.53125q0.21875 -0.234375 0.515625 -0.234375q0.328125 0 0.546875 0.234375q0.21875 0.21875 0.21875 0.53125l0 8.25q0 1.8125 0.796875 2.671875q0.796875 0.859375 2.4375 0.859375q1.640625 0 2.4375 -0.859375q0.8125 -0.859375 0.8125 -2.671875l0 -8.28125q0 -0.3125 0.203125 -0.515625q0.21875 -0.21875 0.515625 -0.21875q0.296875 0 0.515625 0.21875q0.21875 0.203125 0.21875 0.515625l0 8.21875q0 2.421875 -1.21875 3.640625z" fill-rule="nonzero"/><path fill="#000000" fill-opacity="0.0" d="m405.45905 405.88455l0 0c0 -3.2731323 2.6534119 -5.926544 5.926544 -5.926544l93.40674 0c1.5718079 0 3.0792542 0.62438965 4.1907043 1.7358398c1.1114502 1.1114502 1.7358398 2.6188965 1.7358398 4.1907043l0 22.005157c0 3.2731628 -2.6534119 5.9265747 -5.926544 5.9265747l-93.40674 0c-3.2731323 0 -5.926544 -2.6534119 -5.926544 -5.9265747z" fill-rule="evenodd"/><path stroke="#434343" stroke-width="2.0" stroke-linejoin="round" stroke-linecap="butt" d="m405.45905 405.88455l0 0c0 -3.2731323 2.6534119 -5.926544 5.926544 -5.926544l93.40674 0c1.5718079 0 3.0792542 0.62438965 4.1907043 1.7358398c1.1114502 1.1114502 1.7358398 2.6188965 1.7358398 4.1907043l0 22.005157c0 3.2731628 -2.6534119 5.9265747 -5.926544 5.9265747l-93.40674 0c-3.2731323 0 -5.926544 -2.6534119 -5.926544 -5.9265747z" fill-rule="evenodd"/><path fill="#434343" d="m440.82486 423.99463q-2.671875 0 -4.296875 -1.828125q-1.625 -1.84375 -1.625 -5.171875q0 -3.296875 1.546875 -5.140625q1.5625 -1.859375 4.328125 -1.859375q1.453125 0 2.59375 0.28125q0.28125 0.078125 0.453125 0.328125q0.171875 0.234375 0.171875 0.53125q0 0.25 -0.203125 0.390625q-0.1875 0.140625 -0.421875 0.0625q-1.109375 -0.34375 -2.46875 -0.34375q-2.109375 0 -3.3125 1.515625q-1.1875 1.515625 -1.1875 4.234375q0 2.703125 1.234375 4.234375q1.25 1.515625 3.328125 1.515625q1.375 0 2.5 -0.34375q0.234375 -0.0625 0.421875 0.078125q0.203125 0.140625 0.203125 0.375q0 0.296875 -0.171875 0.53125q-0.171875 0.234375 -0.453125 0.3125q-1.25 0.296875 -2.640625 0.296875zm14.389404 -1.21875q-1.21875 1.21875 -3.515625 1.21875q-2.28125 0 -3.5 -1.21875q-1.203125 -1.21875 -1.203125 -3.640625l0 -8.1875q0 -0.3125 0.21875 -0.53125q0.21875 -0.234375 0.515625 -0.234375q0.328125 0 0.546875 0.234375q0.21875 0.21875 0.21875 0.53125l0 8.25q0 1.8125 0.796875 2.671875q0.796875 0.859375 2.4375 0.859375q1.640625 0 2.4375 -0.859375q0.8125 -0.859375 0.8125 -2.671875l0 -8.28125q0 -0.3125 0.203125 -0.515625q0.21875 -0.21875 0.515625 -0.21875q0.296875 0 0.515625 0.21875q0.21875 0.203125 0.21875 0.515625l0 8.21875q0 2.421875 -1.21875 3.640625zm5.69162 -11.203125l0 10.859375q0 0.140625 0.171875 0.1875q0.71875 0.125 1.640625 0.125q2.703125 0 3.953125 -1.390625q1.265625 -1.40625 1.265625 -4.546875q0 -2.84375 -1.28125 -4.203125q-1.265625 -1.359375 -3.9375 -1.359375q-0.921875 0 -1.640625 0.140625q-0.171875 0.03125 -0.171875 0.1875zm-0.453125 12.296875q-0.4375 -0.0625 -0.75 -0.40625q-0.296875 -0.34375 -0.296875 -0.8125l0 -11.3125q0 -0.453125 0.296875 -0.796875q0.296875 -0.359375 0.75 -0.40625q1.03125 -0.140625 2.265625 -0.140625q6.640625 0 6.640625 6.8125q0 7.1875 -6.640625 7.1875q-1.234375 0 -2.265625 -0.125zm15.635193 -12.3125l-2.265625 6.9375q-0.015625 0.046875 0.015625 0.09375q0.03125 0.046875 0.09375 0.046875l4.390625 0q0.046875 0 0.078125 -0.046875q0.03125 -0.046875 0.03125 -0.09375l-2.28125 -6.9375q0 -0.03125 -0.015625 -0.03125q-0.046875 0 -0.046875 0.03125zm-4.78125 12.25q-0.28125 0 -0.453125 -0.234375q-0.171875 -0.234375 -0.078125 -0.5l4.25 -12.09375q0.140625 -0.359375 0.4375 -0.578125q0.3125 -0.21875 0.6875 -0.21875q0.375 0 0.671875 0.21875q0.3125 0.21875 0.453125 0.578125l4.234375 12.078125q0.09375 0.28125 -0.078125 0.515625q-0.171875 0.234375 -0.453125 0.234375q-0.375 0 -0.671875 -0.203125q-0.28125 -0.21875 -0.390625 -0.5625l-0.984375 -3.0625q-0.0625 -0.140625 -0.21875 -0.140625l-5.171875 0q-0.15625 0 -0.203125 0.140625l-1.03125 3.09375q-0.109375 0.34375 -0.390625 0.546875q-0.265625 0.1875 -0.609375 0.1875z" fill-rule="nonzero"/><path fill="#000000" fill-opacity="0.0" d="m405.45905 446.29318l0 0c0 -3.8670044 3.1348267 -7.001831 7.001831 -7.001831l91.256165 0c1.8569946 0 3.6379395 0.7376709 4.95105 2.0507812c1.3131104 1.3131104 2.0507812 3.0940552 2.0507812 4.95105l0 58.374268c0 3.8670044 -3.1348267 7.001831 -7.001831 7.001831l-91.256165 0l0 0c-3.8670044 0 -7.001831 -3.1348267 -7.001831 -7.001831z" fill-rule="evenodd"/><path stroke="#434343" stroke-width="2.0" stroke-linejoin="round" stroke-linecap="butt" d="m405.45905 446.29318l0 0c0 -3.8670044 3.1348267 -7.001831 7.001831 -7.001831l91.256165 0c1.8569946 0 3.6379395 0.7376709 4.95105 2.0507812c1.3131104 1.3131104 2.0507812 3.0940552 2.0507812 4.95105l0 58.374268c0 3.8670044 -3.1348267 7.001831 -7.001831 7.001831l-91.256165 0l0 0c-3.8670044 0 -7.001831 -3.1348267 -7.001831 -7.001831z" fill-rule="evenodd"/><path fill="#434343" d="m432.0492 468.5878q-2.796875 0 -4.578125 -1.890625q-1.765625 -1.890625 -1.765625 -5.109375q0 -3.25 1.78125 -5.125q1.796875 -1.875 4.875 -1.875q1.46875 0 2.671875 0.28125q0.28125 0.0625 0.453125 0.296875q0.171875 0.234375 0.171875 0.515625q0 0.234375 -0.203125 0.390625q-0.203125 0.140625 -0.4375 0.078125q-1.21875 -0.34375 -2.53125 -0.34375q-2.46875 0 -3.859375 1.53125q-1.390625 1.515625 -1.390625 4.25q0 2.671875 1.34375 4.234375q1.359375 1.546875 3.59375 1.546875q1.359375 0 2.515625 -0.390625q0.15625 -0.046875 0.15625 -0.21875l0 -4.921875q0 -0.171875 -0.15625 -0.171875l-3.65625 0q-0.25 0 -0.421875 -0.171875q-0.171875 -0.1875 -0.171875 -0.421875q0 -0.25 0.171875 -0.421875q0.171875 -0.171875 0.421875 -0.171875l4.1875 0q0.421875 0 0.734375 0.3125q0.328125 0.3125 0.328125 0.75l0 5.15625q0 0.484375 -0.28125 0.890625q-0.265625 0.40625 -0.71875 0.546875q-1.40625 0.453125 -3.234375 0.453125zm8.801239 -12.4375l0 5.484375q0 0.140625 0.171875 0.1875q0.890625 0.125 2.015625 0.125q1.84375 0 2.8125 -0.796875q0.984375 -0.8125 0.984375 -2.296875q0 -1.5 -0.96875 -2.265625q-0.953125 -0.78125 -2.828125 -0.78125q-1.015625 0 -2.015625 0.15625q-0.171875 0.03125 -0.171875 0.1875zm-0.21875 12.03125q-0.203125 0.21875 -0.53125 0.21875q-0.3125 0 -0.53125 -0.21875q-0.21875 -0.234375 -0.21875 -0.53125l0 -11.71875q0 -0.4375 0.296875 -0.78125q0.3125 -0.34375 0.75 -0.40625q1.4375 -0.15625 2.75 -0.15625q2.53125 0 3.84375 1.078125q1.328125 1.078125 1.328125 3.078125q0 2.15625 -1.328125 3.28125q-1.328125 1.109375 -3.84375 1.109375q-1.015625 0 -2.125 -0.09375q-0.171875 0 -0.171875 0.140625l0 4.46875q0 0.296875 -0.21875 0.53125zm17.959381 -0.8125q-1.21875 1.21875 -3.515625 1.21875q-2.28125 0 -3.5 -1.21875q-1.203125 -1.21875 -1.203125 -3.640625l0 -8.1875q0 -0.3125 0.21875 -0.53125q0.21875 -0.234375 0.515625 -0.234375q0.328125 0 0.546875 0.234375q0.21875 0.21875 0.21875 0.53125l0 8.25q0 1.8125 0.796875 2.671875q0.796875 0.859375 2.4375 0.859375q1.640625 0 2.4375 -0.859375q0.8125 -0.859375 0.8125 -2.671875l0 -8.28125q0 -0.3125 0.203125 -0.515625q0.21875 -0.21875 0.515625 -0.21875q0.296875 0 0.515625 0.21875q0.21875 0.203125 0.21875 0.515625l0 8.21875q0 2.421875 -1.21875 3.640625zm13.291321 3.640625q-0.75 0 -1.21875 -0.5q-3.109375 -3.265625 -3.109375 -7.984375q0 -4.71875 3.109375 -7.984375q0.46875 -0.5 1.21875 -0.5q0.1875 0 0.265625 0.1875q0.078125 0.171875 -0.0625 0.328125q-3.09375 3.265625 -3.09375 7.96875q0 4.703125 3.09375 7.96875q0.125 0.140625 0.046875 0.328125q-0.0625 0.1875 -0.25 0.1875zm7.803467 -2.421875q-2.671875 0 -4.296875 -1.828125q-1.625 -1.84375 -1.625 -5.171875q0 -3.296875 1.546875 -5.140625q1.5625 -1.859375 4.328125 -1.859375q1.453125 0 2.59375 0.28125q0.28125 0.078125 0.453125 0.328125q0.171875 0.234375 0.171875 0.53125q0 0.25 -0.203125 0.390625q-0.1875 0.140625 -0.421875 0.0625q-1.109375 -0.34375 -2.46875 -0.34375q-2.109375 0 -3.3125 1.515625q-1.1875 1.515625 -1.1875 4.234375q0 2.703125 1.234375 4.234375q1.25 1.515625 3.328125 1.515625q1.375 0 2.5 -0.34375q0.234375 -0.0625 0.421875 0.078125q0.203125 0.140625 0.203125 0.375q0 0.296875 -0.171875 0.53125q-0.171875 0.234375 -0.453125 0.3125q-1.25 0.296875 -2.640625 0.296875zm5.9831543 2.421875q-0.203125 0 -0.28125 -0.1875q-0.078125 -0.1875 0.078125 -0.328125q3.09375 -3.265625 3.09375 -7.96875q0 -4.703125 -3.09375 -7.96875q-0.140625 -0.15625 -0.0625 -0.328125q0.078125 -0.1875 0.265625 -0.1875q0.71875 0 1.203125 0.5q1.515625 1.578125 2.3125 3.625q0.8125 2.046875 0.8125 4.359375q0 2.3125 -0.8125 4.359375q-0.796875 2.03125 -2.3125 3.625q-0.484375 0.5 -1.203125 0.5z" fill-rule="nonzero"/><path fill="#434343" d="m421.86206 485.6878q-0.484375 0 -0.78125 -0.328125q-2.0 -2.109375 -2.0 -5.140625q0 -3.03125 2.0 -5.140625q0.296875 -0.3125 0.78125 -0.3125q0.125 0 0.171875 0.125q0.0625 0.109375 -0.046875 0.203125q-1.984375 2.109375 -1.984375 5.140625q0 3.015625 1.984375 5.109375q0.09375 0.09375 0.046875 0.21875q-0.046875 0.125 -0.171875 0.125z" fill-rule="nonzero"/><path fill="#434343" d="m429.4681 487.28156l-6.546875 0q-0.171875 0 -0.25 -0.0625q-0.078125 -0.0625 -0.078125 -0.171875q0 -0.109375 0.078125 -0.1875q0.078125 -0.0625 0.25 -0.0625l6.546875 0q0.1875 0 0.25 0.0625q0.078125 0.078125 0.078125 0.1875q0 0.109375 -0.078125 0.171875q-0.0625 0.0625 -0.25 0.0625zm7.201172 0l-6.546875 0q-0.171875 0 -0.25 -0.0625q-0.078125 -0.0625 -0.078125 -0.171875q0 -0.109375 0.078125 -0.1875q0.078125 -0.0625 0.25 -0.0625l6.546875 0q0.1875 0 0.25 0.0625q0.078125 0.078125 0.078125 0.1875q0 0.109375 -0.078125 0.171875q-0.0625 0.0625 -0.25 0.0625zm6.341797 -10.640625l0 6.859375l0.65625 0q0.171875 0 0.25 0.078125q0.078125 0.0625 0.078125 0.171875q0 0.109375 -0.078125 0.1875q-0.078125 0.0625 -0.25 0.0625l-1.15625 0l0 -0.984375q-0.859375 1.171875 -2.171875 1.171875q-0.671875 0 -1.28125 -0.34375q-0.609375 -0.359375 -0.96875 -1.015625q-0.359375 -0.65625 -0.359375 -1.359375q0 -0.703125 0.359375 -1.34375q0.359375 -0.65625 0.96875 -1.015625q0.609375 -0.359375 1.28125 -0.359375q1.296875 0 2.171875 1.171875l0 -2.78125l-0.65625 0q-0.1875 0 -0.265625 -0.0625q-0.0625 -0.078125 -0.0625 -0.1875q0 -0.109375 0.0625 -0.171875q0.078125 -0.078125 0.265625 -0.078125l1.15625 0zm-0.5 4.828125q0 -0.9375 -0.640625 -1.578125q-0.625 -0.640625 -1.5 -0.640625q-0.875 0 -1.515625 0.640625q-0.625 0.640625 -0.625 1.578125q0 0.9375 0.625 1.59375q0.640625 0.640625 1.515625 0.640625q0.875 0 1.5 -0.640625q0.640625 -0.65625 0.640625 -1.59375zm7.951172 0.109375l-5.015625 0q0.125 0.953125 0.796875 1.546875q0.671875 0.578125 1.65625 0.578125q0.5625 0 1.15625 -0.171875q0.609375 -0.1875 0.984375 -0.5q0.109375 -0.078125 0.203125 -0.078125q0.09375 0 0.15625 0.078125q0.078125 0.0625 0.078125 0.171875q0 0.09375 -0.09375 0.1875q-0.28125 0.296875 -1.0 0.546875q-0.71875 0.25 -1.484375 0.25q-1.265625 0 -2.109375 -0.828125q-0.84375 -0.828125 -0.84375 -2.0q0 -1.078125 0.796875 -1.84375q0.796875 -0.765625 1.96875 -0.765625q1.203125 0 1.984375 0.796875q0.78125 0.78125 0.765625 2.03125zm-0.5 -0.5q-0.140625 -0.8125 -0.765625 -1.3125q-0.625 -0.515625 -1.484375 -0.515625q-0.859375 0 -1.484375 0.5q-0.625 0.5 -0.78125 1.328125l4.515625 0zm5.466797 2.921875l-0.828125 0l-2.03125 -4.578125l-0.5 0q-0.171875 0 -0.25 -0.0625q-0.078125 -0.078125 -0.078125 -0.1875q0 -0.109375 0.078125 -0.171875q0.078125 -0.078125 0.25 -0.078125l1.84375 0q0.1875 0 0.25 0.078125q0.078125 0.0625 0.078125 0.171875q0 0.109375 -0.078125 0.1875q-0.0625 0.0625 -0.25 0.0625l-0.8125 0l1.8125 4.078125l0.21875 0l1.765625 -4.078125l-0.828125 0q-0.171875 0 -0.25 -0.0625q-0.078125 -0.078125 -0.078125 -0.1875q0 -0.109375 0.078125 -0.171875q0.078125 -0.078125 0.25 -0.078125l1.859375 0q0.171875 0 0.25 0.078125q0.078125 0.0625 0.078125 0.171875q0 0.109375 -0.078125 0.1875q-0.078125 0.0625 -0.25 0.0625l-0.5 0l-2.0 4.578125zm7.013672 -7.59375l0 1.265625l-0.71875 0l0 -1.265625l0.71875 0zm0.015625 2.515625l0 4.578125l1.9375 0q0.1875 0 0.25 0.078125q0.078125 0.0625 0.078125 0.171875q0 0.109375 -0.078125 0.1875q-0.0625 0.0625 -0.25 0.0625l-4.359375 0q-0.171875 0 -0.25 -0.0625q-0.078125 -0.078125 -0.078125 -0.1875q0 -0.109375 0.078125 -0.171875q0.078125 -0.078125 0.25 -0.078125l1.9375 0l0 -4.078125l-1.4375 0q-0.171875 0 -0.265625 -0.0625q-0.078125 -0.078125 -0.078125 -0.1875q0 -0.109375 0.078125 -0.171875q0.078125 -0.078125 0.265625 -0.078125l1.921875 0zm8.998047 0.5l0 -0.15625q0 -0.1875 0.0625 -0.265625q0.078125 -0.078125 0.1875 -0.078125q0.109375 0 0.171875 0.078125q0.078125 0.078125 0.078125 0.265625l0 1.109375q-0.015625 0.171875 -0.078125 0.25q-0.0625 0.078125 -0.171875 0.078125q-0.109375 0 -0.171875 -0.0625q-0.0625 -0.0625 -0.078125 -0.234375q-0.03125 -0.40625 -0.546875 -0.78125q-0.515625 -0.375 -1.375 -0.375q-1.109375 0 -1.671875 0.6875q-0.5625 0.6875 -0.5625 1.5625q0 0.953125 0.625 1.578125q0.625 0.625 1.625 0.625q0.5625 0 1.15625 -0.203125q0.609375 -0.21875 1.078125 -0.6875q0.125 -0.125 0.21875 -0.125q0.109375 0 0.171875 0.078125q0.0625 0.0625 0.0625 0.15625q0 0.25 -0.59375 0.640625q-0.953125 0.625 -2.125 0.625q-1.1875 0 -1.953125 -0.75q-0.765625 -0.765625 -0.765625 -1.921875q0 -1.203125 0.78125 -1.984375q0.78125 -0.78125 1.96875 -0.78125q1.140625 0 1.90625 0.671875zm7.810547 2.15625l-5.015625 0q0.125 0.953125 0.796875 1.546875q0.671875 0.578125 1.65625 0.578125q0.5625 0 1.15625 -0.171875q0.609375 -0.1875 0.984375 -0.5q0.109375 -0.078125 0.203125 -0.078125q0.09375 0 0.15625 0.078125q0.078125 0.0625 0.078125 0.171875q0 0.09375 -0.09375 0.1875q-0.28125 0.296875 -1.0 0.546875q-0.71875 0.25 -1.484375 0.25q-1.265625 0 -2.109375 -0.828125q-0.84375 -0.828125 -0.84375 -2.0q0 -1.078125 0.796875 -1.84375q0.796875 -0.765625 1.96875 -0.765625q1.203125 0 1.984375 0.796875q0.78125 0.78125 0.765625 2.03125zm-0.5 -0.5q-0.140625 -0.8125 -0.765625 -1.3125q-0.625 -0.515625 -1.484375 -0.515625q-0.859375 0 -1.484375 0.5q-0.625 0.5 -0.78125 1.328125l4.515625 0zm8.310547 6.203125l-6.546875 0q-0.171875 0 -0.25 -0.0625q-0.078125 -0.0625 -0.078125 -0.171875q0 -0.109375 0.078125 -0.1875q0.078125 -0.0625 0.25 -0.0625l6.546875 0q0.1875 0 0.25 0.0625q0.078125 0.078125 0.078125 0.1875q0 0.109375 -0.078125 0.171875q-0.0625 0.0625 -0.25 0.0625zm7.201172 0l-6.546875 0q-0.171875 0 -0.25 -0.0625q-0.078125 -0.0625 -0.078125 -0.171875q0 -0.109375 0.078125 -0.1875q0.078125 -0.0625 0.25 -0.0625l6.546875 0q0.1875 0 0.25 0.0625q0.078125 0.078125 0.078125 0.1875q0 0.109375 -0.078125 0.171875q-0.0625 0.0625 -0.25 0.0625z" fill-rule="nonzero"/><path fill="#434343" d="m495.69858 485.3128q-0.15625 0 -0.265625 -0.125q-0.09375 -0.125 -0.046875 -0.28125l0.578125 -1.96875q0.0625 -0.25 0.28125 -0.40625q0.234375 -0.171875 0.5 -0.171875q0.203125 0 0.328125 0.1875q0.125 0.171875 0.03125 0.375l-0.796875 1.984375q-0.078125 0.203125 -0.25 0.296875q-0.15625 0.109375 -0.359375 0.109375z" fill-rule="nonzero"/><path fill="#434343" d="m426.7801 501.28156l-6.546875 0q-0.171875 0 -0.25 -0.0625q-0.078125 -0.0625 -0.078125 -0.171875q0 -0.109375 0.078125 -0.1875q0.078125 -0.0625 0.25 -0.0625l6.546875 0q0.1875 0 0.25 0.0625q0.078125 0.078125 0.078125 0.1875q0 0.109375 -0.078125 0.171875q-0.0625 0.0625 -0.25 0.0625zm7.201172 0l-6.546875 0q-0.171875 0 -0.25 -0.0625q-0.078125 -0.0625 -0.078125 -0.171875q0 -0.109375 0.078125 -0.1875q0.078125 -0.0625 0.25 -0.0625l6.546875 0q0.1875 0 0.25 0.0625q0.078125 0.078125 0.078125 0.1875q0 0.109375 -0.078125 0.171875q-0.0625 0.0625 -0.25 0.0625zm5.576172 -7.453125l0 -0.90625l1.15625 0q0.1875 0 0.25 0.078125q0.078125 0.0625 0.078125 0.171875q0 0.109375 -0.078125 0.1875q-0.0625 0.0625 -0.25 0.0625l-0.65625 0l0 4.921875q0 0.484375 -0.21875 0.875q-0.140625 0.265625 -0.46875 0.53125q-0.328125 0.28125 -0.59375 0.390625q-0.265625 0.125 -0.71875 0.125l-1.390625 0q-0.171875 0 -0.25 -0.078125q-0.078125 -0.0625 -0.078125 -0.171875q0 -0.109375 0.078125 -0.1875q0.078125 -0.0625 0.25 -0.0625l1.40625 0q0.4375 0 0.78125 -0.21875q0.359375 -0.21875 0.578125 -0.65625q0.125 -0.234375 0.125 -0.625l0 -1.46875q-0.78125 1.078125 -2.03125 1.078125q-1.015625 0 -1.75 -0.75q-0.734375 -0.75 -0.734375 -1.8125q0 -1.0625 0.734375 -1.8125q0.734375 -0.75 1.75 -0.75q1.25 0 2.03125 1.078125zm0 1.484375q0 -0.875 -0.59375 -1.46875q-0.59375 -0.59375 -1.421875 -0.59375q-0.8125 0 -1.40625 0.609375q-0.59375 0.59375 -0.59375 1.453125q0 0.859375 0.59375 1.46875q0.59375 0.59375 1.40625 0.59375q0.828125 0 1.421875 -0.59375q0.59375 -0.609375 0.59375 -1.46875zm5.794922 -4.671875l0 6.859375l1.9375 0q0.1875 0 0.265625 0.078125q0.078125 0.0625 0.078125 0.171875q0 0.109375 -0.078125 0.1875q-0.078125 0.0625 -0.265625 0.0625l-4.359375 0q-0.171875 0 -0.25 -0.0625q-0.078125 -0.078125 -0.078125 -0.1875q0 -0.109375 0.078125 -0.171875q0.078125 -0.078125 0.25 -0.078125l1.9375 0l0 -6.359375l-1.421875 0q-0.171875 0 -0.25 -0.0625q-0.078125 -0.078125 -0.078125 -0.1875q0 -0.109375 0.078125 -0.171875q0.078125 -0.078125 0.25 -0.078125l1.90625 0zm9.716797 4.828125q0 1.125 -0.8125 1.921875q-0.8125 0.796875 -1.9375 0.796875q-1.15625 0 -1.96875 -0.796875q-0.796875 -0.796875 -0.796875 -1.921875q0 -1.125 0.796875 -1.921875q0.8125 -0.796875 1.96875 -0.796875q1.125 0 1.9375 0.796875q0.8125 0.796875 0.8125 1.921875zm-0.5 0q0 -0.921875 -0.671875 -1.5625q-0.65625 -0.65625 -1.59375 -0.65625q-0.9375 0 -1.59375 0.65625q-0.65625 0.640625 -0.65625 1.5625q0 0.921875 0.65625 1.578125q0.65625 0.65625 1.59375 0.65625q0.9375 0 1.59375 -0.65625q0.671875 -0.65625 0.671875 -1.578125zm3.0917969 -4.828125l0 3.265625q0.890625 -1.15625 2.140625 -1.15625q1.078125 0 1.84375 0.78125q0.78125 0.78125 0.78125 1.921875q0 1.140625 -0.78125 1.9375q-0.78125 0.796875 -1.84375 0.796875q-1.28125 0 -2.140625 -1.15625l0 0.96875l-1.15625 0q-0.171875 0 -0.25 -0.0625q-0.078125 -0.078125 -0.078125 -0.1875q0 -0.109375 0.078125 -0.171875q0.078125 -0.078125 0.25 -0.078125l0.65625 0l0 -6.359375l-0.65625 0q-0.171875 0 -0.25 -0.0625q-0.078125 -0.078125 -0.078125 -0.1875q0 -0.109375 0.078125 -0.171875q0.078125 -0.078125 0.25 -0.078125l1.15625 0zm4.265625 4.828125q0 -0.921875 -0.640625 -1.5625q-0.640625 -0.65625 -1.484375 -0.65625q-0.859375 0 -1.5 0.65625q-0.640625 0.640625 -0.640625 1.5625q0 0.9375 0.640625 1.59375q0.640625 0.640625 1.5 0.640625q0.84375 0 1.484375 -0.640625q0.640625 -0.65625 0.640625 -1.59375zm6.201172 2.53125l0 -0.703125q-1.078125 0.890625 -2.296875 0.890625q-0.875 0 -1.375 -0.4375q-0.5 -0.453125 -0.5 -1.109375q0 -0.703125 0.65625 -1.234375q0.65625 -0.546875 1.921875 -0.546875q0.328125 0 0.71875 0.046875q0.40625 0.046875 0.875 0.140625l0 -0.796875q0 -0.40625 -0.375 -0.703125q-0.375 -0.296875 -1.125 -0.296875q-0.578125 0 -1.609375 0.328125q-0.1875 0.0625 -0.234375 0.0625q-0.09375 0 -0.171875 -0.0625q-0.0625 -0.078125 -0.0625 -0.1875q0 -0.09375 0.0625 -0.15625q0.078125 -0.09375 0.65625 -0.234375q0.921875 -0.25 1.390625 -0.25q0.921875 0 1.4375 0.46875q0.53125 0.453125 0.53125 1.03125l0 3.25l0.65625 0q0.1875 0 0.25 0.078125q0.078125 0.0625 0.078125 0.171875q0 0.109375 -0.078125 0.1875q-0.0625 0.0625 -0.25 0.0625l-1.15625 0zm0 -2.453125q-0.34375 -0.09375 -0.734375 -0.140625q-0.390625 -0.046875 -0.8125 -0.046875q-1.078125 0 -1.671875 0.453125q-0.453125 0.359375 -0.453125 0.828125q0 0.453125 0.34375 0.765625q0.34375 0.296875 1.015625 0.296875q0.640625 0 1.1875 -0.25q0.546875 -0.265625 1.125 -0.8125l0 -1.09375zm6.029297 -4.90625l0 6.859375l1.9375 0q0.1875 0 0.265625 0.078125q0.078125 0.0625 0.078125 0.171875q0 0.109375 -0.078125 0.1875q-0.078125 0.0625 -0.265625 0.0625l-4.359375 0q-0.171875 0 -0.25 -0.0625q-0.078125 -0.078125 -0.078125 -0.1875q0 -0.109375 0.078125 -0.171875q0.078125 -0.078125 0.25 -0.078125l1.9375 0l0 -6.359375l-1.421875 0q-0.171875 0 -0.25 -0.0625q-0.078125 -0.078125 -0.078125 -0.1875q0 -0.109375 0.078125 -0.171875q0.078125 -0.078125 0.25 -0.078125l1.90625 0zm10.232422 10.640625l-6.546875 0q-0.171875 0 -0.25 -0.0625q-0.078125 -0.0625 -0.078125 -0.171875q0 -0.109375 0.078125 -0.1875q0.078125 -0.0625 0.25 -0.0625l6.546875 0q0.1875 0 0.25 0.0625q0.078125 0.078125 0.078125 0.1875q0 0.109375 -0.078125 0.171875q-0.0625 0.0625 -0.25 0.0625zm7.201172 0l-6.546875 0q-0.171875 0 -0.25 -0.0625q-0.078125 -0.0625 -0.078125 -0.171875q0 -0.109375 0.078125 -0.1875q0.078125 -0.0625 0.25 -0.0625l6.546875 0q0.1875 0 0.25 0.0625q0.078125 0.078125 0.078125 0.1875q0 0.109375 -0.078125 0.171875q-0.0625 0.0625 -0.25 0.0625z" fill-rule="nonzero"/><path fill="#434343" d="m492.69806 499.6878q-0.140625 0 -0.1875 -0.125q-0.046875 -0.125 0.046875 -0.21875q2.0 -2.09375 2.0 -5.109375q0 -3.03125 -2.0 -5.140625q-0.078125 -0.09375 -0.03125 -0.203125q0.046875 -0.125 0.171875 -0.125q0.46875 0 0.78125 0.3125q0.96875 1.03125 1.484375 2.34375q0.515625 1.3125 0.515625 2.796875q0 1.484375 -0.515625 2.8125q-0.515625 1.3125 -1.484375 2.328125q-0.3125 0.328125 -0.78125 0.328125z" fill-rule="nonzero"/></g></svg>